M48
INCH,TZ
T1C0.0197
%
G90
G05
T1
X21831Y-48445
X21831Y-49035
X22126Y-48445
X22126Y-49035
X22421Y-48445
X22421Y-49035
X37520Y-48445
X37520Y-49035
X37815Y-48445
X37815Y-49035
X38110Y-48445
X38110Y-49035
X42264Y-48445
X42264Y-49035
X42559Y-48445
X42559Y-49035
X42854Y-48445
X42854Y-49035
X46988Y-48445
X46988Y-49035
X47283Y-48445
X47283Y-49035
X47579Y-48445
X47579Y-49035
M30
