<?xml version="1.0" encoding="UTF-8"?><svg id="a" xmlns="http://www.w3.org/2000/svg" viewBox="0 0 928.135 1575.098"><defs><style>.b{fill:blue;stroke-width:0px;}</style></defs><path class="b" d="M441.765,111.478c.074-.007.141-.03.2-.067s.111-.1.156-.189c.044-.089.067-.212.067-.367v-.534c0-.378-.059-.718-.178-1.019-.119-.301-.286-.559-.501-.774-.215-.215-.475-.38-.779-.495-.304-.115-.646-.173-1.024-.173h-6.524v-2.448h-.609v.609h-.422v.562h-.127v2.917h6.322c.379,0,.72.057,1.024.173.304.115.564.28.779.495.215.215.382.473.501.774.067.169.11.353.139.547h.786c.052,0,.115-.004.189-.011Z"/><path class="b" d="M439.436,104.766c.3-.115.558-.278.771-.491.215-.215.38-.473.495-.774.115-.301.173-.64.173-1.019v-.546c0-.416-.2-.623-.601-.623h-8.249v1.641h6.89c.401,0,.601.208.601.623v.546c0,.232-.033.442-.079.643Z"/><path class="b" d="M443.212,114.033c-.445.234-.991.351-1.637.351h-10.988c-.208,0-.401-.037-.579-.111-.178-.074-.332-.176-.462-.306s-.232-.284-.306-.462c-.074-.178-.111-.371-.111-.579v-13.048c0-.2.037-.39.111-.568.051-.122.133-.219.21-.32-.016.006-.035.003-.051.01-.178.074-.332.178-.462.312s-.232.289-.306.468c-.011.025-.014.053-.022.079-.028.025-.067.036-.093.063-.13.134-.232.289-.306.468-.012.029-.008.063-.018.092-.001.001-.003.002-.004.003-.13.134-.232.289-.306.468-.074.178-.111.367-.111.568v13.048c0,.208.037.401.111.579.074.178.176.332.306.462s.284.232.462.306c.178.074.371.111.579.111h10.988c.646,0,1.191-.117,1.637-.351.445-.234.807-.525,1.085-.874.168-.21.291-.437.399-.67.075-.101.14-.206.205-.311-.109.072-.208.151-.329.214Z"/><path class="b" d="M451.273,114.384c-.416,0-.859-.07-1.33-.211-.471-.141-.911-.373-1.319-.696-.408-.323-.746-.742-1.013-1.258-.267-.516-.401-1.149-.401-1.898v-12.59h-.609v.609h-.422v.562h-.328v13.059c0,.75.134,1.382.401,1.898.267.516.605.935,1.013,1.258.408.323.848.555,1.319.696.471.141.915.211,1.33.211h1.291v-.562h.328v-.609h.422v-.469h-.682Z"/><polygon class="b" points="464.509 111.489 464.509 102.818 463.9 102.818 463.9 103.427 463.478 103.427 463.478 103.99 463.15 103.99 463.15 111.489 464.509 111.489"/><path class="b" d="M465.968,114.384h-6.546c-.356,0-.737-.041-1.141-.122-.404-.082-.803-.213-1.197-.395-.393-.182-.774-.412-1.141-.69-.367-.278-.688-.616-.963-1.013-.275-.397-.495-.855-.662-1.375s-.25-1.106-.25-1.759v-6.211h-.609v.609h-.422v.562h-.328v6.68c0,.653.083,1.239.25,1.759s.388.978.662,1.375c.275.397.596.735.963,1.013.367.278.748.508,1.141.69.393.182.792.314,1.197.395.405.082.785.122,1.141.122h6.546c.2,0,.388-.037.562-.111.174-.074.327-.176.456-.306s.232-.284.306-.462c.015-.037.022-.078.033-.117.123-.127.224-.274.296-.446.01-.025.007-.055.015-.08.032-.024.072-.039.1-.067.043-.043.064-.104.101-.152-.161.061-.328.101-.51.101Z"/><path class="b" d="M479.995,107.208c.215-.241.323-.54.323-.896,0-.378-.121-.675-.362-.891-.241-.215-.533-.323-.874-.323h-5.221c-.393,0-.698.121-.913.362-.215.241-.323.54-.323.896v.383h5.098c.341,0,.633.108.874.323.15.134.237.311.294.508h.192c.393,0,.698-.121.913-.362Z"/><path class="b" d="M473.861,114.384c-.401,0-.833-.07-1.297-.211-.464-.141-.894-.369-1.291-.685-.397-.315-.729-.727-.996-1.236-.267-.508-.401-1.126-.401-1.854v-4.063c0-.401.07-.833.212-1.297.141-.464.369-.894.685-1.291.099-.124.223-.23.341-.342-.372.233-.7.496-.95.81-.134.169-.244.347-.342.529-.024.028-.057.051-.08.08-.198.249-.349.515-.478.79-.231.334-.42.685-.535,1.064-.141.464-.212.896-.212,1.297v4.063c0,.727.134,1.345.401,1.854.267.508.599.92.996,1.236.397.315.828.544,1.291.685.464.141.896.211,1.297.211h5.221v-.562h.328v-.609h.422v-.469h-4.612Z"/><path class="b" d="M480.936,109.919c-.508.267-1.126.401-1.854.401h-5.221v-2.281h-.609v.609h-.422v.562h-.204v1.187c0,.386.121.687.362.902.241.215.54.323.896.323h5.199v.113c.167-.055.345-.098.494-.176.508-.267.92-.599,1.236-.996.181-.228.317-.474.436-.726.05-.069.093-.141.139-.212-.146.101-.285.207-.451.294Z"/><polygon class="b" points="576.393 114.361 576.393 101.291 570.003 101.291 570.003 98.959 569.37 98.959 569.37 99.592 569.018 99.592 569.018 100.19 568.491 100.19 568.491 103.084 574.881 103.084 574.881 116.154 577.776 116.154 577.776 115.557 578.303 115.557 578.303 114.924 578.655 114.924 578.655 114.361 576.393 114.361"/><polygon class="b" points="579.288 101.291 579.288 103.084 584.155 103.084 584.155 102.487 584.682 102.487 584.682 101.854 585.034 101.854 585.034 101.291 579.288 101.291"/><path class="b" d="M596.076,107.186c.215-.241.323-.54.323-.896,0-.379-.121-.675-.362-.891-.241-.215-.532-.323-.874-.323h-5.221c-.393,0-.698.121-.913.362s-.323.54-.323.896v.535h4.945c.341,0,.633.108.874.323.112.1.193.22.251.356h.386c.393,0,.698-.121.913-.362Z"/><path class="b" d="M589.942,114.361c-.401,0-.833-.071-1.297-.212s-.894-.369-1.292-.685c-.397-.315-.729-.727-.996-1.236s-.401-1.126-.401-1.854v-4.063c0-.401.07-.833.212-1.297.141-.464.369-.894.685-1.291.034-.043.081-.076.117-.118-.286.203-.546.423-.75.68-.211.266-.367.554-.5.85-.133.122-.27.242-.379.38-.315.397-.544.828-.685,1.291-.141.464-.212.896-.212,1.297v4.063c0,.727.134,1.345.401,1.854s.599.92.996,1.236c.397.315.828.544,1.292.685s.896.212,1.297.212h5.221v-.598h.527v-.633h.352v-.562h-4.589Z"/><path class="b" d="M597.017,109.897c-.508.267-1.126.401-1.854.401h-5.221v-2.187h-.633v.633h-.352v.598h-.251v1.035c0,.386.121.687.362.902.241.215.54.323.896.323h5.199v.211c.112-.043.239-.068.342-.122.508-.267.92-.599,1.236-.996.051-.065.086-.136.133-.202.139-.127.281-.252.395-.396.153-.193.272-.399.38-.61-.192.149-.399.289-.631.411Z"/><path class="b" d="M602.371,106.78c.508-.267,1.126-.401,1.854-.401h5.221v2.761h-.276v2.46h.276c.393,0,.698-.119.913-.356.215-.238.323-.534.323-.891v-4.041c0-.378-.117-.679-.351-.902s-.529-.334-.885-.334h-6.357v-2.187h-.633v.633h-.352v.598h-.527v2.75h.656c.049-.028.087-.063.138-.09Z"/><path class="b" d="M611.3,113.96c-.508.267-1.126.401-1.854.401h-5.221c-.401,0-.833-.071-1.297-.212s-.894-.369-1.291-.685-.729-.727-.996-1.236c-.267-.508-.401-1.126-.401-1.854,0-.401.071-.835.212-1.302.141-.468.369-.9.685-1.297.034-.043.081-.077.118-.118-.286.203-.546.423-.75.68-.21.265-.366.552-.498.848-.134.123-.271.243-.381.382-.315.397-.544.829-.685,1.297-.141.468-.212.902-.212,1.302,0,.727.134,1.345.401,1.854.267.508.599.92.996,1.236s.828.544,1.291.685.896.212,1.297.212h5.221c.727,0,1.345-.134,1.854-.401.508-.267.92-.599,1.236-.996.051-.065.086-.136.133-.202.139-.127.281-.252.395-.396.153-.193.272-.399.38-.61-.192.149-.399.289-.631.411Z"/><path class="b" d="M604.225,109.14c-.393,0-.698.121-.913.362-.215.241-.323.54-.323.896,0,.204.043.379.115.535h4.83v-.598h.527v-.633h.352v-.562h-4.589Z"/><path class="b" d="M625.188,102.889h-.521c.176.099.352.201.521.328v-.328Z"/><path class="b" d="M615.903,114.361v-10.598c0-.2.037-.388.111-.562.031-.072.088-.124.129-.188-.17.073-.321.17-.45.294-.134.13-.237.282-.312.456-.023.054-.018.117-.034.173-.002.002-.004.002-.006.004-.134.13-.237.282-.312.456-.071.048-.154.081-.216.141-.134.13-.237.282-.312.456-.074.174-.111.362-.111.562v10.598h2.895v-.598h.527v-.633h.352v-.562h-2.262Z"/><path class="b" d="M623.752,114.361v-7.982c0-.379-.1-.666-.301-.863-.2-.197-.497-.295-.891-.295h-3.763v1.793h2.251c.393,0,.69.098.891.295.2.197.301.484.301.863v7.982h2.895v-.598h.527v-.633h.352v-.562h-2.262Z"/><path class="b" d="M630.265,114.361v-7.982c0-.379-.095-.666-.284-.863-.189-.197-.481-.295-.874-.295h-2.605c.097.356.145.742.145,1.158v.635h.949c.393,0,.685.098.874.295.189.197.284.484.284.863v7.982h2.895v-.598h.527v-.633h.352v-.562h-2.262Z"/><polygon class="b" points="479.773 138.648 485.13 127.71 484.914 127.71 484.667 128.214 484.421 128.214 484.209 128.648 484.046 128.648 479.461 138.009 479.773 138.648"/><path class="b" d="M480.546,143.118c-.234.145-.492.217-.774.217-.275,0-.529-.072-.763-.217-.234-.145-.414-.336-.54-.573l-7.272-14.834h-.768l.247.504h-.739l.213.434h-.588l7.548,15.397c.126.237.306.429.54.573.234.145.488.217.763.217.282,0,.54-.072.774-.217.222-.137.388-.32.506-.541.138-.112.256-.239.345-.39.005-.003.011-.004.016-.007.234-.145.41-.336.529-.573l.016-.032c-.019.013-.032.031-.052.043Z"/><polygon class="b" points="491.976 143.112 491.976 131.64 491.483 131.64 491.483 132.144 490.991 132.144 490.991 132.577 490.616 132.577 490.616 144.612 493.511 144.612 493.511 144.178 493.886 144.178 493.886 143.675 494.378 143.675 494.378 143.112 491.976 143.112"/><polygon class="b" points="493.511 129.672 493.886 129.672 493.886 129.168 494.378 129.168 494.378 128.606 491.976 128.606 491.976 126.552 491.483 126.552 491.483 127.056 490.991 127.056 490.991 127.49 490.616 127.49 490.616 130.106 493.511 130.106 493.511 129.672"/><path class="b" d="M504.995,143.112c-.416,0-.859-.07-1.33-.211-.471-.141-.911-.373-1.319-.696-.408-.323-.746-.742-1.013-1.258-.267-.516-.401-1.149-.401-1.898v-12.496h-.492v.504h-.492v.434h-.375v13.059c0,.75.134,1.382.401,1.898.267.516.605.935,1.013,1.258.408.323.848.555,1.319.696.471.141.915.211,1.33.211h1.291v-.434h.375v-.504h.492v-.562h-.799Z"/><path class="b" d="M514.82,143.112c-.416,0-.859-.07-1.33-.211-.471-.141-.911-.373-1.319-.696-.408-.323-.746-.742-1.013-1.258-.267-.516-.401-1.149-.401-1.898v-12.496h-.492v.504h-.492v.434h-.375v13.059c0,.75.134,1.382.401,1.898.267.516.605.935,1.013,1.258.408.323.848.555,1.319.696.471.141.915.211,1.33.211h1.291v-.434h.375v-.504h.492v-.562h-.799Z"/><path class="b" d="M547.664,137.734c-.393,0-.698.121-.913.362-.215.241-.323.54-.323.896,0,.091.03.161.045.242h5.053v-.516h.375v-.469h.469v-.516h-4.706Z"/><path class="b" d="M547.664,134.973h5.221v2.761h-.124v2.46h.124c.393,0,.698-.119.913-.356.215-.237.323-.534.323-.891v-4.041c0-.378-.117-.679-.351-.902s-.529-.334-.885-.334h-6.357v-2.234h-.516v.469h-.469v.516h-.375v2.75h1.213c.385-.117.801-.197,1.282-.197Z"/><path class="b" d="M554.739,142.555c-.508.267-1.126.401-1.854.401h-5.221c-.401,0-.833-.07-1.297-.211-.464-.141-.894-.369-1.291-.685s-.729-.727-.996-1.236c-.267-.508-.401-1.126-.401-1.854,0-.401.071-.835.212-1.303.137-.454.36-.873.661-1.261-.146.127-.29.256-.412.399-.207.167-.391.35-.549.549-.103.13-.183.27-.267.407-.033.038-.077.069-.108.108-.315.397-.544.829-.685,1.297-.141.468-.212.902-.212,1.303,0,.727.134,1.345.401,1.854.267.508.599.92.996,1.236s.828.544,1.291.685c.464.141.896.211,1.297.211h5.221c.727,0,1.345-.134,1.854-.401.508-.267.92-.599,1.236-.996.105-.132.185-.273.27-.412.007-.008.017-.015.025-.024.194-.156.364-.33.515-.515-.205.165-.434.314-.686.447Z"/><path class="b" d="M568.181,142.955v2.327h.19c.393,0,.687-.1.88-.301s.289-.49.289-.868v-9.14c0-.379-.096-.666-.289-.863-.193-.197-.486-.295-.88-.295h-5.221c-.356,0-.638.109-.846.328s-.312.495-.312.829v.342h5.02c.393,0,.687.098.88.295.193.197.289.484.289.863v3.588h.19v2.895h-.19Z"/><path class="b" d="M567.012,144.455v-.516h.375v-.469h.469v-.516h-4.706c-.275,0-.564-.031-.868-.095-.304-.063-.607-.161-.907-.295-.301-.134-.588-.306-.863-.518-.275-.212-.516-.468-.724-.768-.208-.301-.375-.649-.501-1.046-.126-.397-.189-.844-.189-1.342v-3.919c0-.275.032-.564.095-.868.063-.304.161-.607.295-.907.134-.301.306-.588.518-.863.005-.006.01-.01.015-.016-.178.148-.344.306-.485.482-.19.159-.367.327-.514.518-.104.135-.198.273-.283.414-.03.035-.065.066-.092.102-.212.275-.384.562-.518.863-.134.301-.232.603-.295.907-.063.304-.095.594-.095.868v3.919c0,.497.063.944.189,1.342.126.397.293.746.501,1.046.208.301.449.557.724.768.275.211.562.384.863.518.301.134.603.232.907.295.304.063.594.095.868.095h5.221Z"/><path class="b" d="M571.021,147.269c-.275.212-.562.384-.863.518-.301.134-.605.232-.913.295-.308.063-.599.095-.874.095h-5.221v-2.379h-.516v.469h-.469v.516h-.375v2.895h5.221c.275,0,.566-.032.874-.095.308-.063.612-.161.913-.295.301-.134.588-.306.863-.518.275-.211.516-.468.724-.768.046-.067.083-.146.125-.217.014-.016.031-.028.044-.044.176-.141.334-.307.483-.486-.006.005-.011.011-.017.015Z"/><path class="b" d="M585.9,138.491c-.508.267-1.126.401-1.854.401h-5.221v-2.234h-.516v.469h-.469v.516h-.251v1.328c0,.386.121.687.362.902.241.215.54.323.896.323h5.122c.197-.06.399-.113.571-.203.508-.267.92-.599,1.236-.996.104-.132.185-.272.27-.411.007-.009.017-.015.025-.024.194-.156.364-.33.515-.515-.205.165-.434.314-.687.447Z"/><path class="b" d="M584.959,135.78c.215-.241.323-.54.323-.896,0-.378-.121-.675-.362-.891-.241-.215-.533-.323-.874-.323h-5.221c-.393,0-.698.121-.913.362-.215.241-.323.54-.323.896v.242h5.098c.341,0,.633.108.874.323.184.164.275.39.319.649h.167c.393,0,.698-.121.913-.362Z"/><path class="b" d="M578.825,142.955c-.401,0-.833-.07-1.297-.211-.464-.141-.894-.369-1.291-.685s-.729-.727-.996-1.236c-.267-.508-.401-1.126-.401-1.854v-4.063c0-.401.071-.833.212-1.297.137-.45.36-.868.661-1.255-.146.127-.29.256-.412.399-.207.167-.39.35-.549.549-.104.131-.184.271-.269.409-.032.037-.075.068-.106.106-.315.397-.544.828-.685,1.291s-.212.896-.212,1.297v4.063c0,.727.134,1.345.401,1.854.267.508.599.92.996,1.236s.828.544,1.291.685c.464.141.896.211,1.297.211h5.221v-.516h.375v-.469h.469v-.516h-4.706Z"/><path class="b" d="M515.098,62.433c-.006.011-.015.021-.02.032-.009.02-.012.041-.02.061.299.779.78,1.37,1.372,1.841.077,0,.154.002.229-.009.134.019.265,0,.396-.015.792.152,1.608-.319,1.895-1.138.107-.306.134-.616.122-.923.353-.202.644-.53.792-.952.082-.233.122-.47.134-.705-.427.543-1.132.799-1.794.585-.753-.243-1.225-1.095-.877-1.838.212-.452.69-.78,1.165-1.288-.481-.015-1.005-.136-1.476-.027-1.566.365-2.41,1.82-2.205,3.464.083-.053.165-.108.256-.151-.157.358-.129.739.03,1.064Z"/><path class="b" d="M523.19,63.488c.746.733,1.262,1.578,1.615,2.502.627-.031,1.254-.133,1.878-.115.819.024.962-.374.87-1.078-.224-1.704-.881-3.192-2.112-4.402-.374-.367-.797-.683-1.244-1.06.893-1.162,1.86-2.124,2.933-2.854-1.026.53-1.953,1.269-2.809,2.18-.455.419-.886.895-1.306,1.399-.366.389-.724.797-1.068,1.244.19.161.373.307.552.454-.186.219-.372.436-.552.671.446.378.87.693,1.243,1.06Z"/><path class="b" d="M512.013,87.164c-.251.093-.499.237-.718.378-.132.085-.251.205-.368.329.077-.008.156-.01.233-.022.313-.047.566-.411.854-.685Z"/><path class="b" d="M527.517,108.683v-16.372h-.886c-4.405,0-8.809.008-13.214-.016-.352-.002-.835-.127-1.03-.375-.709-.9-1.576-1.228-2.687-1.069-.384.055-.783.009-1.296.009.253,1.165-.283,1.949-1.124,2.576-.161.12-.35.281-.528.284-1.364.024-2.729.013-4.149.013v-1.389h-2.838v-.954h-.938v.656h-.656v.75h-.656v2.642h2.838v1.389c.73,0,1.445.002,2.154.002.025,0,.05,0,.075,0,.954.002,1.898.002,2.834-.014.178-.003.368-.164.528-.284.71-.53,1.176-1.184,1.159-2.073.178-.153.336-.316.471-.491.006,0,.013,0,.02,0,.273.009.529.013.767-.021.69.094,1.276.432,1.777,1.069.195.247.678.373,1.03.375,4.405.025,8.809.016,13.214.016h.886v12.281c.728.324,1.465.649,2.25.997Z"/><path class="b" d="M569.016,87.235c-.508-.024-.747.195-1.073.572-.783.908-.762,1.733-.366,2.533.275.005.549.011.827.009.117,0,.239-.001.357-.002.529,0,1.063-.006,1.61-.006-.154-.317-.353-.589-.571-.839.214-.002.424-.005.642-.005-.193-.396-.446-.734-.735-1.025.519,0,1.042-.006,1.579-.006-.189-.389-.437-.723-.72-1.011-.047-.075-.113-.128-.163-.198-.466.003-.926,0-1.386-.021Z"/><path class="b" d="M564.471,86.907c.241-.378.535-.692.86-.955-.589.257-1.127.649-1.552,1.187-.278.219-.524.486-.744.786.586-.05,1.014-.356,1.436-1.018Z"/><path class="b" d="M544.705,86.479c2.671-1.997,4.758-4.632,6.354-7.793.067-.133.11-.299.138-.471.267-.459.531-.921.776-1.404.105-.209.166-.492.174-.769-2.512,4.758-6.126,8.334-11.339,10.15-.119.041-.233.095-.347.29h.797c1.149,0,2.299-.003,3.448-.002Z"/><path class="b" d="M538.654,59.997c-1.194,1.217-2.176,2.526-2.353,4.279.525-.692,1.145-1.335,1.808-1.964-.117-.15-.244-.281-.365-.423.144-.141.288-.281.435-.421-.029-.037-.06-.07-.089-.107.3-.313.612-.62.933-.925-.12-.154-.245-.296-.369-.44Z"/><path class="b" d="M498.417,91.058h1.349v-.231h2.75v-2.863h-2.763v-.898h-.938v.656h-.656v.75h-.656v2.586h.914Z"/><path class="b" d="M531.984,146.672c-.127.012-.253.023-.38.035-.704-2.254-1.486-4.488-2.095-6.768-1.451-5.431-2.017-10.976-1.952-16.592.025-2.136.02-4.273-.016-6.409-.005-.271-.209-.672-.435-.785-3.368-1.679-6.366-3.923-9.405-6.105-3.025-2.172-6.117-4.228-9.71-5.365-2.539-.803-5.12-1.255-7.778-.659-2.96.664-5.04,2.904-5.366,5.588.952-1.202,2.336-2.114,4.03-2.494.648-.145,1.291-.226,1.93-.257.032,0,.064-.004.096-.005.021,0,.043,0,.064,0,1.613.062,3.201.423,4.774.92,3.594,1.137,6.685,3.194,9.71,5.365,3.039,2.182,6.037,4.426,9.405,6.105.226.112.43.514.435.785.035,2.136.04,4.273.016,6.409-.065,5.616.5,11.161,1.952,16.592.609,2.28,1.392,4.513,2.095,6.768.127-.012.253-.023.38-.035.011-.026.019-.052.03-.078.012.038.024.075.036.113.127-.012.253-.023.38-.035.015-.037.027-.074.043-.11.015.049.031.097.046.146.127-.012.253-.023.38-.035.257-.617.498-1.236.728-1.858.062-.006.124-.012.187-.017.487-1.168.918-2.344,1.308-3.527-.277.772-.567,1.543-.886,2.309Z"/><path class="b" d="M549.329,116.392c-3.842,2.222-8.018,2.958-12.413,2.579-.208-.018-.416-.035-.801-.066.041,1.077.064,2.151.073,3.223.068.002.137.006.205.007.177.006.352,0,.529.003,3.904.132,7.623-.658,11.071-2.652,5.183-2.998,8.626-7.479,11.051-12.812.445-.849.87-1.715,1.257-2.612.082-.19.102-.359.097-.521-2.426,5.35-5.874,9.847-11.07,12.852Z"/><path class="b" d="M568.312,93.73c-1.859.077-3.277-.69-4.16-2.331-.224-.416-.454-.591-.906-.545-.287.029-.585.04-.869,0-1.104-.158-1.987.143-2.684,1.063-.178.236-.624.374-.949.377-2.74.029-5.48.017-8.406.017.297.235.456.378.631.498,1.173.811,2.288,1.687,3.376,2.591,1.024-.002,2.051-.002,3.063-.012.325-.003.77-.141.949-.377.481-.636,1.054-.97,1.724-1.068.016.002.03.002.046.004.216.031.439.027.66.013.138.008.277.004.416-.003.037.003.075.005.112.007.254.055.423.225.587.529.883,1.641,2.302,2.408,4.16,2.331.018,0,.035-.005.053-.006.13.003.258.012.393.006.019,0,.037-.006.055-.007.137.004.271.012.413.007,1.479-.061,3.002-1.078,3.328-2.211-.137,0-.273,0-.409.001.156-.183.271-.379.364-.578.467-.372.822-.823.959-1.298-.146,0-.29,0-.435.002-.653.558-1.569.953-2.471.991Z"/><path class="b" d="M500.954,113.331c-.395,0-.808.059-1.197-.013-.733-.136-1.304-.958-1.26-1.71.021-.36.171-.674.388-.932-.496.112-.897.413-1.122.83-.33.18-.581.461-.726.799-.448.274-.758.725-.79,1.273-.002.041.008.083.01.124.734.625,1.681.982,2.715.924.918-.052,1.523-.45,1.982-1.294Z"/><path class="b" d="M502.541,86.503v-.909c-.313.002-.618.004-.938.004v.654c-.22,0-.433.003-.656.003v.249h1.594Z"/><path class="b" d="M499.296,116.694c-3.623.545-7.052-2.259-7.32-5.985-.248-3.443,1.297-6.464,3.989-8.304-1.006.54-1.886,1.228-2.615,2.034-.345.312-.653.654-.943,1.009-1.845,1.815-2.852,4.324-2.683,7.116-.022.407-.028.818.002,1.238.253,3.517,3.322,6.209,6.712,6.042.097.002.195-.002.292-.003.405.022.815.008,1.23-.054,1.689-.254,3.027-1.616,3.34-3.238.483-.558.818-1.241.941-1.975-.587,1.096-1.665,1.927-2.945,2.119Z"/><path class="b" d="M514.497,70.712c1.849.864,3.829,1.133,5.834,1.265,1.304.086,2.61.126,3.723.178.365.615.641,1.123.957,1.596-.011.013-.016.024-.027.037-.62.72-.811,1.443-.595,2.17-.216.724-.021,1.451.6,2.185-.621.721-.816,1.451-.6,2.179-.217.729-.022,1.462.606,2.19,0,0,0,.001.001.002-.631.771-.814,1.443-.595,2.169-.182.586-.064,1.16.314,1.798.288,0,.576,0,.864,0h.708c.407-.654.796-1.179,1.064-1.759.109-.235.062-.671-.095-.879-.925-1.232-.955-2.165.013-3.33.332-.4.32-.696-.025-1.095-.936-1.083-.932-2.178.002-3.255.343-.396.355-.689.01-1.09-.942-1.096-.95-2.178-.023-3.254.305-.353.388-.631.104-1.039-.351-.504-.638-1.053-1.034-1.719-1.113-.052-2.42-.092-3.723-.178-2.005-.133-3.985-.401-5.834-1.265-3.111-1.453-4.741-4.523-4.033-7.603.25-1.09.883-2.013,1.722-2.662-.649.302-1.23.746-1.689,1.302-.325.266-.606.581-.854.923-.688.629-1.208,1.449-1.428,2.406-.154.672-.178,1.341-.119,1.995-.248,2.775,1.335,5.417,4.152,6.733Z"/><polygon class="b" points="536.618 110.803 536.466 92.322 541.739 92.393 543.731 94.127 545.184 95.697 546.227 97.209 546.849 98.369 547.352 100.115 547.563 101.346 547.552 103.572 547.235 104.99 546.567 106.608 545.548 108.096 544.399 109.104 543.368 109.748 541.704 110.404 539.067 110.826 536.618 110.803"/><polygon class="b" points="536.574 68.992 536.646 84.536 537.93 83.577 539.525 82.234 540.935 80.52 542.079 78.786 542.774 77.184 543.403 75.093 543.588 73.353 543.496 71.943 543.204 70.851 542.715 69.991 541.861 69.217 540.961 68.7 539.393 68.27 537.692 68.164 536.574 68.27 536.574 68.992"/></svg>