<?xml version="1.0" encoding="UTF-8"?><svg id="a" xmlns="http://www.w3.org/2000/svg" viewBox="0 0 928.135 1575.098"><defs><style>.f{stroke-width:0px;}</style></defs><g id="b"><path class="f" d="M556.837,138.894c0,.401-.071.833-.212,1.297s-.369.894-.685,1.291-.727.729-1.236.996-1.126.401-1.854.401h-5.221c-.401,0-.833-.071-1.297-.212s-.894-.369-1.291-.685-.729-.727-.996-1.236-.401-1.126-.401-1.854c0-.401.071-.835.212-1.303s.369-.9.685-1.297.727-.729,1.236-.996,1.126-.401,1.854-.401h5.221v2.761h-5.221c-.393,0-.698.121-.913.362s-.323.54-.323.896c0,.379.124.674.373.885s.544.317.885.317h5.199c.393,0,.698-.119.913-.356s.323-.534.323-.891v-4.041c0-.379-.117-.679-.351-.902s-.529-.334-.885-.334h-6.357v-2.75h6.357c.401,0,.833.071,1.297.212s.894.369,1.291.685.729.727.996,1.236.401,1.126.401,1.854v4.063Z"/><path class="f" d="M572.4,144.037c0,.497-.063.944-.189,1.342s-.293.746-.501,1.046-.449.557-.724.768-.562.384-.863.518-.605.232-.913.295-.599.095-.874.095h-5.221v-2.895h5.221c.393,0,.687-.1.879-.301s.289-.49.289-.868v-9.14c0-.379-.096-.666-.289-.863s-.486-.295-.879-.295h-5.221c-.356,0-.638.109-.846.328s-.312.495-.312.829v3.919c0,.379.1.668.301.868s.494.301.879.301h5.199v2.895h-5.221c-.275,0-.564-.032-.868-.095s-.607-.161-.907-.295-.588-.306-.863-.518-.516-.468-.724-.768-.375-.649-.501-1.046-.189-.844-.189-1.342v-3.919c0-.275.032-.564.095-.868s.161-.607.295-.907.306-.588.518-.863.468-.516.768-.724.648-.375,1.041-.501.839-.189,1.336-.189h5.221c.275,0,.566.032.874.095s.612.161.913.295.588.306.863.518.516.468.724.768.375.648.501,1.041.189.839.189,1.336v9.14Z"/><path class="f" d="M587.997,134.83c0,.401-.071.833-.212,1.297s-.369.894-.685,1.291-.727.729-1.236.996-1.126.401-1.854.401h-5.221v-2.75h5.221c.393,0,.698-.121.913-.362s.323-.54.323-.896c0-.379-.121-.675-.362-.891s-.533-.323-.874-.323h-5.221c-.393,0-.698.121-.913.362s-.323.54-.323.896v4.041c0,.386.121.687.362.902s.54.323.896.323h5.199v2.761h-5.221c-.401,0-.833-.071-1.297-.212s-.894-.369-1.291-.685-.729-.727-.996-1.236-.401-1.126-.401-1.854v-4.063c0-.401.071-.833.212-1.297s.369-.894.685-1.291.727-.729,1.236-.996,1.126-.401,1.854-.401h5.221c.401,0,.833.071,1.297.212s.894.369,1.291.685.729.727.996,1.236.401,1.126.401,1.854Z"/></g><g id="c"><path class="f" d="M488.602,127.176l-7.559,15.397c-.119.238-.295.429-.529.573s-.492.217-.774.217c-.275,0-.529-.072-.763-.217s-.414-.336-.54-.573l-7.548-15.397h3.24l5.611,11.5,5.633-11.5h3.229Z"/><path class="f" d="M494.838,128.634h-2.895v-2.616h2.895v2.616ZM494.838,143.14h-2.895v-12.035h2.895v12.035Z"/><path class="f" d="M506.254,143.14h-1.291c-.416,0-.859-.071-1.33-.212s-.911-.373-1.319-.696-.746-.742-1.013-1.258-.401-1.149-.401-1.898v-13.059h2.895v13.059c0,.356.111.64.334.852s.501.317.835.317h1.291v2.895Z"/><path class="f" d="M516.079,143.14h-1.291c-.416,0-.859-.071-1.33-.212s-.911-.373-1.319-.696-.746-.742-1.013-1.258-.401-1.149-.401-1.898v-13.059h2.895v13.059c0,.356.111.64.334.852s.501.317.835.317h1.291v2.895Z"/></g><g id="d"><path class="f" d="M585.657,101.32h-6.379v13.07h-2.895v-13.07h-6.39v-2.895h15.664v2.895Z"/><path class="f" d="M599.139,106.341c0,.401-.071.833-.212,1.297s-.369.894-.685,1.291-.727.729-1.236.996-1.126.401-1.854.401h-5.221v-2.75h5.221c.393,0,.698-.121.913-.362s.323-.54.323-.896c0-.379-.121-.675-.362-.891s-.533-.323-.874-.323h-5.221c-.393,0-.698.121-.913.362s-.323.54-.323.896v4.041c0,.386.121.687.362.902s.54.323.896.323h5.199v2.761h-5.221c-.401,0-.833-.071-1.297-.212s-.894-.369-1.291-.685-.729-.727-.996-1.236-.401-1.126-.401-1.854v-4.063c0-.401.071-.833.212-1.297s.369-.894.685-1.291.727-.729,1.236-.996,1.126-.401,1.854-.401h5.221c.401,0,.833.071,1.297.212s.894.369,1.291.685.729.727.996,1.236.401,1.126.401,1.854Z"/><path class="f" d="M613.422,110.405c0,.401-.071.833-.212,1.297s-.369.894-.685,1.291-.727.729-1.236.996-1.126.401-1.854.401h-5.221c-.401,0-.833-.071-1.297-.212s-.894-.369-1.291-.685-.729-.727-.996-1.236-.401-1.126-.401-1.854c0-.401.071-.835.212-1.303s.369-.9.685-1.297.727-.729,1.236-.996,1.126-.401,1.854-.401h5.221v2.761h-5.221c-.393,0-.698.121-.913.362s-.323.54-.323.896c0,.379.124.674.373.885s.544.317.885.317h5.199c.393,0,.698-.119.913-.356s.323-.534.323-.891v-4.041c0-.379-.117-.679-.351-.902s-.529-.334-.885-.334h-6.357v-2.75h6.357c.401,0,.833.071,1.297.212s.894.369,1.291.685.729.727.996,1.236.401,1.126.401,1.854v4.063Z"/><path class="f" d="M626.637,114.39h-2.895v-7.982c0-.379-.1-.666-.301-.863s-.497-.295-.891-.295h-3.763v9.14h-2.895v-10.598c0-.2.037-.388.111-.562s.178-.327.312-.456.289-.232.468-.306.367-.111.568-.111h5.221c.401,0,.831.071,1.291.212s.898.367,1.314.679v-.891h3.919c.275,0,.564.032.868.095s.607.161.907.295.588.306.863.518.516.468.724.768.375.648.501,1.041.189.839.189,1.336v7.982h-2.895v-7.982c0-.379-.095-.666-.284-.863s-.481-.295-.874-.295h-2.605c.096.356.145.742.145,1.158v7.982Z"/></g><g id="e"><path class="f" d="M445.091,110.883c0,.356-.061.738-.184,1.147s-.323.787-.601,1.136-.64.64-1.085.874-.991.351-1.637.351h-10.988c-.208,0-.401-.037-.579-.111s-.332-.176-.462-.306-.232-.284-.306-.462-.111-.371-.111-.579v-13.048c0-.2.037-.39.111-.568s.176-.334.306-.468.284-.238.462-.312.371-.111.579-.111h9.686c.356,0,.738.063,1.147.189s.789.328,1.141.607.646.64.879,1.085.351.991.351,1.637v.546c0,.512-.085,1.063-.256,1.653s-.445,1.149-.824,1.675c.327.2.633.442.918.724s.536.609.751.98.386.79.512,1.258.189.983.189,1.547v.557ZM442.196,110.327c0-.379-.059-.718-.178-1.019s-.286-.558-.501-.774-.475-.38-.779-.495-.646-.173-1.024-.173h-6.524v-2.917h5.221c.379,0,.72-.058,1.024-.173s.564-.28.779-.495.38-.473.495-.774.173-.64.173-1.019v-.546c0-.416-.2-.623-.601-.623h-8.249v10.175h9.552c.052,0,.115-.004.189-.011s.141-.03.2-.067.111-.1.156-.189.067-.212.067-.367v-.534Z"/><path class="f" d="M452.572,114.39h-1.291c-.416,0-.859-.071-1.33-.212s-.911-.373-1.319-.696-.746-.742-1.013-1.258-.401-1.149-.401-1.898v-13.059h2.895v13.059c0,.356.111.64.334.852s.501.317.835.317h1.291v2.895Z"/><path class="f" d="M467.412,112.932c0,.208-.037.401-.111.579s-.176.332-.306.462-.282.232-.456.306-.362.111-.562.111h-6.546c-.356,0-.737-.041-1.141-.122s-.803-.213-1.197-.395-.774-.412-1.141-.69-.688-.616-.963-1.013-.495-.855-.662-1.375-.25-1.106-.25-1.759v-6.68h2.895v6.68c0,.379.065.718.195,1.019s.306.558.529.774.484.38.785.495.625.173.974.173h5.065v-9.14h2.895v10.576Z"/><path class="f" d="M483.076,106.341c0,.401-.071.833-.212,1.297s-.369.894-.685,1.291-.727.729-1.236.996-1.126.401-1.854.401h-5.221v-2.75h5.221c.393,0,.698-.121.913-.362s.323-.54.323-.896c0-.379-.121-.675-.362-.891s-.533-.323-.874-.323h-5.221c-.393,0-.698.121-.913.362s-.323.54-.323.896v4.041c0,.386.121.687.362.902s.54.323.896.323h5.199v2.761h-5.221c-.401,0-.833-.071-1.297-.212s-.894-.369-1.291-.685-.729-.727-.996-1.236-.401-1.126-.401-1.854v-4.063c0-.401.071-.833.212-1.297s.369-.894.685-1.291.727-.729,1.236-.996,1.126-.401,1.854-.401h5.221c.401,0,.833.071,1.297.212s.894.369,1.291.685.729.727.996,1.236.401,1.126.401,1.854Z"/></g><path class="f" d="M568.895,91.408c-.222-.007-.515-.125-.646-.292-.843-1.077-1.27-2.165-.198-3.407.325-.377.565-.596,1.073-.572.883.041,1.769.012,2.691.012-1.364-2.804-5.536-3.008-7.236-.34-.547.859-1.099,1.129-2.002,1.002-.155-.022-.32-.025-.474,0-.86.143-1.542-.136-2.047-.843-.358-.501-.846-.599-1.441-.597-5.75.019-11.5.012-17.249.012h-.797c.115-.195.229-.249.347-.29,5.38-1.873,9.068-5.61,11.588-10.599.205-.405.248-1.091.043-1.474-2.606-4.869-6.438-8.226-11.97-9.335-1.357-.272-2.763-.305-4.177-.451.196-2.163,1.61-3.65,3.153-5.114-2-2.565-4.413-4.265-7.715-4.213-3.192.051-5.532,1.723-7.534,4.328.446.378.87.693,1.243,1.06,1.231,1.21,1.889,2.698,2.112,4.402.092.703-.051,1.102-.87,1.078-.629-.018-1.261.087-1.893.117-2.326.11-4.647.121-6.86-.755-1.32-.523-2.372-1.36-2.891-2.744-.754-2.013.107-3.999,1.978-4.434.47-.109.994.012,1.476.027-.475.508-.953.836-1.165,1.288-.348.743.124,1.594.877,1.838.846.273,1.771-.215,2.082-1.099.591-1.684-.715-3.564-2.596-3.734-2.3-.208-4.455,1.368-4.976,3.639-.707,3.081.923,6.15,4.033,7.603,1.849.864,3.829,1.133,5.834,1.265,1.304.086,2.61.126,3.723.178.396.666.683,1.215,1.034,1.719.284.408.2.685-.104,1.039-.927,1.076-.918,2.158.023,3.254.345.401.333.694-.01,1.09-.934,1.077-.938,2.172-.002,3.255.345.399.357.696.025,1.095-.968,1.165-.938,2.097-.013,3.33.157.209.204.644.095.879-.269.58-.657,1.105-1.064,1.759h-.708c-4.062,0-8.124-.013-12.185.021-.391.003-.812.252-1.162.476-.39.251-.683.812-1.073.87-.889.133-1.811.042-2.748.042,0-.383.005-.646-.001-.909-.012-.521-1.125-1.918-1.634-1.933-1.386-.04-2.773-.014-4.235-.014v1.468h-2.788v1.461h2.763v2.863h-2.75v1.517h2.838v1.389c1.42,0,2.784.011,4.149-.013.178-.003.368-.164.528-.284.84-.627,1.376-1.411,1.124-2.576.513,0,.912.046,1.296-.009,1.111-.159,1.978.169,2.687,1.069.195.247.678.373,1.03.375,4.405.025,8.809.016,13.214.016h.886v16.372c-1.059-.47-2.04-.897-3.014-1.339-3.643-1.652-7.235-3.427-10.938-4.931-4.231-1.719-8.65-2.475-13.237-1.72-5.263.866-8.712,4.994-8.351,10.015.268,3.727,3.697,6.53,7.32,5.985,1.989-.299,3.509-2.132,3.417-4.122-.07-1.525-1.269-2.646-2.679-2.505-.852.085-1.488.723-1.537,1.542-.044.752.527,1.574,1.26,1.71.389.072.802.013,1.197.013-.459.844-1.064,1.242-1.982,1.294-2.164.122-3.98-1.536-4.153-3.793-.246-3.205,1.996-6.044,5.394-6.806,2.659-.596,5.239-.145,7.778.659,3.594,1.137,6.685,3.194,9.71,5.365,3.039,2.182,6.037,4.426,9.405,6.105.226.113.43.514.435.785.035,2.136.04,4.273.016,6.409-.065,5.616.5,11.161,1.952,16.592.609,2.28,1.392,4.513,2.096,6.768.126-.012.253-.023.379-.035,3.703-8.88,4.492-18.224,4.131-27.767.385.032.593.048.801.066,4.395.379,8.571-.357,12.413-2.579,5.423-3.137,8.956-7.887,11.394-13.549.249-.579.054-.995-.312-1.432-2.761-3.293-5.908-6.159-9.442-8.602-.174-.121-.334-.263-.631-.498,2.926,0,5.666.013,8.406-.017.325-.003.77-.141.949-.377.697-.921,1.58-1.222,2.684-1.063.284.041.582.03.869,0,.452-.046.682.129.906.545.883,1.641,2.302,2.408,4.161,2.331,1.479-.061,3.002-1.078,3.328-2.211-.956,0-1.905.018-2.853-.013ZM541.593,92.222c.169.001.371.069.5.175,2.581,2.125,4.817,4.503,5.595,7.9,1.277,5.576-2.432,10.56-8.125,10.909-.916.056-1.839.008-2.758,0-.151-.001-.301-.044-.491-.074v-18.918c1.806,0,3.543-.005,5.279.008ZM545.977,74.665h0c.737.028,1.475.007,2.213.007.764,0,1.528.002,2.293,0,.136,0,.245.017.329.049.167.065.233.191.205.365-.014.087-.052.186-.111.295-2.003,3.651-4.669,6.582-8.339,8.408-.524.261-1.069.499-1.636.714-.051.019-.106.029-.164.031-.115.005-.24-.015-.364-.032-.062-.008-.123-.016-.182-.018h0c.105-.22.161-.487.323-.651,1.184-1.201,2.194-2.496,2.983-3.911.788-1.415,1.354-2.949,1.65-4.629.088-.5.327-.647.801-.629ZM536.302,68.073c2.315-.547,6.206.09,7.151,2.716.527,1.464.526,2.95.222,4.438-.901,4.397-3.563,7.51-7.373,10.013v-17.167ZM529.157,92.148c0-.037.01-.073.026-.116.015-.043.035-.092.053-.154h2.664v18.287c-.652-.23-1.277-.447-1.893-.676-.205-.076-.414-.149-.616-.23-.032-.013-.063-.041-.091-.078-.056-.074-.101-.185-.124-.29-.012-.053-.018-.104-.019-.148-.01-5.531-.005-11.062,0-16.593ZM531.94,134.656c0,1.897,0,3.794,0,5.691,0,.3-.026.6-.041.901-.076.02-.151.039-.227.059-.113-.252-.26-.494-.333-.756-.786-2.8-1.37-5.635-1.728-8.502-.072-.573-.134-1.148-.187-1.724-.106-1.152-.176-2.309-.207-3.472-.065-2.447-.042-4.895-.026-7.384.005-.829.01-1.663.01-2.503.838.293,1.623.519,2.356.856.051.024.1.068.144.125.132.171.223.459.225.664.024,3.451.016,6.903.016,10.354,0,1.897,0,3.794,0,5.691ZM550.744,102.346c2.585-.015,5.17-.002,7.755-.006.496,0,.885.04.572.704-2.364,5.028-5.589,9.35-10.554,12.044-5.784,3.139-11.644,3.321-17.461-.068-3.053-1.779-5.761-3.982-8.263-6.457-.13-.129-.246-.275-.358-.42-.024-.031-.003-.095-.003-.21,2.3.976,4.529,1.977,6.801,2.872,2.933,1.156,5.963,2.048,9.142,1.914,1.658-.069,3.382-.345,4.929-.922,3.674-1.371,5.441-4.301,5.919-8.09.206-1.631-.017-1.352,1.521-1.361Z"/></svg>