<?xml version="1.0" encoding="UTF-8"?>
<svg id="Layer_10" data-name="Layer 10" xmlns="http://www.w3.org/2000/svg" viewBox="0 0 928.13 1575.1">
  <defs>
    <style>
      .cls-1 {
        stroke: #000;
        stroke-miterlimit: 10;
        stroke-width: .5px;
      }

      .cls-2 {
        stroke-width: 0px;
      }
    </style>
  </defs>
  <g>
    <path class="cls-2" d="M454.93,323.06c1.27,1.31,2.55,2.62,3.82,3.93.16-.06.32-.12.48-.18.32-.12.61-.15.86-.07.25.07.47.21.66.41.18.19.27.38.25.55-.02.17-.18.32-.5.44-.57.22-1.14.43-1.71.66-.31.12-.6.15-.85.08-.26-.07-.48-.2-.68-.39-.2-.19-.29-.37-.28-.55.01-.17.16-.32.44-.43-1.71-1.71-3.42-3.42-5.12-5.12-.27.08-.53.08-.78.01-.25-.07-.46-.19-.64-.37-.2-.19-.28-.38-.26-.56.03-.18.22-.34.57-.48.54-.21,1.08-.41,1.62-.61,1.95,1.07,3.86,2.17,5.73,3.28-.63-1.57-1.21-3.15-1.76-4.74.55-.19,1.1-.38,1.64-.56.36-.12.66-.15.92-.07.26.07.47.21.64.42.16.19.22.36.19.53-.03.17-.16.31-.39.42,1.52,1.78,3.04,3.55,4.57,5.33.28-.1.55-.1.79-.02.24.08.45.23.62.43.17.2.24.39.21.56-.03.17-.2.31-.52.42-.58.2-1.16.4-1.73.6-.31.11-.59.13-.84.05-.25-.08-.46-.21-.65-.41-.18-.2-.26-.38-.23-.55.03-.17.2-.32.51-.43.16-.06.33-.12.49-.17-1.19-1.34-2.37-2.69-3.56-4.03.48,1.35.99,2.7,1.53,4.04-.39.14-.78.28-1.17.43-1.6-.95-3.22-1.89-4.87-2.81Z"/>
    <path class="cls-2" d="M469.2,323.39c.79-.25,1.59-.49,2.38-.72-.18-.26-.25-.48-.21-.65.03-.17.14-.28.33-.33.21-.06.42-.04.65.07.23.11.46.33.7.67.29.42.59.84.88,1.26-1.94.55-3.86,1.14-5.78,1.76-.31-.38-.61-.76-.92-1.14.22-1.58.5-3.17.86-4.76-.73.22-1.46.44-2.18.67.04.05.07.09.11.14.26.33.37.59.36.77-.02.18-.13.31-.34.38-.21.07-.43.05-.68-.05-.24-.1-.5-.31-.76-.64-.4-.51-.81-1.01-1.21-1.52,1.99-.65,4-1.26,6.01-1.83.27.39.54.77.81,1.16-.4,1.59-.73,3.19-1,4.77Z"/>
    <path class="cls-2" d="M476.91,315.47c.97,1.66,1.94,3.33,2.91,4.99.55-.13,1.1-.26,1.65-.39.33-.08.61-.06.82.04.22.1.38.27.5.49.12.21.14.41.08.57-.06.17-.26.29-.58.36-1.53.35-3.05.73-4.57,1.13-.32.08-.59.08-.82-.02-.22-.1-.41-.25-.54-.47-.14-.21-.18-.4-.12-.57.05-.17.25-.3.58-.39.55-.14,1.1-.28,1.64-.42-.71-1.17-1.42-2.34-2.13-3.52-.39.1-.77.2-1.16.29-.34.09-.63.09-.86,0-.23-.09-.42-.25-.56-.46-.13-.21-.17-.4-.1-.57.06-.17.27-.31.63-.4.88-.23,1.77-.45,2.65-.66ZM475.09,312.76c.3.51.6,1.03.9,1.54-.59.14-1.18.29-1.78.44-.31-.51-.63-1.02-.94-1.53.6-.15,1.21-.3,1.81-.45Z"/>
    <path class="cls-2" d="M484.57,314.44c.71,1.5,1.43,3,2.14,4.49.17-.03.33-.07.5-.1.33-.07.6-.04.81.07.21.11.36.28.46.5.1.22.11.41.03.58-.08.17-.28.28-.6.34-.59.12-1.18.24-1.78.36-.33.07-.59.05-.8-.06-.21-.11-.37-.27-.48-.49-.11-.21-.13-.4-.06-.57.07-.17.25-.28.54-.35-.96-1.93-1.92-3.86-2.88-5.79-.08.02-.16.03-.23.05-.36.08-.65.06-.87-.04-.22-.1-.39-.27-.51-.49-.11-.22-.13-.42-.04-.59.09-.17.31-.29.68-.37.59-.12,1.17-.24,1.76-.35,2.24,1.73,4.39,3.49,6.44,5.27-.64-1.5-1.27-3.01-1.91-4.51-.18.03-.36.06-.54.1-.36.07-.65.04-.86-.07-.22-.11-.37-.28-.47-.5-.1-.22-.1-.42,0-.59.09-.17.33-.29.69-.35.67-.12,1.34-.23,2.01-.35.37-.06.66-.04.87.07.21.11.36.28.45.51.09.22.08.41-.02.58-.1.17-.3.28-.61.33.99,2.46,1.98,4.93,2.98,7.39-.45.08-.9.15-1.35.24-2.01-1.8-4.13-3.58-6.33-5.32Z"/>
    <path class="cls-2" d="M497.97,309.67c.06-.14.13-.25.23-.33.1-.08.21-.13.34-.14.22-.03.43.03.61.17.18.14.32.39.42.76.12.43.23.87.35,1.3.1.37.1.64,0,.81-.09.17-.25.27-.46.3-.2.02-.37-.01-.52-.12-.15-.1-.3-.3-.45-.61-.09-.2-.21-.36-.34-.46-.26-.2-.6-.34-1-.43-.4-.09-.78-.11-1.15-.06-.45.06-.84.22-1.15.47-.31.25-.54.62-.67,1.11-.13.49-.09,1.03.12,1.65.11.33.23.66.34.98.25.73.72,1.3,1.37,1.72.65.42,1.41.57,2.27.46.52-.07.93-.2,1.24-.4.18-.12.35-.32.52-.61.1-.18.19-.29.26-.35.07-.06.16-.09.26-.1.19-.02.37.04.56.17s.3.31.36.52c.05.21.02.44-.11.71-.18.38-.46.7-.83.95-.5.34-1.09.55-1.78.64-.81.11-1.59.02-2.37-.25-.63-.22-1.24-.62-1.85-1.2-.61-.58-1.05-1.24-1.33-2-.13-.34-.25-.68-.38-1.03-.29-.79-.38-1.55-.27-2.29.12-.74.44-1.34.97-1.81.53-.47,1.17-.75,1.91-.85.45-.06.88-.06,1.3-.01.42.05.82.16,1.22.33Z"/>
    <path class="cls-2" d="M503.75,308.01c.24,1.15.48,2.31.72,3.46.31-.28.65-.49,1-.65.35-.15.72-.25,1.11-.28,1.04-.08,1.99.23,2.81.92.82.7,1.29,1.57,1.43,2.62.13,1-.08,1.86-.62,2.57-.54.71-1.31,1.1-2.33,1.18-.36.03-.73,0-1.08-.07-.36-.08-.72-.2-1.08-.38.03.13.05.25.08.38-.53.05-1.07.1-1.6.15-.33.03-.58-.01-.76-.14-.18-.13-.29-.31-.35-.54-.05-.22-.03-.42.08-.57.11-.16.33-.25.66-.29.08,0,.16-.02.24-.02-.51-2.22-1.01-4.44-1.52-6.66-.09,0-.17.02-.26.03-.37.04-.64,0-.83-.13-.19-.13-.32-.3-.37-.53-.05-.22-.02-.42.1-.58.12-.16.37-.26.75-.29.61-.06,1.21-.12,1.82-.17ZM509.4,314.22c-.1-.64-.39-1.17-.88-1.58-.49-.41-1.06-.6-1.67-.55-.61.05-1.09.31-1.43.79-.33.48-.43,1.03-.3,1.65.12.57.4,1.01.84,1.35.44.33.99.47,1.65.42.66-.05,1.14-.27,1.46-.66.31-.39.43-.86.34-1.42Z"/>
    <path class="cls-2" d="M520.21,314.24c0,.7.02,1.39.02,2.09-.62.38-1.15.65-1.58.79-.43.15-.9.22-1.4.23-.7.02-1.35-.08-1.97-.3-.48-.17-.88-.38-1.18-.65-.3-.27-.59-.67-.88-1.2-.29-.53-.48-1.13-.55-1.8-.04-.37-.08-.75-.12-1.12-.11-1.03.09-1.97.63-2.81.72-1.14,1.83-1.73,3.29-1.76.42-.01.83.02,1.21.1.38.08.75.2,1.09.37.2-.19.4-.29.6-.29.23,0,.41.08.55.23.14.16.22.42.22.8,0,.34,0,.67.01,1.01,0,.37-.06.64-.2.8-.14.16-.31.24-.53.24-.17,0-.33-.05-.45-.16-.1-.07-.18-.24-.26-.5-.07-.26-.15-.43-.24-.52-.14-.15-.38-.27-.72-.38-.34-.11-.72-.16-1.15-.15-.6.01-1.12.16-1.54.42-.3.2-.56.53-.79,1.01-.22.47-.31.98-.26,1.53.03.37.07.75.1,1.12.08.83.36,1.46.83,1.87.47.42,1.18.61,2.12.59.64-.01,1.22-.16,1.74-.43-.01-.37-.02-.74-.03-1.12-.49,0-.97.01-1.46.02-.34,0-.59-.06-.75-.2-.15-.14-.24-.33-.25-.56-.01-.23.05-.42.19-.57.14-.15.39-.23.74-.23.86-.02,1.72-.03,2.59-.03.35,0,.6.07.75.21.15.14.22.33.22.56,0,.18-.05.34-.15.48-.1.14-.25.24-.45.31Z"/>
    <path class="cls-2" d="M528.36,313.14c-.39.32-.74.54-1.05.67-.31.13-.63.19-.96.18-.77-.02-1.42-.37-1.97-1.05-.55-.68-.83-1.51-.8-2.5.02-.77.25-1.47.7-2.1.61-.86,1.47-1.28,2.54-1.25.77.02,1.42.28,1.95.75.53.48.87,1.16,1.04,2.03.17.87.19,1.78.09,2.71-.18,1.59-.89,2.83-2.07,3.74-.92.7-1.85,1.04-2.85,1.02-.55-.01-.97-.15-1.27-.4-.2-.17-.3-.39-.29-.66,0-.22.08-.41.22-.55.14-.15.31-.22.5-.22.11,0,.23.04.36.12.17.1.36.16.55.16.7.02,1.37-.23,2.01-.74.64-.51,1.08-1.15,1.3-1.91ZM528.38,310.69c-.1-.72-.29-1.24-.59-1.55-.3-.31-.65-.47-1.07-.49-.43-.01-.81.15-1.13.48-.32.33-.49.77-.52,1.33-.03.58.1,1.05.37,1.42.28.37.6.55.97.56.66.02,1.3-.56,1.96-1.75Z"/>
    <path class="cls-2" d="M532.75,315.91c.31-2.02.62-4.04.94-6.06-.08,0-.16-.01-.24-.02-.36-.02-.61-.11-.75-.26-.14-.15-.19-.35-.16-.58.03-.23.14-.41.32-.55.18-.13.45-.19.82-.17,1.29.08,2.58.18,3.87.29.92.08,1.61.41,2.05.97.44.57.57,1.2.4,1.91-.08.33-.22.64-.41.93-.19.28-.45.54-.75.76.39.33.66.71.79,1.12.13.41.14.86.02,1.35-.09.39-.27.74-.5,1.06-.18.24-.37.43-.58.56-.28.19-.6.33-.96.43-.36.1-.79.13-1.28.08-1.34-.12-2.68-.22-4.03-.31-.33-.02-.55-.11-.68-.26-.12-.15-.17-.34-.13-.58.03-.23.13-.41.3-.54.17-.13.41-.19.75-.17.07,0,.15,0,.22.01ZM534.81,312.21c.54.04,1.08.08,1.61.13.58.05,1.09-.06,1.54-.33.3-.18.49-.42.56-.73.06-.27-.01-.52-.22-.74-.21-.23-.58-.36-1.13-.41-.66-.06-1.31-.11-1.97-.16-.13.75-.26,1.5-.39,2.25ZM534.15,316.01c.81.06,1.61.13,2.42.2.57.05.99,0,1.26-.17.21-.12.34-.31.4-.57.07-.31-.04-.63-.33-.97-.29-.33-.78-.53-1.45-.59-.64-.05-1.27-.1-1.91-.15-.13.75-.26,1.5-.39,2.26Z"/>
    <path class="cls-2" d="M545.7,308.8c-.34,1.14-.68,2.28-1.02,3.43.43-.2.86-.33,1.27-.4.41-.07.81-.08,1.2-.03,1.04.15,1.79.64,2.24,1.47.45.83.46,1.76.08,2.78-.37.98-1,1.74-1.87,2.3-.87.56-1.8.77-2.82.62-.36-.05-.7-.15-1-.3-.31-.15-.58-.35-.84-.59-.04.12-.07.25-.11.37-.53-.07-1.07-.13-1.6-.2-.33-.04-.54-.14-.65-.29-.1-.16-.12-.35-.06-.58.06-.22.18-.4.36-.53.18-.13.44-.17.77-.13.08,0,.16.02.24.03.62-2.21,1.23-4.42,1.85-6.62-.09-.01-.17-.02-.26-.03-.37-.04-.61-.14-.73-.3-.12-.16-.15-.35-.09-.58.06-.22.18-.4.38-.52.19-.12.48-.16.85-.12.6.07,1.21.15,1.81.22ZM548.02,315.87c.22-.63.21-1.19-.06-1.68-.27-.5-.72-.79-1.33-.88-.61-.09-1.2.06-1.75.44-.56.38-.92.88-1.1,1.5-.17.56-.12,1.04.13,1.45.25.41.71.65,1.37.75.66.09,1.23-.01,1.72-.32.49-.3.84-.72,1.03-1.27Z"/>
    <path class="cls-2" d="M554.42,316.35c-.32.73-.65,1.46-.97,2.19.47.09.95.18,1.42.27.33.07.54.18.61.35.08.17.06.36-.05.58-.1.22-.26.38-.46.49-.2.11-.47.13-.8.07-.98-.19-1.97-.38-2.96-.55-.33-.06-.53-.17-.61-.33-.08-.16-.08-.36.01-.58.09-.22.23-.39.44-.5.2-.11.47-.14.8-.08.07.01.14.03.22.04.83-1.96,1.66-3.91,2.49-5.87-.08-.01-.16-.03-.23-.04-.36-.06-.59-.18-.69-.34-.1-.17-.1-.36,0-.59.09-.22.24-.39.46-.51.21-.11.51-.14.87-.07,2.4.43,4.78.9,7.17,1.42-.39.75-.78,1.5-1.17,2.25-.18.35-.38.59-.59.71-.21.12-.43.16-.65.11-.21-.05-.35-.16-.41-.33-.06-.18,0-.44.18-.8.13-.26.26-.52.39-.78-1.27-.27-2.54-.52-3.81-.76-.32.72-.64,1.44-.96,2.16.43.08.85.16,1.28.24.18-.39.33-.63.45-.73.26-.21.52-.29.8-.23.22.04.35.15.42.33.06.18,0,.45-.17.8-.28.57-.55,1.14-.83,1.71-.17.36-.36.6-.56.72-.2.13-.41.17-.62.13-.26-.05-.4-.21-.43-.47-.02-.13.07-.38.25-.78-.42-.08-.83-.16-1.25-.24Z"/>
    <path class="cls-2" d="M567.1,318.93c-.55.22-1.01.35-1.38.41-.37.05-.72.04-1.04-.04-.75-.19-1.22-.66-1.43-1.42-.21-.76-.07-1.61.46-2.54.41-.73.98-1.34,1.74-1.83,1.03-.68,2.09-.89,3.13-.63.75.19,1.27.57,1.56,1.14.29.57.3,1.29.03,2.15-.27.86-.69,1.72-1.26,2.58-.97,1.46-2.29,2.48-3.93,3.09-1.26.47-2.36.58-3.34.35-.54-.13-.89-.35-1.05-.66-.11-.2-.1-.43.05-.69.12-.21.28-.37.49-.48.21-.11.41-.14.6-.1.11.03.21.09.3.19.12.14.27.23.47.27.69.17,1.47.08,2.37-.27.89-.35,1.64-.85,2.24-1.52ZM568.34,316.61c.26-.71.33-1.24.19-1.6-.14-.36-.41-.59-.82-.69-.42-.11-.88-.04-1.36.2-.48.24-.87.62-1.17,1.14-.32.54-.43,1.02-.34,1.42.09.41.32.65.68.75.65.16,1.57-.25,2.82-1.23Z"/>
    <path class="cls-2" d="M574.12,319.57c.55-.18,1.04-.29,1.45-.32.41-.03.79,0,1.15.12.75.24,1.19.74,1.28,1.49.09.76-.23,1.56-.94,2.43-.66.8-1.44,1.36-2.33,1.7-.89.34-1.74.37-2.57.11-.69-.22-1.13-.56-1.33-1.04-.2-.48-.16-1.11.12-1.89.28-.78.73-1.62,1.36-2.5.76-1.06,1.63-1.86,2.64-2.41,1.01-.55,2.01-.91,2.99-1.08.98-.17,1.87-.13,2.64.12.61.2,1,.46,1.15.79.1.22.05.44-.14.67-.16.2-.38.35-.63.43-.26.09-.48.1-.68.04-.11-.04-.24-.15-.37-.32-.08-.11-.18-.18-.3-.22-.47-.15-1.06-.18-1.75-.09-.7.09-1.43.35-2.18.76-.52.29-1.04.69-1.56,1.2ZM572.71,321.8c-.26.59-.35,1.02-.26,1.3.09.27.36.48.8.62.44.14.88.13,1.31-.03.43-.16.81-.45,1.14-.86.37-.47.54-.9.51-1.3-.04-.4-.24-.66-.6-.77-.28-.09-.7-.05-1.23.13-.53.18-1.09.49-1.66.92Z"/>
    <path class="cls-2" d="M581.89,328.2c.1-.1.2-.21.3-.31-.5.05-.99.05-1.47,0-.48-.06-.88-.14-1.2-.26-.7-.25-1.1-.65-1.2-1.19-.1-.54.04-1.05.45-1.51.5-.57,1.24-1,2.27-1.28,1.02-.28,2.07-.22,3.11.16.42.15.87.38,1.33.67.1-.11.2-.21.31-.32.19-.2.26-.39.2-.59-.06-.19-.34-.38-.85-.57-.42-.15-1.03-.27-1.84-.36-.3-.03-.52-.07-.65-.12-.19-.07-.29-.19-.3-.36-.01-.18.07-.36.24-.57.1-.11.21-.21.33-.27.12-.07.24-.11.37-.13.13-.02.36-.02.69,0,.44.03.86.09,1.28.17.42.08.78.18,1.08.29.89.33,1.41.77,1.55,1.31.14.54-.1,1.11-.7,1.72-.89.9-1.79,1.8-2.68,2.7.08.03.15.06.23.09.32.12.49.27.5.45.01.17-.08.36-.28.55-.19.19-.42.32-.68.39-.26.07-.54.04-.85-.08-.51-.2-1.02-.39-1.53-.59ZM584.18,325.84c-.44-.31-.9-.55-1.36-.72-.55-.2-1.15-.24-1.79-.12-.4.08-.68.21-.84.39-.11.13-.15.25-.1.37.09.22.32.4.7.54.32.12.74.19,1.27.21.52.02,1.05,0,1.58-.1.18-.19.37-.38.55-.57Z"/>
  </g>
  <g>
    <path class="cls-2" d="M454.7,306.6c.54.64,1.08,1.29,1.61,1.93.47-.18.94-.35,1.41-.53.33-.12.62-.15.86-.07.24.07.44.21.6.41.16.2.21.38.17.55-.04.17-.22.32-.55.44-.98.36-1.97.74-2.95,1.12-.32.13-.61.16-.85.09-.24-.07-.45-.2-.62-.39-.17-.19-.23-.37-.2-.55.04-.18.22-.33.54-.46.07-.03.14-.06.21-.08-1.47-1.71-2.94-3.42-4.41-5.13-.08.03-.15.06-.23.09-.35.14-.66.18-.91.11-.26-.06-.47-.19-.64-.38-.17-.19-.23-.38-.19-.56.05-.18.25-.34.61-.48,2.34-.91,4.69-1.77,7.05-2.58.52.69,1.04,1.37,1.55,2.06.24.32.35.57.32.76-.03.18-.15.31-.37.39-.21.07-.44.07-.68-.02-.24-.09-.48-.29-.74-.62-.18-.24-.37-.47-.55-.71-1.26.45-2.51.91-3.76,1.38.53.64,1.07,1.27,1.6,1.91.42-.16.84-.32,1.26-.47-.28-.35-.43-.58-.44-.71-.03-.27.1-.45.37-.55.21-.08.44-.07.69.01.24.09.49.29.75.61.41.51.81,1.03,1.22,1.54.25.32.37.57.35.76-.02.18-.14.31-.35.39-.25.09-.54.06-.85-.1-.15-.07-.37-.29-.65-.64-.41.15-.83.31-1.24.46Z"/>
    <path class="cls-2" d="M464.01,301.74c.62.92,1.24,1.84,1.87,2.77.2.3.39.47.58.53.29.09.68.06,1.17-.09.71-.22,1.27-.56,1.69-1.05.16-.19.31-.3.44-.34.18-.05.39-.03.6.07.22.1.39.25.51.44.11.18.13.36.07.53-.09.28-.41.6-.94.97-.54.37-1.02.62-1.46.76-.85.26-1.61.28-2.29.04-.68-.23-1.21-.61-1.58-1.15-.7-1.01-1.4-2.01-2.1-3.02-.17.06-.35.11-.52.17-.35.11-.64.13-.88.06-.24-.08-.43-.22-.58-.42-.14-.2-.19-.39-.13-.56.06-.18.27-.32.62-.44.18-.06.36-.12.53-.17-.29-.41-.57-.83-.86-1.24-.23-.33-.32-.59-.28-.77.04-.19.18-.31.41-.39.22-.07.45-.06.69.04.24.1.47.31.69.64.28.41.56.83.84,1.24.91-.29,1.83-.56,2.74-.84.36-.11.65-.12.89-.03.23.09.41.23.54.44.13.2.15.39.09.57-.07.17-.28.31-.63.42-.9.27-1.8.54-2.7.82Z"/>
    <path class="cls-2" d="M479.15,300.44c-1.96.45-3.92.94-5.87,1.46.36.33.78.56,1.28.69.5.13,1.07.11,1.7-.05.52-.13,1.16-.42,1.91-.85.31-.18.54-.28.68-.32.19-.04.38-.01.58.09.2.11.34.26.44.47.09.19.1.36.03.53-.1.22-.46.48-1.08.81-.62.32-1.25.57-1.9.73-1.11.28-2.17.19-3.2-.27-1.03-.46-1.84-1.15-2.38-2.08-.58-.99-.68-1.9-.26-2.73.41-.83,1.14-1.38,2.15-1.64.61-.15,1.23-.19,1.84-.11.61.08,1.1.21,1.47.39.52.26,1.02.63,1.49,1.08.33.32.6.72.83,1.19.1.2.2.41.3.61ZM476.84,299.38c-.43-.36-.88-.59-1.35-.71-.47-.11-.96-.11-1.46.02-.5.13-.88.34-1.13.63-.25.3-.38.68-.38,1.14,1.44-.38,2.87-.74,4.32-1.09Z"/>
    <path class="cls-2" d="M486.47,296.57c.49.22.9.5,1.23.84.33.34.57.73.73,1.18.18.49.23.97.15,1.42-.08.46-.32.85-.72,1.18-.4.33-.9.55-1.5.67-.6.12-1.19.11-1.77-.03-.59-.14-1.08-.39-1.5-.75-.41-.36-.73-.78-.95-1.27-.2-.44-.28-.86-.26-1.27.03-.41.16-.79.42-1.16-.46-.23-.86-.5-1.18-.81-.32-.3-.57-.65-.73-1.02-.33-.74-.32-1.45.05-2.11.37-.66,1.04-1.09,2-1.28.96-.19,1.85-.06,2.66.37.81.43,1.35,1.03,1.62,1.78.14.39.19.77.15,1.15-.04.37-.17.74-.4,1.11ZM487.01,298.92c-.15-.39-.45-.71-.9-.96-.45-.25-.93-.33-1.42-.23-.49.1-.84.33-1.04.71-.2.38-.21.76-.04,1.16.13.3.38.54.76.71s.84.2,1.41.09c.57-.11.95-.3,1.14-.58.19-.28.22-.58.1-.89ZM485.17,294.63c-.14-.36-.41-.65-.8-.85-.4-.2-.85-.25-1.35-.15-.51.1-.86.31-1.05.62-.19.31-.21.65-.05,1.01.16.37.43.65.83.84.4.2.84.25,1.34.15.49-.1.83-.3,1.02-.61.19-.31.22-.65.07-1.02Z"/>
    <path class="cls-2" d="M498.66,296.87c.16.67.33,1.34.49,2.01-.56.44-1.04.76-1.45.95-.41.19-.88.32-1.39.39-.72.1-1.42.08-2.1-.06-.54-.1-.99-.27-1.35-.49-.36-.22-.75-.57-1.16-1.05-.41-.48-.72-1.04-.94-1.68-.12-.36-.24-.71-.36-1.07-.33-.99-.32-1.92.05-2.79.5-1.18,1.5-1.89,2.97-2.09.43-.06.84-.07,1.25-.04.4.03.8.11,1.19.23.16-.21.34-.32.54-.35.23-.03.43.03.61.16.18.13.31.38.4.74.08.32.16.65.24.97.09.36.08.63-.02.8-.1.17-.26.27-.49.3-.18.02-.34-.01-.5-.1-.12-.06-.24-.21-.37-.45-.13-.24-.25-.4-.36-.48-.17-.12-.44-.22-.81-.28-.37-.06-.77-.07-1.2-.01-.61.08-1.11.28-1.48.59-.27.23-.46.58-.59,1.07-.13.48-.11.99.06,1.51.11.36.23.72.34,1.07.25.8.67,1.37,1.24,1.72.58.35,1.34.45,2.31.32.66-.09,1.22-.3,1.7-.62-.09-.36-.19-.72-.28-1.07-.5.06-.99.13-1.49.19-.35.05-.62.01-.81-.11-.19-.12-.32-.29-.38-.51-.06-.22-.04-.41.07-.57.11-.16.35-.26.7-.31.88-.12,1.76-.22,2.64-.33.36-.04.63,0,.81.12.18.12.3.29.35.52.04.18.03.34-.04.48-.07.14-.2.26-.4.35Z"/>
    <path class="cls-2" d="M503.15,295.41c.14.74.28,1.48.42,2.22,1.23-.11,2.45-.21,3.68-.3-.04-.27-.08-.55-.12-.82-.05-.36-.02-.63.09-.79.11-.16.28-.25.5-.27.22-.01.4.05.56.2.16.15.26.4.31.77.1.78.2,1.56.3,2.34-2.23.14-4.45.32-6.68.55-.34.03-.6-.01-.77-.13-.17-.12-.29-.3-.34-.52-.05-.22-.01-.41.11-.56.12-.16.35-.25.69-.29.08,0,.15-.02.23-.02-.4-1.96-.81-3.93-1.21-5.89-.08,0-.16.02-.24.02-.37.04-.65,0-.84-.13-.19-.12-.31-.3-.36-.52-.05-.22,0-.42.12-.57.13-.16.38-.25.76-.29,2.34-.23,4.68-.43,7.03-.57.1.77.2,1.54.31,2.31.05.36.01.62-.1.79-.12.16-.29.25-.51.27-.23.02-.42-.05-.58-.19-.16-.14-.27-.4-.33-.76-.04-.26-.08-.53-.12-.79-1.2.09-2.4.19-3.59.3.14.73.27,1.45.41,2.18.44-.04.88-.08,1.32-.12-.07-.39-.07-.65-.02-.77.11-.25.31-.39.59-.41.22-.02.42.05.58.19.16.14.28.4.33.76.09.58.18,1.16.27,1.74.05.33.05.55-.01.67-.12.24-.3.37-.56.4-.27.02-.5-.08-.69-.31-.09-.11-.17-.36-.24-.76-.43.04-.87.07-1.3.11Z"/>
    <path class="cls-2" d="M515.41,294.68c.04.75.08,1.5.11,2.26.32,0,.65-.02.97-.02.35,0,.6.06.75.2.15.14.23.32.24.55,0,.22-.06.41-.2.55-.14.14-.38.22-.72.22-1.11.02-2.22.05-3.34.1-.34.01-.59-.05-.74-.18-.16-.13-.25-.32-.27-.54-.02-.22.04-.41.17-.55.14-.15.37-.23.72-.24.32-.01.65-.02.97-.03-.05-.75-.1-1.5-.15-2.25-.9-1.2-1.83-2.4-2.8-3.59-.34.02-.6-.04-.77-.18-.17-.14-.27-.31-.3-.54-.02-.23.04-.41.18-.56.14-.15.41-.23.79-.25.47-.02.95-.04,1.42-.05.38-.01.65.05.82.18.17.13.26.31.28.54.02.34-.16.6-.56.78.54.69,1.07,1.38,1.59,2.07.42-.72.86-1.44,1.31-2.16-.23-.08-.4-.18-.5-.31-.1-.13-.16-.27-.17-.44-.01-.23.06-.41.21-.55.15-.14.42-.22.8-.23.49,0,.99-.01,1.48-.02.38,0,.65.06.81.2.16.14.24.32.25.55,0,.23-.08.41-.23.55-.16.14-.42.22-.78.22-.82,1.24-1.6,2.49-2.35,3.74Z"/>
    <path class="cls-2" d="M526.36,293.55c-.23-.16-.48-.28-.75-.37-.27-.08-.55-.13-.84-.14-.58-.01-1.05.07-1.4.26-.16.08-.23.17-.24.27,0,.11.09.23.3.34.15.08.5.17,1.03.25.98.16,1.66.32,2.04.48.49.2.86.49,1.1.86.24.37.34.76.31,1.16-.05.54-.32.99-.8,1.33-.69.5-1.54.74-2.56.71-.41-.01-.79-.06-1.13-.14-.35-.08-.66-.2-.95-.35-.07.06-.15.11-.23.15-.08.03-.16.05-.24.05-.22,0-.4-.08-.53-.24-.13-.16-.19-.42-.19-.78,0-.17,0-.34,0-.51,0-.37.08-.63.21-.78.14-.15.32-.23.54-.23.18,0,.32.05.44.16.12.1.2.28.26.53.22.2.48.36.78.46.31.11.66.17,1.06.18.66.02,1.18-.08,1.56-.28.18-.1.28-.21.29-.33.01-.2-.1-.37-.34-.5-.24-.14-.76-.26-1.54-.37-1.17-.16-1.95-.41-2.34-.79-.39-.37-.58-.81-.57-1.34,0-.54.25-1,.72-1.35.64-.49,1.47-.72,2.49-.7.35,0,.69.05,1.02.13.32.08.63.19.92.34.1-.07.19-.11.28-.15.09-.03.16-.05.23-.04.21,0,.38.09.5.25.13.16.17.42.14.79-.01.12-.02.25-.03.37-.03.33-.09.55-.18.67-.17.22-.4.33-.66.32-.18,0-.33-.07-.46-.19-.13-.12-.21-.27-.23-.46Z"/>
    <path class="cls-2" d="M533.65,295.16c-.11.74-.23,1.48-.34,2.21.49.04.99.08,1.48.12.35.03.58.12.7.27.12.15.16.34.12.57-.04.22-.15.4-.32.52-.17.13-.43.18-.77.15-1.03-.09-2.06-.16-3.09-.23-.34-.02-.58-.11-.71-.26-.13-.15-.18-.34-.15-.56.03-.22.12-.4.29-.53.17-.13.42-.19.77-.16.08,0,.15,0,.23.01.27-1.98.54-3.95.81-5.93-.08,0-.16-.01-.24-.02-.37-.02-.63-.11-.77-.26-.14-.15-.2-.34-.17-.57.03-.23.13-.41.31-.54.18-.13.46-.18.83-.16,2.46.16,4.92.37,7.37.63-.16.77-.33,1.53-.49,2.3-.08.36-.2.61-.37.75-.17.14-.37.2-.6.18-.22-.02-.39-.12-.5-.28-.11-.17-.13-.43-.06-.79.05-.26.1-.53.16-.79-1.31-.12-2.62-.24-3.93-.33-.11.73-.22,1.46-.33,2.19.44.03.88.07,1.32.1.07-.39.14-.64.24-.75.19-.23.43-.33.71-.31.22.02.39.11.5.28.11.17.13.43.07.8-.11.58-.21,1.16-.32,1.74-.07.36-.18.62-.35.76-.17.14-.35.2-.57.19-.27-.02-.45-.16-.56-.41-.05-.12-.05-.38.02-.78-.43-.04-.87-.07-1.3-.1Z"/>
    <path class="cls-2" d="M540.8,298.09c.47-1.96.94-3.91,1.41-5.87-.32-.04-.55-.14-.67-.3-.12-.16-.16-.35-.11-.56.05-.22.17-.4.37-.52.19-.12.48-.16.85-.12,1.09.13,2.18.27,3.26.42.51.07.98.23,1.41.47.43.25.75.53.95.85.16.24.3.56.42.96.12.4.18.79.19,1.16,0,.38-.08.82-.25,1.34-.08.24-.15.47-.23.71-.2.63-.49,1.17-.85,1.62-.36.45-.76.81-1.18,1.07-.43.26-.8.44-1.14.54-.53.16-1.16.19-1.89.09-.95-.13-1.89-.24-2.84-.36-.34-.04-.57-.14-.68-.29-.11-.16-.14-.35-.09-.57.05-.22.16-.39.35-.52.18-.13.42-.17.72-.13ZM542.24,298.26c.51.06,1.02.13,1.53.2.57.08,1.02.05,1.36-.08.44-.17.82-.41,1.11-.73.3-.32.53-.75.7-1.29.07-.23.14-.47.21-.7.14-.47.18-.89.1-1.27-.12-.59-.33-1.02-.63-1.28-.3-.26-.72-.42-1.27-.5-.54-.07-1.08-.14-1.62-.21-.5,1.95-1.01,3.91-1.51,5.86Z"/>
    <path class="cls-2" d="M557.06,297.26c.26.37.4.75.43,1.16.03.41-.06.83-.25,1.27-.21.49-.53.91-.94,1.27-.41.36-.91.61-1.51.75-.59.14-1.19.15-1.79.04-.6-.11-1.09-.33-1.49-.66-.4-.33-.63-.72-.72-1.18-.08-.46-.04-.93.14-1.42.16-.45.4-.84.72-1.18.32-.34.73-.62,1.22-.85-.22-.37-.35-.74-.4-1.11-.04-.38,0-.75.14-1.14.27-.75.8-1.35,1.61-1.79.81-.44,1.7-.56,2.65-.38.96.18,1.63.61,2,1.27.38.66.39,1.36.07,2.11-.17.38-.41.73-.73,1.03-.31.31-.71.57-1.17.81ZM555.77,299.47c.16-.38.15-.77-.06-1.14-.2-.38-.55-.61-1.04-.71-.49-.09-.97-.01-1.42.24-.45.25-.75.58-.9.98-.11.31-.08.6.12.88.19.28.57.47,1.13.58.57.11,1.04.08,1.41-.09.37-.17.62-.41.75-.73ZM557.4,295.13c.15-.36.13-.7-.06-1.01-.19-.31-.54-.52-1.05-.62-.51-.1-.97-.04-1.36.16-.39.2-.66.48-.8.85-.14.37-.11.71.08,1.02.19.31.53.51,1.03.6.49.09.93.04,1.33-.15.39-.2.67-.48.82-.84Z"/>
    <path class="cls-2" d="M568.51,299.58c-1.21,2.13-2.43,4.26-3.64,6.39.08.02.16.04.24.06.32.09.51.22.58.38.06.17.03.36-.09.57-.12.21-.29.36-.5.45-.21.09-.48.1-.8.01-.79-.21-1.58-.42-2.36-.62-.32-.08-.52-.21-.58-.37-.07-.17-.05-.35.06-.56.11-.21.27-.37.48-.47.21-.1.48-.1.81-.02.27.07.54.14.81.21.43-.78.85-1.55,1.28-2.33-.46.12-.89.2-1.3.21-.41.02-.79-.02-1.15-.11-.83-.2-1.44-.64-1.86-1.31-.5-.81-.54-1.68-.08-2.64.41-.86,1.12-1.55,2.17-2.06,1.04-.5,2.09-.63,3.12-.37.4.1.75.25,1.06.46.31.21.58.47.81.78.09-.16.18-.32.27-.49.59.15,1.17.31,1.76.46.35.1.57.23.65.4.08.17.05.36-.07.58-.12.21-.29.35-.52.44-.22.09-.51.09-.87,0-.09-.02-.17-.05-.26-.07ZM566.13,300.84c.11-.2.17-.47.18-.82,0-.35-.1-.67-.33-.96-.23-.29-.57-.5-1.02-.61-.74-.18-1.46-.05-2.16.38-.48.3-.79.62-.96.96-.19.39-.17.81.06,1.27.23.46.63.76,1.23.9.6.15,1.19.1,1.79-.16.6-.25,1.01-.57,1.22-.97Z"/>
    <path class="cls-2" d="M576.05,296.95c-.63.99-1.26,1.98-1.9,2.97.42-.08.81-.11,1.18-.1.37.01.72.07,1.04.17.51.16.91.38,1.2.67.29.29.44.65.46,1.08.02.43-.16.91-.53,1.43-.6.86-1.21,1.71-1.81,2.57.35.12.56.22.62.33.12.21.09.44-.1.69-.14.2-.33.34-.56.42-.23.08-.51.07-.84-.04-.52-.17-1.04-.34-1.56-.5-.33-.1-.52-.24-.57-.41-.06-.17-.01-.36.12-.57.17-.25.41-.41.72-.48.16-.04.42,0,.76.12.57-.83,1.14-1.66,1.7-2.49.24-.35.33-.63.25-.83-.09-.26-.36-.46-.79-.6-.32-.1-.65-.13-.98-.08-.33.04-.83.2-1.5.47-.56.87-1.11,1.74-1.67,2.61.36.11.57.21.63.31.13.21.11.44-.06.7-.13.2-.31.35-.54.43-.23.09-.5.08-.83-.02-.52-.16-1.04-.31-1.57-.46-.33-.1-.53-.23-.59-.4-.06-.17-.03-.36.09-.57.15-.26.39-.42.69-.5.15-.04.41,0,.76.1,1.25-2.02,2.5-4.04,3.74-6.05-.09-.02-.17-.05-.26-.07-.36-.1-.58-.24-.66-.42-.08-.17-.05-.37.07-.58.12-.21.3-.35.54-.44.24-.09.54-.08.91.03.6.17,1.2.35,1.79.53Z"/>
    <path class="cls-2" d="M583.57,303.29c-1.05,1.35-2.11,2.7-3.17,4.05.17.06.33.12.5.18.33.12.52.27.56.44.04.18-.02.36-.18.56-.16.19-.35.33-.59.4-.24.07-.52.05-.85-.07-.59-.21-1.19-.42-1.78-.63-.33-.11-.51-.26-.56-.43-.04-.17,0-.36.16-.56.14-.19.33-.33.57-.41.23-.08.5-.07.79.03,1.33-1.76,2.67-3.52,4-5.28-.08-.03-.15-.05-.23-.08-.36-.12-.56-.27-.62-.45-.06-.18-.01-.37.14-.57.15-.2.35-.34.59-.41.25-.07.55-.05.92.08.58.2,1.16.41,1.73.62-.12,2.25-.33,4.48-.62,6.69,1.11-1.32,2.22-2.64,3.33-3.97-.18-.07-.35-.13-.53-.2-.35-.13-.56-.29-.6-.47-.05-.18,0-.37.17-.57.16-.2.37-.33.62-.4.25-.07.56-.03.92.1.65.25,1.3.5,1.95.76.36.14.56.3.61.48.05.18-.02.37-.19.56-.17.19-.38.32-.64.38-.26.06-.54.04-.84-.08-1.85,2.14-3.71,4.29-5.56,6.43-.45-.17-.89-.35-1.34-.52.33-2.21.57-4.44.73-6.68Z"/>
  </g>
  <g>
    <path class="cls-1" d="M676.8,415.69c-.3-1.28-.28-2.48.07-3.63-.17-.59-.35-1.18-.52-1.76-.01-.84-.03-1.69-.06-2.54.89.04,1.48.4,1.77,1.08.06.15.11.32.13.51.03.19.03.4.02.64.27.34.48.62.65.85.33-.07.58-.14.75-.21.12-.55.27-1.02.44-1.41-.3-.24-.6-.52-.91-.84-.99.32-1.69,0-2.12-.99.7-.31,1.41-.63,2.11-.94.77.36,1.54.73,2.31,1.1.18-.66.35-1.32.52-1.98.23-.91.54-1.47.95-1.65.29-.13.65-.11,1.1.06-.19,1.11-.39,2.22-.6,3.32.13-.16.27-.31.4-.47.35-.41.7-.7,1.05-.85.48-.21.97-.07,1.47.44-.69.99-1.39,1.98-2.1,2.95.18-.05.36-.1.54-.14,1-.28,1.67,0,1.99.82.02.05.05.15.1.28-.35.09-.76.23-1.22.42-1.12.46-2.32,1.07-3.61,1.81-1.03,1.84-2.08,3.65-3.16,5.43-1.16-.18-2-.6-2.51-1.25.15-.35.3-.69.45-1.04ZM677.24,415.66c-.16.34-.33.68-.49,1.01.59.46,1.24.74,1.94.84,1.15-1.93,2.27-3.89,3.36-5.88-.22-1.23-.45-2.46-.69-3.69-.74-.36-1.48-.72-2.22-1.07-.53.24-1.06.47-1.59.71.37.52.84.66,1.42.41.08-.03.16-.07.25-.12.41.49.84.89,1.3,1.19-.22.54-.43,1.18-.62,1.9-.34.14-.76.23-1.25.27-.13-.21-.26-.4-.39-.57-.21-.26-.36-.46-.46-.61.04-.2.05-.38.03-.56-.02-.17-.06-.34-.12-.5-.17-.4-.51-.66-1.01-.76.02.67.03,1.34.04,2.01.19.59.37,1.17.55,1.76-.4,1.22-.42,2.44-.05,3.65ZM682.44,411.8c.88-.51,1.88-1,3-1.46.23-.09.53-.2.9-.33-.21-.3-.47-.47-.75-.5-.29-.03-.69.06-1.22.28-.15.06-.39.18-.71.35-.4.56-.81,1.11-1.22,1.66ZM682.31,410.72c.45-2.12.85-4.27,1.22-6.44-.17-.03-.32-.01-.44.04-.34.15-.63.73-.86,1.72-.16.66-.32,1.31-.48,1.96.2.91.38,1.82.57,2.73ZM682.67,410.77c1.04-1.41,2.07-2.84,3.08-4.3-.26-.19-.51-.22-.76-.12-.31.14-.7.49-1.17,1.05-.2.24-.39.47-.59.71-.18.89-.37,1.77-.56,2.66Z"/>
    <path class="cls-1" d="M682.86,424.85c.29.28.74.79,1.34,1.53.03.04.11.13.24.29.39.21.68.39.89.55.21.15.33.27.35.37.03.11.03.2-.02.28-.05.07-.14.13-.27.17-.12.04-.28.07-.5.09-.2.31-.37.48-.5.52-.11.03-.2.03-.28-.02-.08-.04-.13-.13-.17-.26-.02-.06-.02-.17,0-.32.02-.15.06-.34.12-.57-.23-.45-.7-1.06-1.41-1.82-.03.14-.05.24-.06.3-.07.37-.18.82-.32,1.37-.02.07-.05.22-.1.46.18.97.09,1.51-.26,1.62-.23.07-.46-.14-.69-.61-.35-.15-.55-.3-.6-.46-.06-.19.12-.44.54-.76.05-.03.11-.08.19-.15.35-.9.57-1.69.68-2.37-.61-.58-1.28-1.08-2.01-1.5-.59.11-.92.03-1.01-.24-.06-.17.03-.41.28-.74-.18-.52-.13-.83.15-.92.2-.07.38-.03.54.14.16.16.39.54.69,1.13.49.35,1,.8,1.55,1.34.13-1.01.14-1.81.05-2.39-.15-.09-.27-.18-.37-.27-.09-.09-.15-.18-.18-.27-.05-.13-.05-.24-.02-.33.03-.09.1-.15.2-.19.09-.03.32.01.69.14.18-.12.33-.2.43-.24.15-.05.27-.06.36-.02.09.04.16.12.2.24.04.12.02.3-.06.55-.08.24-.23.55-.44.93,0,.67-.07,1.49-.2,2.46ZM686.39,425.3c-.27.01-.53.03-.8.04-.18-.12-.36-.24-.55-.35-.18-.03-.33-.11-.45-.22-.12-.11-.21-.26-.27-.45-.12-.37-.06-.7.19-.97.08-.21.16-.41.23-.62.22-.15.44-.3.67-.45.05.09.11.18.16.26-.06.06-.11.1-.15.13-.22.21-.35.4-.39.58-.04.17,0,.43.11.76.12.38.25.63.37.75.13.12.34.19.65.23.04,0,.11,0,.19.02,0,.1.02.21.02.31ZM686.39,424.72c-.14-.01-.29-.02-.43-.03-.13-.18-.25-.44-.36-.78-.05-.17-.09-.32-.12-.46-.03-.14-.04-.27-.04-.38.11-.1.22-.19.33-.29.04-.43.09-.85.13-1.28.2-.11.39-.21.59-.32.11-.06.31-.25.58-.58.2-.25.58-.48,1.15-.68.66-.23,1.28-.16,1.86.22.59.38,1.02,1,1.29,1.85.27.85.29,1.61.04,2.27-.25.66-.71,1.1-1.37,1.31-.57.18-1.18.19-1.83.02-.07-.01-.17-.01-.29,0-.22.03-.44.06-.66.1-.28-.32-.56-.64-.85-.95ZM687.33,423.34c-.18-.05-.34-.1-.49-.16-.17-.08-.3-.11-.37-.09-.08.03-.13.07-.15.13-.02.06-.02.14.01.24.02.06.06.12.12.17-.02.08-.02.15,0,.21.06.2.18.27.34.21.07-.02.15-.12.24-.29.08-.15.18-.29.3-.43ZM687.33,421.3c-.47.16-.63.47-.49.91.15.45.47.59.98.42.42-.14.56-.43.41-.87-.08-.23-.19-.39-.34-.46-.15-.07-.34-.07-.57,0ZM688.1,423.67c-.48.16-.64.46-.5.91.14.45.47.59.98.42.21-.07.36-.18.42-.32.07-.14.07-.33,0-.55-.15-.46-.45-.62-.9-.47Z"/>
    <path class="cls-1" d="M689.96,444.95c-.08-.39-.16-.77-.24-1.16-.77-.48-1.34-.99-1.73-1.51-.07-.21-.12-.37-.14-.47-.06-.29-.08-.62-.06-.98-.06-.09-.13-.18-.19-.27-.03-.09-.05-.18-.08-.27-.18-.8,0-1.26.54-1.39.02,0,.06-.01.12-.03-.03-.31,0-.56.11-.74.1-.19.28-.31.52-.37.11-.03.24-.03.39,0,0-.25.06-.45.16-.61s.25-.25.45-.3c.15-.04.28-.04.41,0,.12.04.24.12.35.23,0-.1,0-.21,0-.31-.23-.98-.47-1.96-.71-2.93-.16-.63-.22-1.12-.17-1.47.05-.35.21-.57.47-.64.31-.09.57,0,.78.27.21.27.41.78.61,1.55.31,1.11.61,2.21.91,3.33.12.09.25.18.37.26.24.74.49,1.49.72,2.23-.04,1.12-.17,2.12-.37,3.02.12.59.25,1.18.37,1.77-.52.42-1.1.69-1.76.83-.58.12-1.19.11-1.82-.03ZM688.84,441.62c.12-.15.23-.36.32-.63-.23-.33-.47-.65-.7-.97-.06-.26-.12-.52-.18-.78-.38.09-.51.39-.4.88.03.1.05.21.08.31.29.39.59.79.88,1.18ZM690.3,444.58c.51.07.99.05,1.44-.04.48-.1.93-.3,1.37-.59-.1-.5-.21-1-.31-1.5.22-1.51.33-2.52.35-3.03-.21-.69-.43-1.37-.65-2.05-.47-.33-.93-.66-1.4-.99-.14.29-.17.58-.1.89.11.47.45.87,1.01,1.23-.15.56-.16,1.11-.04,1.65.01.05.03.09.04.14-.13.02-.25.05-.38.07-.02-.06-.04-.12-.06-.18-.11-.49-.11-.98,0-1.48-.31-.27-.54-.53-.7-.77.06.25.11.49.17.74.11.13.2.26.27.39.07.13.12.27.15.4.14.63-.08,1.21-.68,1.73-.12-.17-.24-.35-.35-.52-.03.38-.24.78-.65,1.18-.11-.15-.21-.3-.32-.45-.17.36-.39.64-.66.84-.21-.31-.42-.61-.63-.91.03.28.05.46.06.54.01.05.04.15.09.28.48.54,1.07.99,1.76,1.35.08.37.15.73.23,1.1ZM689.79,441.22c.23-.25.32-.61.27-1.06-.18-.25-.36-.51-.54-.76-.09-.4-.18-.79-.27-1.19-.14-.05-.26-.07-.35-.04-.16.04-.26.14-.31.29-.05.15-.04.36.02.62.06.24.12.48.19.73.33.47.66.94.99,1.42ZM690.8,440.58c.28-.28.37-.63.28-1.04-.03-.12-.07-.24-.14-.35-.07-.11-.16-.22-.26-.33-.08-.35-.16-.7-.25-1.04-.05-.22-.12-.38-.21-.48-.09-.1-.19-.13-.3-.1-.16.04-.26.15-.31.34-.04.18-.03.43.05.75.07.28.14.57.21.85.31.47.63.93.94,1.4ZM691.98,436.54c-.27-.99-.54-1.99-.82-2.98-.28-1.06-.58-1.54-.9-1.45-.14.04-.2.23-.19.58.01.35.11.85.28,1.5.16.62.31,1.23.46,1.85.03-.07.08-.15.14-.25.35.25.69.49,1.03.74Z"/>
    <path class="cls-1" d="M689.76,454.28c.24.32.6.9,1.08,1.74.03.04.09.15.19.32.35.27.61.5.79.69.18.19.28.33.29.42.01.12,0,.21-.07.27-.06.06-.16.11-.3.13-.12.02-.29.02-.51.01-.25.27-.44.42-.57.44-.11.02-.2,0-.27-.06-.07-.06-.11-.15-.13-.28,0-.07.01-.17.06-.31.05-.14.12-.33.21-.55-.16-.49-.52-1.17-1.1-2.03-.05.13-.09.23-.11.28-.13.35-.31.79-.53,1.31-.03.07-.08.21-.18.44.02,1-.15,1.52-.52,1.57-.24.03-.43-.21-.58-.72-.32-.21-.49-.39-.52-.55-.03-.19.19-.41.65-.67.05-.02.12-.06.21-.12.49-.84.84-1.59,1.05-2.24-.51-.68-1.09-1.28-1.74-1.81-.59.01-.91-.12-.96-.4-.03-.18.1-.41.39-.69-.09-.54,0-.84.29-.89.21-.04.38.04.51.22.13.19.3.6.5,1.24.43.43.86.96,1.31,1.58.29-.98.43-1.77.43-2.36-.14-.12-.24-.22-.32-.33-.08-.1-.12-.2-.14-.3-.02-.14-.01-.25.03-.34.04-.08.12-.13.23-.15.1-.02.32.07.65.25.2-.09.36-.15.46-.17.15-.03.27-.02.36.03.09.05.14.14.16.27.02.13-.03.3-.15.53-.12.23-.31.51-.58.85-.11.66-.31,1.46-.59,2.4ZM693.17,455.3c-.26-.03-.53-.06-.79-.09-.16-.15-.32-.29-.48-.44-.17-.06-.31-.16-.41-.29-.1-.13-.17-.3-.2-.49-.06-.39.05-.7.35-.94.11-.19.22-.38.33-.57.24-.11.49-.22.73-.34.04.1.08.19.12.29-.07.05-.13.08-.16.1-.25.17-.41.34-.48.51-.06.16-.07.42-.02.77.06.39.14.66.25.8.1.14.31.25.61.33.04.01.11.03.19.05,0,.1-.02.21-.03.31ZM693.27,454.73c-.14-.03-.28-.07-.42-.1-.1-.2-.17-.48-.23-.83-.03-.17-.04-.34-.05-.48,0-.15,0-.27.02-.38.12-.08.25-.15.37-.23.11-.42.22-.83.33-1.25.21-.07.42-.15.63-.22.12-.04.34-.2.66-.49.24-.22.65-.38,1.24-.49.69-.12,1.29.05,1.8.52.52.47.84,1.15.98,2.04.13.89.02,1.64-.33,2.26-.35.62-.87.98-1.56,1.08-.59.09-1.2,0-1.81-.28-.07-.02-.16-.04-.29-.04-.22,0-.44,0-.66-.01-.23-.36-.45-.72-.68-1.08ZM694.42,453.5c-.17-.07-.32-.16-.46-.24-.16-.11-.28-.16-.35-.15-.08.01-.14.05-.17.11-.03.06-.04.14-.03.24,0,.06.04.13.09.19-.03.08-.04.15-.03.21.03.2.13.29.3.27.07-.01.17-.09.29-.25.11-.13.23-.25.36-.37ZM694.74,451.48c-.49.09-.7.36-.63.82.07.47.37.66.91.57.43-.07.62-.34.55-.79-.04-.24-.13-.41-.26-.51-.14-.1-.32-.13-.56-.09ZM695.13,453.95c-.49.08-.7.35-.64.82.07.47.37.66.9.58.22-.03.38-.12.47-.25.09-.13.12-.31.09-.54-.07-.48-.34-.68-.82-.61Z"/>
    <path class="cls-1" d="M694.63,463.73c-.04-.43-.09-.86-.13-1.3.39-.04.77-.09,1.16-.13.05.43.09.87.13,1.3,1.44.21,2.42,1.08,2.89,2.6.4-.04.8-.08,1.2-.12.04.42.07.85.1,1.28-.4.04-.8.07-1.21.11-.24,1.59-1.06,2.62-2.43,3.1.03.43.05.87.08,1.3-.39.03-.78.05-1.16.08-.02-.43-.05-.86-.07-1.3-1.44-.27-2.37-1.15-2.83-2.62-1.3.11-2.59.22-3.89.32-.03-.4-.06-.8-.1-1.2,1.3-.11,2.59-.23,3.89-.35.22-1.53,1.01-2.56,2.38-3.08ZM694.81,465.74c-.02-.25-.04-.49-.07-.74-.71.31-1.15.88-1.33,1.7.23-.02.46-.04.69-.06.22.08.44.16.66.24.08-.21.2-.37.38-.49-.11-.22-.23-.43-.34-.65ZM693.52,467.94c.3.76.82,1.25,1.57,1.44-.02-.25-.03-.49-.05-.74.08-.24.16-.48.23-.71-.19-.09-.34-.23-.45-.41-.2.12-.41.24-.62.36-.23.02-.46.04-.69.06ZM695.74,466.33c.19.09.34.23.45.42.2-.12.41-.24.61-.37.23-.02.46-.04.68-.07-.3-.79-.84-1.27-1.59-1.44.02.25.04.49.07.74-.07.24-.15.47-.22.71ZM696.25,467.39c-.08.2-.21.36-.38.48.11.22.22.44.33.67.02.25.03.5.05.74.55-.25.98-.73,1.28-1.45.02-.09.04-.18.06-.26-.23.02-.45.04-.68.06-.22-.08-.44-.16-.66-.25Z"/>
    <path class="cls-1" d="M688.9,476.86c3.85-.14,7.71-.3,11.56-.48.16,5.28.11,10.57-.16,15.88-3.86-.13-7.71-.27-11.56-.44.25-5,.31-10,.16-14.97ZM690.09,478.03c.1,4.19.05,8.4-.13,12.62,3.08.11,6.16.2,9.23.29.19-4.42.24-8.83.13-13.23-3.08.12-6.16.23-9.23.32ZM695.57,484.33c.94,1.03,1.88,2.08,2.8,3.14-.28.3-.57.6-.85.9-.92-1.06-1.85-2.11-2.78-3.15-.97,1.03-1.94,2.04-2.92,3.04-.27-.3-.53-.6-.8-.9.98-1,1.95-2.01,2.91-3.03-.94-1.03-1.89-2.04-2.84-3.03.27-.29.55-.59.82-.88.96.99,1.91,2,2.86,3.02.96-1.04,1.91-2.09,2.85-3.15.28.29.56.58.83.88-.95,1.07-1.9,2.13-2.87,3.16Z"/>
    <path class="cls-1" d="M688.45,496.35c3.85.26,7.7.49,11.55.71-.32,4.31-.78,8.62-1.39,12.92-3.83-.46-7.66-.95-11.48-1.45.57-4.06,1.01-8.13,1.32-12.19ZM689.86,498.09c-.25,3-.58,6.01-.97,9.01,2.81.34,5.62.67,8.43.99.41-3.14.75-6.28,1.01-9.41-2.82-.19-5.65-.39-8.47-.59Z"/>
    <path class="cls-1" d="M696.62,521.67c-3.8-.69-7.59-1.39-11.38-2.12.44-2.16.84-4.33,1.2-6.49,3.81.59,7.62,1.17,11.44,1.72-.38,2.3-.8,4.59-1.26,6.89ZM690.83,520.18c.39-1.95.75-3.9,1.08-5.85-1.72-.26-3.44-.53-5.15-.8-.32,1.9-.67,3.8-1.05,5.7,1.71.32,3.42.64,5.13.96ZM688.23,516.29c-.05.27-.1.55-.15.82-.13-.02-.25-.04-.38-.07.05-.27.1-.55.15-.82.13.02.25.04.38.06ZM690.85,515.88c-.15.83-.3,1.66-.46,2.49-.51-.09-1.02-.18-1.52-.27.16-.82.31-1.65.46-2.47.51.08,1.02.17,1.53.25ZM690.4,516.23c-.26-.04-.51-.08-.77-.13-.1.55-.2,1.11-.31,1.66.26.04.51.09.77.13.1-.55.21-1.11.31-1.67ZM696.33,521.18c.4-2,.77-4.01,1.11-6.02-1.72-.25-3.43-.51-5.15-.77-.33,1.96-.69,3.91-1.08,5.87,1.71.31,3.41.62,5.12.93ZM693.75,517.21c-.05.29-.1.57-.16.86-.13-.02-.25-.04-.38-.06.05-.28.1-.57.16-.85.13.02.25.04.38.06ZM696.37,516.76c-.15.86-.31,1.71-.47,2.57-.51-.09-1.01-.17-1.52-.26.16-.85.32-1.7.47-2.55.51.08,1.01.16,1.52.24ZM695.92,517.12c-.25-.04-.51-.08-.76-.12-.1.57-.21,1.14-.31,1.71.25.04.51.09.76.13.11-.57.21-1.14.31-1.71Z"/>
    <path class="cls-1" d="M693.22,535.87c-3.74-.96-7.47-1.93-11.2-2.92.83-2.95,1.58-5.91,2.26-8.88,3.77.81,7.54,1.61,11.32,2.39-.71,3.15-1.51,6.29-2.38,9.42ZM692.96,535.35c.79-2.84,1.51-5.69,2.16-8.55-3.53-.73-7.05-1.49-10.57-2.25-.62,2.7-1.31,5.4-2.05,8.1,3.48.92,6.97,1.82,10.46,2.71ZM685.78,526.1c.12.03.25.06.37.08-.45,1.91-.94,3.82-1.45,5.72-.12-.03-.25-.06-.37-.09.51-1.9,1-3.8,1.45-5.71ZM687.29,526.44c.12.03.25.06.37.08-.46,1.92-.94,3.85-1.46,5.77-.12-.03-.25-.06-.37-.09.52-1.91,1-3.83,1.46-5.75ZM688.79,526.77c.13.03.25.06.38.08-.46,1.94-.95,3.88-1.47,5.81-.12-.03-.25-.06-.37-.09.52-1.93,1.01-3.86,1.47-5.8ZM690.3,527.1c.12.03.25.05.37.08-.46,1.96-.96,3.91-1.48,5.86-.12-.03-.25-.06-.37-.09.52-1.94,1.02-3.89,1.48-5.84ZM691.81,527.43c.12.03.25.05.38.08-.47,1.97-.96,3.94-1.49,5.9-.12-.03-.25-.06-.37-.09.53-1.96,1.03-3.92,1.49-5.89ZM693.32,527.76c.13.03.25.05.38.08-.47,1.99-.97,3.97-1.5,5.95-.12-.03-.25-.06-.37-.09.53-1.98,1.03-3.95,1.5-5.94Z"/>
  </g>
  <g>
    <path class="cls-1" d="M351.6,538.43c2.72-.79,5.43-1.6,8.14-2.4.89,2.9,1.85,5.79,2.88,8.66-3.64,1.28-7.28,2.55-10.92,3.81-.7-1.94-1.37-3.89-2-5.84.62-1.42,1.25-2.83,1.9-4.22ZM353.14,542.03c-.98.31-1.96.62-2.94.92.55,1.67,1.12,3.34,1.71,5.01,3.41-1.17,6.81-2.34,10.21-3.53-.94-2.62-1.81-5.25-2.63-7.89-2.46.74-4.93,1.47-7.4,2.2.34,1.1.69,2.2,1.05,3.3ZM350.21,542.49c.81-.25,1.62-.5,2.42-.76-.29-.91-.58-1.82-.86-2.73-.53,1.15-1.05,2.31-1.56,3.48ZM352.93,546.22c-.12.04-.24.08-.36.12-.29-.83-.57-1.66-.85-2.48.12-.04.24-.08.36-.12.28.83.56,1.65.85,2.48ZM354.39,545.73c-.12.04-.24.08-.36.12-.29-.82-.57-1.64-.84-2.47.12-.04.24-.08.37-.12.28.82.56,1.64.84,2.46ZM355.86,545.23c-.12.04-.24.08-.36.12-.67-1.9-1.3-3.81-1.9-5.72.12-.04.24-.08.37-.11.6,1.91,1.23,3.81,1.9,5.71ZM357.32,544.74c-.12.04-.24.08-.36.12-.66-1.88-1.29-3.78-1.89-5.67.12-.04.24-.07.37-.11.6,1.89,1.22,3.78,1.88,5.66ZM358.78,544.24c-.12.04-.24.08-.36.12-.65-1.87-1.28-3.74-1.87-5.63.12-.04.24-.07.37-.11.59,1.88,1.21,3.75,1.87,5.61ZM360.24,543.75c-.12.04-.24.08-.36.12-.65-1.85-1.27-3.71-1.86-5.58.12-.04.24-.08.37-.11.59,1.86,1.2,3.72,1.85,5.57Z"/>
    <path class="cls-1" d="M357.73,533.31c-2.97.83-5.94,1.65-8.92,2.46-.96-3.35-1.82-6.71-2.59-10.09,3.01-.65,6.03-1.31,9.04-1.98.74,3.21,1.56,6.42,2.48,9.61Z"/>
    <path class="cls-1" d="M349.08,516.26c.36-.06.71-.12,1.07-.18.32,1.75.66,3.49,1.03,5.24-.38.08-.76.15-1.14.23-.26-1.23-.51-2.46-.74-3.69-.5.78-1.14,1.26-1.92,1.4-.97.18-1.89-.06-2.74-.74-.85-.68-1.38-1.59-1.58-2.7-.19-1.12,0-2.14.58-3.05.58-.91,1.36-1.43,2.34-1.57.79-.11,1.55.13,2.29.7-.19-1.23-.37-2.47-.54-3.7.38-.05.77-.1,1.15-.15.24,1.75.5,3.5.79,5.25-.36.06-.71.11-1.07.17-.68-.82-1.47-1.16-2.37-1.03-.68.1-1.22.46-1.62,1.09-.4.63-.54,1.33-.4,2.09.13.77.5,1.39,1.09,1.85.59.47,1.22.64,1.9.52.89-.16,1.52-.74,1.89-1.73ZM354.57,520.62c-.38.08-.76.16-1.14.23-.92-4.36-1.68-8.73-2.27-13.11.38-.05.77-.1,1.15-.15.59,4.35,1.35,8.7,2.26,13.02Z"/>
    <path class="cls-1" d="M352.77,498.7c.15,1.75-.28,3.3-1.32,4.67-1.04,1.37-2.38,2.18-4.04,2.37-1.67.19-3.17-.29-4.5-1.47-1.33-1.18-2.08-2.73-2.25-4.6-.16-1.87.32-3.5,1.42-4.87,1.1-1.37,2.5-2.07,4.18-2.15,1.68-.08,3.14.49,4.4,1.67,1.26,1.18,1.96,2.63,2.11,4.38ZM352,498.76c-.14-1.53-.75-2.8-1.85-3.83-1.1-1.03-2.38-1.52-3.84-1.45-1.46.07-2.68.69-3.64,1.89-.96,1.2-1.38,2.62-1.23,4.24.14,1.62.8,2.97,1.95,4,1.16,1.04,2.47,1.46,3.92,1.3,1.45-.16,2.63-.85,3.53-2.05.91-1.2,1.29-2.55,1.15-4.09ZM345.95,501.36c.03.29-.04.54-.21.76-.16.22-.38.34-.64.37-.26.03-.5-.06-.71-.24-.21-.19-.33-.43-.36-.72-.03-.3.04-.56.21-.78.17-.22.38-.34.65-.36.26-.02.5.06.71.25.21.19.32.43.35.72ZM345.58,497.18c.02.29-.05.54-.22.76-.17.22-.39.34-.65.36-.26.02-.5-.07-.7-.26-.2-.19-.32-.44-.34-.73-.02-.29.05-.54.23-.76.17-.22.39-.33.66-.35.27-.02.5.07.7.26.2.19.31.43.34.72ZM349.14,502.72c-.26.03-.51.05-.77.08-.27-2.47-.48-4.95-.65-7.43.26-.02.51-.03.77-.05.17,2.47.38,4.93.65,7.4Z"/>
    <path class="cls-1" d="M351.89,488.96c-2.75.08-5.5.16-8.25.22-1.38.03-2.47.42-3.27,1.16-.02-.46-.03-.92-.05-1.38.65-.5,1.4-.84,2.24-1.03-.92-.38-1.69-.87-2.31-1.47-.08-.41-.17-.83-.25-1.24.6-.58,1.48-.94,2.61-1.09-.82-.32-1.62-.83-2.4-1.56-.08-.42-.15-.85-.22-1.27.85-.67,1.85-.99,3-.96,2.4.05,4.8.1,7.2.14.75.01,1.27,0,1.54-.06.27-.05.5-.17.7-.35.35-.34.54-.91.56-1.7,0-.25.01-.49.02-.74-.39-.01-.77-.02-1.16-.04.57-.62,1.14-1.23,1.71-1.83.51.65,1.02,1.3,1.53,1.94-.37-.01-.75-.02-1.12-.04-.01.36-.02.73-.03,1.09-.02,1.04-.3,1.79-.83,2.26-.53.47-1.39.7-2.55.69-2.32-.03-4.65-.05-6.97-.09-1.17-.02-2.01.15-2.53.52.99.97,2.24,1.63,3.74,2,2.33,0,4.66,0,6.99,0,0,.4,0,.8.01,1.21-2.59.03-5.19.05-7.78.06-1.4,0-2.38.2-2.93.57.95.91,2.12,1.55,3.52,1.93,2.41-.05,4.83-.1,7.24-.15.01.4.02.81.04,1.21Z"/>
    <path class="cls-1" d="M352.07,472.63c-3.85-.23-7.69-.48-11.54-.73.3-5.25.81-10.48,1.54-15.68,3.81.57,7.63,1.13,11.44,1.67-.68,4.88-1.16,9.8-1.44,14.74ZM350.98,471.35c.26-4.16.67-8.31,1.21-12.43-3.05-.42-6.1-.84-9.15-1.27-.58,4.33-1,8.69-1.28,13.06,3.07.22,6.14.44,9.21.65ZM343.44,464.28c1.84-1.64,3.69-3.22,5.57-4.76.24.32.47.65.71.97-1.56,1.29-3.11,2.61-4.65,3.97,1.24,1.65,2.5,3.27,3.78,4.85-.3.27-.59.54-.89.81-1.54-1.9-3.05-3.84-4.53-5.84Z"/>
    <path class="cls-1" d="M348.64,448.67c.12.08.24.16.36.24.03.22.01.51-.05.86-.03.18-.07.33-.11.47-.04.14-.09.26-.14.35-.14.03-.28.06-.42.1-.24.36-.48.71-.71,1.07-.22,0-.44,0-.66,0-.13,0-.39.07-.78.23-.3.13-.74.14-1.33.04-.69-.12-1.2-.49-1.53-1.11-.33-.63-.42-1.38-.26-2.27.16-.88.51-1.56,1.03-2.02.53-.46,1.14-.62,1.82-.48.59.12,1.13.42,1.62.88.05.05.14.09.26.14.21.08.42.16.62.24.1.42.2.84.3,1.25ZM346.21,451.24c.49.09.78-.1.86-.56.08-.47-.14-.75-.67-.85-.43-.08-.69.11-.77.56-.04.24-.01.43.08.57.1.14.27.23.5.28ZM346.64,448.77c.49.09.78-.09.87-.56.09-.46-.13-.75-.66-.85-.22-.04-.39-.02-.52.07-.13.09-.21.25-.26.48-.09.48.1.76.57.85ZM347.16,449.44c.14.13.25.26.35.38.11.16.21.25.29.26.08.02.15,0,.2-.05.05-.04.08-.12.1-.22.01-.06,0-.13-.03-.21.05-.06.09-.13.1-.19.04-.2-.03-.32-.2-.35-.07-.01-.19.03-.35.14-.14.09-.3.16-.46.23ZM348.92,448.17c.24.12.48.24.72.35.1.19.21.38.31.58.14.12.24.26.29.42.05.16.06.34.03.53-.07.39-.28.65-.63.77-.17.14-.33.29-.5.43-.27.02-.53.05-.8.07,0-.1-.01-.21-.02-.31.08-.02.15-.03.19-.04.3-.08.5-.18.61-.32.11-.13.2-.38.26-.73.07-.39.08-.67.02-.84-.05-.17-.21-.34-.47-.52-.04-.02-.09-.06-.16-.11.04-.09.08-.19.12-.28ZM351.81,450.28c-.12-.38-.28-1.05-.46-2-.01-.05-.04-.17-.07-.37-.24-.37-.42-.68-.52-.92-.11-.24-.15-.4-.14-.49.02-.11.07-.19.15-.23.08-.04.18-.05.32-.02.12.02.28.08.49.16.32-.17.55-.25.68-.22.11.02.19.07.24.15.05.08.05.18.03.31-.01.06-.06.16-.15.27-.09.12-.22.27-.38.45-.01.51.11,1.28.38,2.29.09-.11.15-.18.19-.23.23-.29.54-.64.92-1.05.05-.05.15-.17.31-.36.3-.95.63-1.38.99-1.31.23.05.34.34.32.88.24.3.34.53.31.69-.04.19-.31.33-.83.41-.05,0-.13.02-.24.04-.73.63-1.3,1.22-1.71,1.77.26.81.62,1.57,1.06,2.29.57.19.82.41.78.69-.03.18-.23.35-.59.52-.09.54-.27.79-.56.75-.21-.03-.35-.16-.41-.38-.06-.22-.09-.66-.07-1.34-.26-.55-.51-1.19-.73-1.93-.59.83-.98,1.53-1.17,2.09.09.15.16.29.19.42.04.12.05.23.03.33-.02.14-.07.24-.14.31-.07.07-.16.09-.26.07-.1-.02-.28-.17-.54-.46-.22.02-.38.02-.49,0-.15-.02-.26-.08-.33-.15-.06-.08-.09-.18-.07-.31.02-.13.12-.28.31-.45.19-.18.46-.38.82-.61.32-.59.76-1.28,1.34-2.07Z"/>
    <path class="cls-1" d="M356.44,436.54c.36.1.72.19,1.08.29.09.73.06,1.4-.09,1.99-.16.62-.43,1.18-.84,1.69-.28-.07-.56-.14-.84-.2-.31.17-.62.33-.92.5-.82.23-1.81.3-2.98.19-.3-.1-.6-.2-.89-.31-.96.32-1.92.64-2.88.97-.43.15-.76.2-.99.14-.2-.05-.36-.16-.46-.34-.11-.18-.14-.38-.09-.59.07-.31.37-.57.91-.77.83-.31,1.66-.6,2.5-.9-1.1.04-2.2.08-3.31.13-.41.02-.69,0-.84-.03-.28-.07-.48-.19-.59-.36-.11-.17-.13-.4-.06-.67.11-.47.52-.73,1.21-.77,1.14-.07,2.28-.13,3.42-.18-1.21-.31-2.41-.62-3.62-.93-.39-.1-.67-.26-.83-.47-.16-.21-.2-.47-.12-.78.16-.62.68-.81,1.57-.57,1.19.36,2.39.71,3.58,1.06-.85-.59-1.69-1.19-2.54-1.79-.74-.53-1.05-1.02-.93-1.46.07-.25.18-.43.33-.52.15-.1.34-.11.58-.04.24.07.51.19.81.37,1.11.68,2.23,1.36,3.34,2.03.19,0,.46.02.83.08-.04-.2-.07-.46-.09-.8-.28-.32-.47-.64-.57-.95-.1-.32-.1-.64,0-.96.09-.31.37-.64.85-.98.05-.04.11-.08.16-.13.34.73.69,1.46,1.04,2.18.48.67.96,1.33,1.45,1.99.36.72.62,1.34.8,1.87ZM356.16,436.88c-.34-.85-.66-1.56-.95-2.11-.44-.6-.88-1.21-1.32-1.82-.3-.62-.59-1.24-.88-1.86-.27.2-.44.41-.51.64-.07.26-.06.52.03.79.1.27.28.54.55.81.02,1.02.31,1.96.87,2.79-.1.08-.2.16-.31.24-.37-.44-.62-.98-.75-1.62-.37-.05-.72-.07-1.04-.06-1.09-.66-2.18-1.33-3.26-2.01-.33-.21-.58-.34-.74-.39-.15-.04-.27-.04-.36,0-.09.04-.15.12-.18.24-.06.23.14.52.6.86.97.7,1.95,1.39,2.93,2.08-.06.23-.12.47-.18.7-1.23-.36-2.46-.72-3.69-1.09-.08-.02-.16-.05-.24-.07-.66-.18-1.04-.09-1.12.26-.04.17-.02.32.07.44.09.12.25.21.49.27.16.04.32.08.48.12,1.26.33,2.52.66,3.79.99-.02.22-.04.45-.05.67-1.24.04-2.48.09-3.73.14-.67.03-1.04.19-1.1.48-.03.15-.02.26.04.35.06.09.17.16.33.2.11.03.33.03.68,0,1.32-.07,2.63-.13,3.95-.18.04.22.08.44.12.66-1.03.37-2.06.75-3.09,1.13-.4.14-.61.3-.65.46-.02.11-.02.2.03.27.04.07.12.12.24.14.15.03.41-.01.78-.14.99-.35,1.99-.69,2.98-1.02.33.12.67.23,1,.35,1.08.08,2.02.02,2.83-.19.34-.18.67-.35,1.01-.52.22.05.44.11.66.16.28-.42.49-.88.62-1.39.11-.42.14-.92.11-1.5-.34-.09-.68-.18-1.01-.27Z"/>
    <path class="cls-1" d="M355.53,422.42c.11.1.21.19.32.29,0,.22-.06.5-.18.85-.06.17-.12.32-.18.45-.06.13-.13.24-.19.33-.14.01-.29.02-.43.03-.29.32-.58.64-.86.96-.22-.03-.44-.07-.66-.1-.12-.02-.39.02-.81.12-.31.08-.75.03-1.32-.16-.66-.22-1.12-.66-1.36-1.32-.24-.67-.22-1.43.07-2.28.29-.85.73-1.47,1.32-1.85.59-.38,1.21-.45,1.87-.21.56.21,1.05.58,1.47,1.11.05.05.13.11.24.18.19.11.39.22.58.32.03.43.07.86.11,1.29ZM352.75,424.6c.47.16.78.01.93-.43.15-.45-.03-.76-.54-.94-.42-.14-.7,0-.85.44-.08.23-.08.43,0,.58.08.15.23.27.45.34ZM353.54,422.22c.47.16.78.02.94-.42.15-.45-.02-.76-.53-.94-.21-.08-.39-.08-.53,0-.14.07-.25.22-.33.44-.16.46-.01.77.44.93ZM353.96,422.96c.12.15.21.29.29.43.09.17.17.27.25.3.08.03.15.02.2-.02.06-.04.1-.1.13-.2.02-.06.02-.13,0-.21.06-.06.1-.11.12-.17.07-.2.02-.32-.14-.38-.07-.02-.19,0-.37.09-.15.07-.32.12-.49.16ZM355.88,421.95c.22.15.44.3.66.46.07.21.15.41.23.62.12.14.2.29.23.45.03.16.01.34-.05.53-.13.38-.37.6-.73.67-.18.12-.37.23-.55.35-.27-.02-.53-.03-.8-.05,0-.1.02-.21.03-.31.08,0,.15-.01.19-.01.3-.03.52-.11.65-.23.13-.12.25-.34.37-.68.13-.38.18-.66.15-.83-.03-.17-.16-.37-.39-.58-.03-.03-.08-.07-.14-.13.05-.09.11-.17.17-.26ZM358.43,424.47c-.06-.4-.12-1.08-.17-2.05,0-.05-.01-.17-.02-.38-.18-.4-.31-.73-.39-.98-.07-.25-.09-.42-.06-.51.04-.11.1-.18.18-.21.08-.03.19-.02.32.03.11.04.27.12.46.23.35-.13.58-.17.71-.12.11.04.18.1.21.18.03.08.03.19-.02.31-.02.06-.09.15-.19.25-.11.1-.25.23-.44.39-.09.51-.07,1.28.05,2.32.1-.09.18-.16.22-.2.27-.25.63-.56,1.07-.91.05-.04.17-.15.36-.31.43-.9.83-1.28,1.18-1.15.22.08.29.39.19.91.19.33.26.57.21.73-.06.18-.36.28-.88.29-.05,0-.13,0-.24,0-.82.52-1.46,1.02-1.95,1.5.14.84.38,1.65.72,2.42.53.27.75.53.67.8-.05.17-.28.31-.66.43-.17.53-.39.74-.66.66-.2-.06-.32-.21-.35-.44-.03-.23,0-.67.12-1.33-.18-.58-.33-1.25-.44-2.02-.71.74-1.19,1.37-1.46,1.9.07.17.11.31.13.44.02.13.02.24-.01.33-.04.14-.1.23-.18.28-.08.05-.17.06-.27.03-.09-.03-.25-.21-.47-.53-.22-.01-.38-.04-.48-.07-.15-.05-.25-.11-.3-.2-.05-.09-.06-.19-.02-.31.04-.12.16-.26.37-.4.21-.15.51-.31.9-.48.4-.54.94-1.16,1.62-1.86Z"/>
    <path class="cls-1" d="M364.16,405.24c-.17.36-.33.72-.5,1.08.33.86.49,1.61.49,2.27-.07.22-.12.37-.16.47-.12.28-.3.56-.53.83,0,.11,0,.22,0,.33-.03.09-.07.18-.1.27-.32.76-.74,1.02-1.26.8-.02,0-.06-.03-.11-.05-.16.27-.34.45-.53.54-.19.09-.4.08-.63-.01-.1-.04-.21-.12-.32-.23-.15.2-.31.33-.48.4-.17.06-.35.05-.54-.03-.14-.06-.25-.14-.32-.25-.08-.11-.12-.24-.14-.4-.06.08-.12.17-.18.25-.4.93-.78,1.87-1.16,2.81-.24.61-.48,1.04-.73,1.3-.25.26-.5.33-.76.23-.3-.12-.46-.35-.46-.69,0-.34.13-.89.42-1.63.4-1.09.82-2.17,1.24-3.25-.05-.15-.09-.29-.14-.44.24-.75.49-1.5.75-2.25.69-.88,1.39-1.62,2.08-2.22.25-.55.5-1.11.76-1.66.66-.02,1.29.11,1.89.4.54.25,1.01.63,1.44,1.12ZM363.67,405.33c-.36-.36-.76-.64-1.17-.84-.44-.21-.92-.33-1.44-.35-.22.47-.43.94-.64,1.41-1.07,1.09-1.76,1.84-2.07,2.24-.23.69-.46,1.37-.69,2.06.17.55.35,1.11.53,1.66.28-.15.48-.37.6-.66.18-.45.16-.98-.08-1.6.45-.37.78-.8,1.01-1.31.02-.05.03-.09.05-.14.11.06.23.12.34.17-.02.06-.04.12-.06.18-.2.47-.5.86-.88,1.19.09.4.12.76.1,1.06.1-.23.2-.47.3-.7-.01-.17,0-.33.02-.48.02-.15.06-.29.12-.42.26-.6.78-.93,1.57-.99,0,.21-.02.42-.02.64.25-.29.66-.48,1.22-.56,0,.19,0,.37,0,.56.35-.19.69-.28,1.03-.28-.01.37-.03.75-.04,1.12.15-.24.24-.4.27-.48.02-.05.05-.14.09-.28-.07-.73-.27-1.45-.61-2.16.16-.34.31-.68.47-1.03ZM357.56,410.82c-.37.97-.74,1.94-1.1,2.91-.41,1.03-.45,1.61-.14,1.73.14.05.3-.06.49-.35.19-.29.41-.75.66-1.39.24-.59.48-1.19.72-1.78-.06.03-.15.07-.26.11-.13-.41-.26-.82-.39-1.23ZM360.89,408.27c-.39.06-.67.29-.84.68-.05.11-.08.24-.09.37-.01.13,0,.27.02.43-.14.33-.28.66-.42,1-.09.21-.13.38-.11.51.01.13.07.22.18.26.15.07.3.04.45-.08.14-.12.28-.33.41-.63.11-.27.22-.55.34-.82.02-.57.05-1.14.08-1.71ZM362.08,408.36c-.33.07-.61.3-.85.7,0,.32-.01.63-.02.94-.16.38-.33.75-.49,1.13.08.13.17.21.25.25.15.06.29.05.42-.05.13-.09.25-.27.35-.52.09-.23.19-.47.28-.7.01-.58.03-1.17.04-1.75ZM363.08,408.61c-.19.05-.4.15-.62.32,0,.4-.01.81-.01,1.21-.11.25-.21.49-.32.74.36.15.64,0,.84-.48.04-.1.08-.2.12-.3,0-.5,0-1,0-1.49Z"/>
  </g>
</svg>