G04 #@! TF.GenerationSoftware,KiCad,Pcbnew,7.0.10*
G04 #@! TF.CreationDate,2024-04-01T20:39:50-05:00*
G04 #@! TF.ProjectId,camera_badge,63616d65-7261-45f6-9261-6467652e6b69,1*
G04 #@! TF.SameCoordinates,Original*
G04 #@! TF.FileFunction,Legend,Bot*
G04 #@! TF.FilePolarity,Positive*
%FSLAX46Y46*%
G04 Gerber Fmt 4.6, Leading zero omitted, Abs format (unit mm)*
G04 Created by KiCad (PCBNEW 7.0.10) date 2024-04-01 20:39:50*
%MOMM*%
%LPD*%
G01*
G04 APERTURE LIST*
%ADD10C,0.150000*%
%ADD11C,0.240000*%
%ADD12C,0.100000*%
%ADD13C,0.120000*%
%ADD14C,0.254000*%
%ADD15C,0.508000*%
%ADD16C,0.250000*%
%ADD17C,0.200000*%
G04 APERTURE END LIST*
D10*
X126127224Y-163167223D02*
G75*
G03*
X88272776Y-163167223I-18927224J0D01*
G01*
X88272776Y-163167223D02*
G75*
G03*
X126127224Y-163167223I18927224J0D01*
G01*
X118750000Y-136750000D02*
X118750000Y-148000000D01*
X95750000Y-136750000D02*
X95750000Y-148000000D01*
X95750000Y-136750000D02*
X118750000Y-136750000D01*
X113463220Y-121488866D02*
X112701316Y-121488866D01*
X112225125Y-121488866D02*
X111463221Y-121488866D01*
X110225125Y-121869819D02*
X110225125Y-120869819D01*
X109748935Y-121203152D02*
X109748935Y-121869819D01*
X109748935Y-121298390D02*
X109701316Y-121250771D01*
X109701316Y-121250771D02*
X109606078Y-121203152D01*
X109606078Y-121203152D02*
X109463221Y-121203152D01*
X109463221Y-121203152D02*
X109367983Y-121250771D01*
X109367983Y-121250771D02*
X109320364Y-121346009D01*
X109320364Y-121346009D02*
X109320364Y-121869819D01*
X108891792Y-121822200D02*
X108796554Y-121869819D01*
X108796554Y-121869819D02*
X108606078Y-121869819D01*
X108606078Y-121869819D02*
X108510840Y-121822200D01*
X108510840Y-121822200D02*
X108463221Y-121726961D01*
X108463221Y-121726961D02*
X108463221Y-121679342D01*
X108463221Y-121679342D02*
X108510840Y-121584104D01*
X108510840Y-121584104D02*
X108606078Y-121536485D01*
X108606078Y-121536485D02*
X108748935Y-121536485D01*
X108748935Y-121536485D02*
X108844173Y-121488866D01*
X108844173Y-121488866D02*
X108891792Y-121393628D01*
X108891792Y-121393628D02*
X108891792Y-121346009D01*
X108891792Y-121346009D02*
X108844173Y-121250771D01*
X108844173Y-121250771D02*
X108748935Y-121203152D01*
X108748935Y-121203152D02*
X108606078Y-121203152D01*
X108606078Y-121203152D02*
X108510840Y-121250771D01*
X108034649Y-121869819D02*
X108034649Y-121203152D01*
X108034649Y-120869819D02*
X108082268Y-120917438D01*
X108082268Y-120917438D02*
X108034649Y-120965057D01*
X108034649Y-120965057D02*
X107987030Y-120917438D01*
X107987030Y-120917438D02*
X108034649Y-120869819D01*
X108034649Y-120869819D02*
X108034649Y-120965057D01*
X107129888Y-121869819D02*
X107129888Y-120869819D01*
X107129888Y-121822200D02*
X107225126Y-121869819D01*
X107225126Y-121869819D02*
X107415602Y-121869819D01*
X107415602Y-121869819D02*
X107510840Y-121822200D01*
X107510840Y-121822200D02*
X107558459Y-121774580D01*
X107558459Y-121774580D02*
X107606078Y-121679342D01*
X107606078Y-121679342D02*
X107606078Y-121393628D01*
X107606078Y-121393628D02*
X107558459Y-121298390D01*
X107558459Y-121298390D02*
X107510840Y-121250771D01*
X107510840Y-121250771D02*
X107415602Y-121203152D01*
X107415602Y-121203152D02*
X107225126Y-121203152D01*
X107225126Y-121203152D02*
X107129888Y-121250771D01*
X106272745Y-121822200D02*
X106367983Y-121869819D01*
X106367983Y-121869819D02*
X106558459Y-121869819D01*
X106558459Y-121869819D02*
X106653697Y-121822200D01*
X106653697Y-121822200D02*
X106701316Y-121726961D01*
X106701316Y-121726961D02*
X106701316Y-121346009D01*
X106701316Y-121346009D02*
X106653697Y-121250771D01*
X106653697Y-121250771D02*
X106558459Y-121203152D01*
X106558459Y-121203152D02*
X106367983Y-121203152D01*
X106367983Y-121203152D02*
X106272745Y-121250771D01*
X106272745Y-121250771D02*
X106225126Y-121346009D01*
X106225126Y-121346009D02*
X106225126Y-121441247D01*
X106225126Y-121441247D02*
X106701316Y-121536485D01*
X105034649Y-121488866D02*
X104272745Y-121488866D01*
X103796554Y-121488866D02*
X103034650Y-121488866D01*
D11*
X94272179Y-127959337D02*
X94500751Y-127959337D01*
X94500751Y-127959337D02*
X94615036Y-127902194D01*
X94615036Y-127902194D02*
X94729322Y-127787908D01*
X94729322Y-127787908D02*
X94786465Y-127559337D01*
X94786465Y-127559337D02*
X94786465Y-127159337D01*
X94786465Y-127159337D02*
X94729322Y-126930765D01*
X94729322Y-126930765D02*
X94615036Y-126816480D01*
X94615036Y-126816480D02*
X94500751Y-126759337D01*
X94500751Y-126759337D02*
X94272179Y-126759337D01*
X94272179Y-126759337D02*
X94157894Y-126816480D01*
X94157894Y-126816480D02*
X94043608Y-126930765D01*
X94043608Y-126930765D02*
X93986465Y-127159337D01*
X93986465Y-127159337D02*
X93986465Y-127559337D01*
X93986465Y-127559337D02*
X94043608Y-127787908D01*
X94043608Y-127787908D02*
X94157894Y-127902194D01*
X94157894Y-127902194D02*
X94272179Y-127959337D01*
X95300751Y-126759337D02*
X95300751Y-127959337D01*
X95300751Y-127959337D02*
X95986465Y-126759337D01*
X95986465Y-126759337D02*
X95986465Y-127959337D01*
X97472180Y-127216480D02*
X98386466Y-127216480D01*
X100100751Y-127959337D02*
X100329323Y-127959337D01*
X100329323Y-127959337D02*
X100443608Y-127902194D01*
X100443608Y-127902194D02*
X100557894Y-127787908D01*
X100557894Y-127787908D02*
X100615037Y-127559337D01*
X100615037Y-127559337D02*
X100615037Y-127159337D01*
X100615037Y-127159337D02*
X100557894Y-126930765D01*
X100557894Y-126930765D02*
X100443608Y-126816480D01*
X100443608Y-126816480D02*
X100329323Y-126759337D01*
X100329323Y-126759337D02*
X100100751Y-126759337D01*
X100100751Y-126759337D02*
X99986466Y-126816480D01*
X99986466Y-126816480D02*
X99872180Y-126930765D01*
X99872180Y-126930765D02*
X99815037Y-127159337D01*
X99815037Y-127159337D02*
X99815037Y-127559337D01*
X99815037Y-127559337D02*
X99872180Y-127787908D01*
X99872180Y-127787908D02*
X99986466Y-127902194D01*
X99986466Y-127902194D02*
X100100751Y-127959337D01*
X101529323Y-127387908D02*
X101129323Y-127387908D01*
X101129323Y-126759337D02*
X101129323Y-127959337D01*
X101129323Y-127959337D02*
X101700751Y-127959337D01*
X102557894Y-127387908D02*
X102157894Y-127387908D01*
X102157894Y-126759337D02*
X102157894Y-127959337D01*
X102157894Y-127959337D02*
X102729322Y-127959337D01*
D10*
X102986779Y-125961133D02*
X103748684Y-125961133D01*
X104224874Y-125961133D02*
X104986779Y-125961133D01*
X106224874Y-125580180D02*
X106224874Y-126580180D01*
X106701064Y-126246847D02*
X106701064Y-125580180D01*
X106701064Y-126151609D02*
X106748683Y-126199228D01*
X106748683Y-126199228D02*
X106843921Y-126246847D01*
X106843921Y-126246847D02*
X106986778Y-126246847D01*
X106986778Y-126246847D02*
X107082016Y-126199228D01*
X107082016Y-126199228D02*
X107129635Y-126103990D01*
X107129635Y-126103990D02*
X107129635Y-125580180D01*
X107558207Y-125627800D02*
X107653445Y-125580180D01*
X107653445Y-125580180D02*
X107843921Y-125580180D01*
X107843921Y-125580180D02*
X107939159Y-125627800D01*
X107939159Y-125627800D02*
X107986778Y-125723038D01*
X107986778Y-125723038D02*
X107986778Y-125770657D01*
X107986778Y-125770657D02*
X107939159Y-125865895D01*
X107939159Y-125865895D02*
X107843921Y-125913514D01*
X107843921Y-125913514D02*
X107701064Y-125913514D01*
X107701064Y-125913514D02*
X107605826Y-125961133D01*
X107605826Y-125961133D02*
X107558207Y-126056371D01*
X107558207Y-126056371D02*
X107558207Y-126103990D01*
X107558207Y-126103990D02*
X107605826Y-126199228D01*
X107605826Y-126199228D02*
X107701064Y-126246847D01*
X107701064Y-126246847D02*
X107843921Y-126246847D01*
X107843921Y-126246847D02*
X107939159Y-126199228D01*
X108415350Y-125580180D02*
X108415350Y-126246847D01*
X108415350Y-126580180D02*
X108367731Y-126532561D01*
X108367731Y-126532561D02*
X108415350Y-126484942D01*
X108415350Y-126484942D02*
X108462969Y-126532561D01*
X108462969Y-126532561D02*
X108415350Y-126580180D01*
X108415350Y-126580180D02*
X108415350Y-126484942D01*
X109320111Y-125580180D02*
X109320111Y-126580180D01*
X109320111Y-125627800D02*
X109224873Y-125580180D01*
X109224873Y-125580180D02*
X109034397Y-125580180D01*
X109034397Y-125580180D02*
X108939159Y-125627800D01*
X108939159Y-125627800D02*
X108891540Y-125675419D01*
X108891540Y-125675419D02*
X108843921Y-125770657D01*
X108843921Y-125770657D02*
X108843921Y-126056371D01*
X108843921Y-126056371D02*
X108891540Y-126151609D01*
X108891540Y-126151609D02*
X108939159Y-126199228D01*
X108939159Y-126199228D02*
X109034397Y-126246847D01*
X109034397Y-126246847D02*
X109224873Y-126246847D01*
X109224873Y-126246847D02*
X109320111Y-126199228D01*
X110177254Y-125627800D02*
X110082016Y-125580180D01*
X110082016Y-125580180D02*
X109891540Y-125580180D01*
X109891540Y-125580180D02*
X109796302Y-125627800D01*
X109796302Y-125627800D02*
X109748683Y-125723038D01*
X109748683Y-125723038D02*
X109748683Y-126103990D01*
X109748683Y-126103990D02*
X109796302Y-126199228D01*
X109796302Y-126199228D02*
X109891540Y-126246847D01*
X109891540Y-126246847D02*
X110082016Y-126246847D01*
X110082016Y-126246847D02*
X110177254Y-126199228D01*
X110177254Y-126199228D02*
X110224873Y-126103990D01*
X110224873Y-126103990D02*
X110224873Y-126008752D01*
X110224873Y-126008752D02*
X109748683Y-125913514D01*
X111415350Y-125961133D02*
X112177255Y-125961133D01*
X112653445Y-125961133D02*
X113415350Y-125961133D01*
X46662295Y-138666667D02*
X46281342Y-138400000D01*
X46662295Y-138209524D02*
X45862295Y-138209524D01*
X45862295Y-138209524D02*
X45862295Y-138514286D01*
X45862295Y-138514286D02*
X45900390Y-138590476D01*
X45900390Y-138590476D02*
X45938485Y-138628571D01*
X45938485Y-138628571D02*
X46014676Y-138666667D01*
X46014676Y-138666667D02*
X46128961Y-138666667D01*
X46128961Y-138666667D02*
X46205152Y-138628571D01*
X46205152Y-138628571D02*
X46243247Y-138590476D01*
X46243247Y-138590476D02*
X46281342Y-138514286D01*
X46281342Y-138514286D02*
X46281342Y-138209524D01*
X45862295Y-138933333D02*
X45862295Y-139428571D01*
X45862295Y-139428571D02*
X46167057Y-139161905D01*
X46167057Y-139161905D02*
X46167057Y-139276190D01*
X46167057Y-139276190D02*
X46205152Y-139352381D01*
X46205152Y-139352381D02*
X46243247Y-139390476D01*
X46243247Y-139390476D02*
X46319438Y-139428571D01*
X46319438Y-139428571D02*
X46509914Y-139428571D01*
X46509914Y-139428571D02*
X46586104Y-139390476D01*
X46586104Y-139390476D02*
X46624200Y-139352381D01*
X46624200Y-139352381D02*
X46662295Y-139276190D01*
X46662295Y-139276190D02*
X46662295Y-139047619D01*
X46662295Y-139047619D02*
X46624200Y-138971428D01*
X46624200Y-138971428D02*
X46586104Y-138933333D01*
D11*
X148500000Y-138707337D02*
X148500000Y-137850194D01*
X148500000Y-137850194D02*
X148442857Y-137678765D01*
X148442857Y-137678765D02*
X148328571Y-137564480D01*
X148328571Y-137564480D02*
X148157143Y-137507337D01*
X148157143Y-137507337D02*
X148042857Y-137507337D01*
X148957143Y-138707337D02*
X149757143Y-138707337D01*
X149757143Y-138707337D02*
X149242857Y-137507337D01*
D10*
X115359819Y-44141666D02*
X116074104Y-44141666D01*
X116074104Y-44141666D02*
X116216961Y-44094047D01*
X116216961Y-44094047D02*
X116312200Y-43998809D01*
X116312200Y-43998809D02*
X116359819Y-43855952D01*
X116359819Y-43855952D02*
X116359819Y-43760714D01*
X115693152Y-45046428D02*
X116359819Y-45046428D01*
X115312200Y-44808333D02*
X116026485Y-44570238D01*
X116026485Y-44570238D02*
X116026485Y-45189285D01*
X131359580Y-190107142D02*
X131407200Y-190059523D01*
X131407200Y-190059523D02*
X131454819Y-189916666D01*
X131454819Y-189916666D02*
X131454819Y-189821428D01*
X131454819Y-189821428D02*
X131407200Y-189678571D01*
X131407200Y-189678571D02*
X131311961Y-189583333D01*
X131311961Y-189583333D02*
X131216723Y-189535714D01*
X131216723Y-189535714D02*
X131026247Y-189488095D01*
X131026247Y-189488095D02*
X130883390Y-189488095D01*
X130883390Y-189488095D02*
X130692914Y-189535714D01*
X130692914Y-189535714D02*
X130597676Y-189583333D01*
X130597676Y-189583333D02*
X130502438Y-189678571D01*
X130502438Y-189678571D02*
X130454819Y-189821428D01*
X130454819Y-189821428D02*
X130454819Y-189916666D01*
X130454819Y-189916666D02*
X130502438Y-190059523D01*
X130502438Y-190059523D02*
X130550057Y-190107142D01*
X130550057Y-190488095D02*
X130502438Y-190535714D01*
X130502438Y-190535714D02*
X130454819Y-190630952D01*
X130454819Y-190630952D02*
X130454819Y-190869047D01*
X130454819Y-190869047D02*
X130502438Y-190964285D01*
X130502438Y-190964285D02*
X130550057Y-191011904D01*
X130550057Y-191011904D02*
X130645295Y-191059523D01*
X130645295Y-191059523D02*
X130740533Y-191059523D01*
X130740533Y-191059523D02*
X130883390Y-191011904D01*
X130883390Y-191011904D02*
X131454819Y-190440476D01*
X131454819Y-190440476D02*
X131454819Y-191059523D01*
X130454819Y-191678571D02*
X130454819Y-191773809D01*
X130454819Y-191773809D02*
X130502438Y-191869047D01*
X130502438Y-191869047D02*
X130550057Y-191916666D01*
X130550057Y-191916666D02*
X130645295Y-191964285D01*
X130645295Y-191964285D02*
X130835771Y-192011904D01*
X130835771Y-192011904D02*
X131073866Y-192011904D01*
X131073866Y-192011904D02*
X131264342Y-191964285D01*
X131264342Y-191964285D02*
X131359580Y-191916666D01*
X131359580Y-191916666D02*
X131407200Y-191869047D01*
X131407200Y-191869047D02*
X131454819Y-191773809D01*
X131454819Y-191773809D02*
X131454819Y-191678571D01*
X131454819Y-191678571D02*
X131407200Y-191583333D01*
X131407200Y-191583333D02*
X131359580Y-191535714D01*
X131359580Y-191535714D02*
X131264342Y-191488095D01*
X131264342Y-191488095D02*
X131073866Y-191440476D01*
X131073866Y-191440476D02*
X130835771Y-191440476D01*
X130835771Y-191440476D02*
X130645295Y-191488095D01*
X130645295Y-191488095D02*
X130550057Y-191535714D01*
X130550057Y-191535714D02*
X130502438Y-191583333D01*
X130502438Y-191583333D02*
X130454819Y-191678571D01*
D11*
X158000000Y-175957337D02*
X158000000Y-175100194D01*
X158000000Y-175100194D02*
X157942857Y-174928765D01*
X157942857Y-174928765D02*
X157828571Y-174814480D01*
X157828571Y-174814480D02*
X157657143Y-174757337D01*
X157657143Y-174757337D02*
X157542857Y-174757337D01*
X158457143Y-175957337D02*
X159200000Y-175957337D01*
X159200000Y-175957337D02*
X158800000Y-175500194D01*
X158800000Y-175500194D02*
X158971429Y-175500194D01*
X158971429Y-175500194D02*
X159085715Y-175443051D01*
X159085715Y-175443051D02*
X159142857Y-175385908D01*
X159142857Y-175385908D02*
X159200000Y-175271622D01*
X159200000Y-175271622D02*
X159200000Y-174985908D01*
X159200000Y-174985908D02*
X159142857Y-174871622D01*
X159142857Y-174871622D02*
X159085715Y-174814480D01*
X159085715Y-174814480D02*
X158971429Y-174757337D01*
X158971429Y-174757337D02*
X158628572Y-174757337D01*
X158628572Y-174757337D02*
X158514286Y-174814480D01*
X158514286Y-174814480D02*
X158457143Y-174871622D01*
D10*
X84612295Y-194126667D02*
X84231342Y-193860000D01*
X84612295Y-193669524D02*
X83812295Y-193669524D01*
X83812295Y-193669524D02*
X83812295Y-193974286D01*
X83812295Y-193974286D02*
X83850390Y-194050476D01*
X83850390Y-194050476D02*
X83888485Y-194088571D01*
X83888485Y-194088571D02*
X83964676Y-194126667D01*
X83964676Y-194126667D02*
X84078961Y-194126667D01*
X84078961Y-194126667D02*
X84155152Y-194088571D01*
X84155152Y-194088571D02*
X84193247Y-194050476D01*
X84193247Y-194050476D02*
X84231342Y-193974286D01*
X84231342Y-193974286D02*
X84231342Y-193669524D01*
X83888485Y-194431428D02*
X83850390Y-194469524D01*
X83850390Y-194469524D02*
X83812295Y-194545714D01*
X83812295Y-194545714D02*
X83812295Y-194736190D01*
X83812295Y-194736190D02*
X83850390Y-194812381D01*
X83850390Y-194812381D02*
X83888485Y-194850476D01*
X83888485Y-194850476D02*
X83964676Y-194888571D01*
X83964676Y-194888571D02*
X84040866Y-194888571D01*
X84040866Y-194888571D02*
X84155152Y-194850476D01*
X84155152Y-194850476D02*
X84612295Y-194393333D01*
X84612295Y-194393333D02*
X84612295Y-194888571D01*
X158662295Y-147356667D02*
X158281342Y-147090000D01*
X158662295Y-146899524D02*
X157862295Y-146899524D01*
X157862295Y-146899524D02*
X157862295Y-147204286D01*
X157862295Y-147204286D02*
X157900390Y-147280476D01*
X157900390Y-147280476D02*
X157938485Y-147318571D01*
X157938485Y-147318571D02*
X158014676Y-147356667D01*
X158014676Y-147356667D02*
X158128961Y-147356667D01*
X158128961Y-147356667D02*
X158205152Y-147318571D01*
X158205152Y-147318571D02*
X158243247Y-147280476D01*
X158243247Y-147280476D02*
X158281342Y-147204286D01*
X158281342Y-147204286D02*
X158281342Y-146899524D01*
X157862295Y-148042381D02*
X157862295Y-147890000D01*
X157862295Y-147890000D02*
X157900390Y-147813809D01*
X157900390Y-147813809D02*
X157938485Y-147775714D01*
X157938485Y-147775714D02*
X158052771Y-147699524D01*
X158052771Y-147699524D02*
X158205152Y-147661428D01*
X158205152Y-147661428D02*
X158509914Y-147661428D01*
X158509914Y-147661428D02*
X158586104Y-147699524D01*
X158586104Y-147699524D02*
X158624200Y-147737619D01*
X158624200Y-147737619D02*
X158662295Y-147813809D01*
X158662295Y-147813809D02*
X158662295Y-147966190D01*
X158662295Y-147966190D02*
X158624200Y-148042381D01*
X158624200Y-148042381D02*
X158586104Y-148080476D01*
X158586104Y-148080476D02*
X158509914Y-148118571D01*
X158509914Y-148118571D02*
X158319438Y-148118571D01*
X158319438Y-148118571D02*
X158243247Y-148080476D01*
X158243247Y-148080476D02*
X158205152Y-148042381D01*
X158205152Y-148042381D02*
X158167057Y-147966190D01*
X158167057Y-147966190D02*
X158167057Y-147813809D01*
X158167057Y-147813809D02*
X158205152Y-147737619D01*
X158205152Y-147737619D02*
X158243247Y-147699524D01*
X158243247Y-147699524D02*
X158319438Y-147661428D01*
D11*
X59185714Y-189557337D02*
X59185714Y-188585908D01*
X59185714Y-188585908D02*
X59242857Y-188471622D01*
X59242857Y-188471622D02*
X59300000Y-188414480D01*
X59300000Y-188414480D02*
X59414285Y-188357337D01*
X59414285Y-188357337D02*
X59642857Y-188357337D01*
X59642857Y-188357337D02*
X59757142Y-188414480D01*
X59757142Y-188414480D02*
X59814285Y-188471622D01*
X59814285Y-188471622D02*
X59871428Y-188585908D01*
X59871428Y-188585908D02*
X59871428Y-189557337D01*
X61071428Y-188357337D02*
X60385714Y-188357337D01*
X60728571Y-188357337D02*
X60728571Y-189557337D01*
X60728571Y-189557337D02*
X60614285Y-189385908D01*
X60614285Y-189385908D02*
X60500000Y-189271622D01*
X60500000Y-189271622D02*
X60385714Y-189214480D01*
D10*
X53786639Y-151342282D02*
X53215211Y-151342282D01*
X53500925Y-151342282D02*
X53500925Y-152342282D01*
X53500925Y-152342282D02*
X53405687Y-152199425D01*
X53405687Y-152199425D02*
X53310449Y-152104187D01*
X53310449Y-152104187D02*
X53215211Y-152056568D01*
X54167592Y-152247044D02*
X54215211Y-152294663D01*
X54215211Y-152294663D02*
X54310449Y-152342282D01*
X54310449Y-152342282D02*
X54548544Y-152342282D01*
X54548544Y-152342282D02*
X54643782Y-152294663D01*
X54643782Y-152294663D02*
X54691401Y-152247044D01*
X54691401Y-152247044D02*
X54739020Y-152151806D01*
X54739020Y-152151806D02*
X54739020Y-152056568D01*
X54739020Y-152056568D02*
X54691401Y-151913711D01*
X54691401Y-151913711D02*
X54119973Y-151342282D01*
X54119973Y-151342282D02*
X54739020Y-151342282D01*
X62489271Y-136492184D02*
X61727367Y-136492184D01*
X83486639Y-148746231D02*
X82915211Y-148746231D01*
X83200925Y-148746231D02*
X83200925Y-149746231D01*
X83200925Y-149746231D02*
X83105687Y-149603374D01*
X83105687Y-149603374D02*
X83010449Y-149508136D01*
X83010449Y-149508136D02*
X82915211Y-149460517D01*
X83819973Y-149746231D02*
X84439020Y-149746231D01*
X84439020Y-149746231D02*
X84105687Y-149365279D01*
X84105687Y-149365279D02*
X84248544Y-149365279D01*
X84248544Y-149365279D02*
X84343782Y-149317660D01*
X84343782Y-149317660D02*
X84391401Y-149270041D01*
X84391401Y-149270041D02*
X84439020Y-149174803D01*
X84439020Y-149174803D02*
X84439020Y-148936708D01*
X84439020Y-148936708D02*
X84391401Y-148841470D01*
X84391401Y-148841470D02*
X84343782Y-148793851D01*
X84343782Y-148793851D02*
X84248544Y-148746231D01*
X84248544Y-148746231D02*
X83962830Y-148746231D01*
X83962830Y-148746231D02*
X83867592Y-148793851D01*
X83867592Y-148793851D02*
X83819973Y-148841470D01*
X83439020Y-167546231D02*
X82962830Y-167546231D01*
X82962830Y-167546231D02*
X82915211Y-167070041D01*
X82915211Y-167070041D02*
X82962830Y-167117660D01*
X82962830Y-167117660D02*
X83058068Y-167165279D01*
X83058068Y-167165279D02*
X83296163Y-167165279D01*
X83296163Y-167165279D02*
X83391401Y-167117660D01*
X83391401Y-167117660D02*
X83439020Y-167070041D01*
X83439020Y-167070041D02*
X83486639Y-166974803D01*
X83486639Y-166974803D02*
X83486639Y-166736708D01*
X83486639Y-166736708D02*
X83439020Y-166641470D01*
X83439020Y-166641470D02*
X83391401Y-166593851D01*
X83391401Y-166593851D02*
X83296163Y-166546231D01*
X83296163Y-166546231D02*
X83058068Y-166546231D01*
X83058068Y-166546231D02*
X82962830Y-166593851D01*
X82962830Y-166593851D02*
X82915211Y-166641470D01*
X53167592Y-172642282D02*
X53786639Y-172642282D01*
X53786639Y-172642282D02*
X53453306Y-172261330D01*
X53453306Y-172261330D02*
X53596163Y-172261330D01*
X53596163Y-172261330D02*
X53691401Y-172213711D01*
X53691401Y-172213711D02*
X53739020Y-172166092D01*
X53739020Y-172166092D02*
X53786639Y-172070854D01*
X53786639Y-172070854D02*
X53786639Y-171832759D01*
X53786639Y-171832759D02*
X53739020Y-171737521D01*
X53739020Y-171737521D02*
X53691401Y-171689902D01*
X53691401Y-171689902D02*
X53596163Y-171642282D01*
X53596163Y-171642282D02*
X53310449Y-171642282D01*
X53310449Y-171642282D02*
X53215211Y-171689902D01*
X53215211Y-171689902D02*
X53167592Y-171737521D01*
X54643782Y-172308949D02*
X54643782Y-171642282D01*
X54405687Y-172689902D02*
X54167592Y-171975616D01*
X54167592Y-171975616D02*
X54786639Y-171975616D01*
X83486639Y-174246231D02*
X82915211Y-174246231D01*
X83200925Y-174246231D02*
X83200925Y-175246231D01*
X83200925Y-175246231D02*
X83105687Y-175103374D01*
X83105687Y-175103374D02*
X83010449Y-175008136D01*
X83010449Y-175008136D02*
X82915211Y-174960517D01*
X83962830Y-174246231D02*
X84153306Y-174246231D01*
X84153306Y-174246231D02*
X84248544Y-174293851D01*
X84248544Y-174293851D02*
X84296163Y-174341470D01*
X84296163Y-174341470D02*
X84391401Y-174484327D01*
X84391401Y-174484327D02*
X84439020Y-174674803D01*
X84439020Y-174674803D02*
X84439020Y-175055755D01*
X84439020Y-175055755D02*
X84391401Y-175150993D01*
X84391401Y-175150993D02*
X84343782Y-175198612D01*
X84343782Y-175198612D02*
X84248544Y-175246231D01*
X84248544Y-175246231D02*
X84058068Y-175246231D01*
X84058068Y-175246231D02*
X83962830Y-175198612D01*
X83962830Y-175198612D02*
X83915211Y-175150993D01*
X83915211Y-175150993D02*
X83867592Y-175055755D01*
X83867592Y-175055755D02*
X83867592Y-174817660D01*
X83867592Y-174817660D02*
X83915211Y-174722422D01*
X83915211Y-174722422D02*
X83962830Y-174674803D01*
X83962830Y-174674803D02*
X84058068Y-174627184D01*
X84058068Y-174627184D02*
X84248544Y-174627184D01*
X84248544Y-174627184D02*
X84343782Y-174674803D01*
X84343782Y-174674803D02*
X84391401Y-174722422D01*
X84391401Y-174722422D02*
X84439020Y-174817660D01*
X53215211Y-159847044D02*
X53262830Y-159894663D01*
X53262830Y-159894663D02*
X53358068Y-159942282D01*
X53358068Y-159942282D02*
X53596163Y-159942282D01*
X53596163Y-159942282D02*
X53691401Y-159894663D01*
X53691401Y-159894663D02*
X53739020Y-159847044D01*
X53739020Y-159847044D02*
X53786639Y-159751806D01*
X53786639Y-159751806D02*
X53786639Y-159656568D01*
X53786639Y-159656568D02*
X53739020Y-159513711D01*
X53739020Y-159513711D02*
X53167592Y-158942282D01*
X53167592Y-158942282D02*
X53786639Y-158942282D01*
X54643782Y-159942282D02*
X54453306Y-159942282D01*
X54453306Y-159942282D02*
X54358068Y-159894663D01*
X54358068Y-159894663D02*
X54310449Y-159847044D01*
X54310449Y-159847044D02*
X54215211Y-159704187D01*
X54215211Y-159704187D02*
X54167592Y-159513711D01*
X54167592Y-159513711D02*
X54167592Y-159132759D01*
X54167592Y-159132759D02*
X54215211Y-159037521D01*
X54215211Y-159037521D02*
X54262830Y-158989902D01*
X54262830Y-158989902D02*
X54358068Y-158942282D01*
X54358068Y-158942282D02*
X54548544Y-158942282D01*
X54548544Y-158942282D02*
X54643782Y-158989902D01*
X54643782Y-158989902D02*
X54691401Y-159037521D01*
X54691401Y-159037521D02*
X54739020Y-159132759D01*
X54739020Y-159132759D02*
X54739020Y-159370854D01*
X54739020Y-159370854D02*
X54691401Y-159466092D01*
X54691401Y-159466092D02*
X54643782Y-159513711D01*
X54643782Y-159513711D02*
X54548544Y-159561330D01*
X54548544Y-159561330D02*
X54358068Y-159561330D01*
X54358068Y-159561330D02*
X54262830Y-159513711D01*
X54262830Y-159513711D02*
X54215211Y-159466092D01*
X54215211Y-159466092D02*
X54167592Y-159370854D01*
X53262830Y-174666092D02*
X53596163Y-174666092D01*
X53739020Y-174142282D02*
X53262830Y-174142282D01*
X53262830Y-174142282D02*
X53262830Y-175142282D01*
X53262830Y-175142282D02*
X53739020Y-175142282D01*
X54167592Y-174142282D02*
X54167592Y-175142282D01*
X54167592Y-175142282D02*
X54739020Y-174142282D01*
X54739020Y-174142282D02*
X54739020Y-175142282D01*
X53215211Y-162347044D02*
X53262830Y-162394663D01*
X53262830Y-162394663D02*
X53358068Y-162442282D01*
X53358068Y-162442282D02*
X53596163Y-162442282D01*
X53596163Y-162442282D02*
X53691401Y-162394663D01*
X53691401Y-162394663D02*
X53739020Y-162347044D01*
X53739020Y-162347044D02*
X53786639Y-162251806D01*
X53786639Y-162251806D02*
X53786639Y-162156568D01*
X53786639Y-162156568D02*
X53739020Y-162013711D01*
X53739020Y-162013711D02*
X53167592Y-161442282D01*
X53167592Y-161442282D02*
X53786639Y-161442282D01*
X54691401Y-162442282D02*
X54215211Y-162442282D01*
X54215211Y-162442282D02*
X54167592Y-161966092D01*
X54167592Y-161966092D02*
X54215211Y-162013711D01*
X54215211Y-162013711D02*
X54310449Y-162061330D01*
X54310449Y-162061330D02*
X54548544Y-162061330D01*
X54548544Y-162061330D02*
X54643782Y-162013711D01*
X54643782Y-162013711D02*
X54691401Y-161966092D01*
X54691401Y-161966092D02*
X54739020Y-161870854D01*
X54739020Y-161870854D02*
X54739020Y-161632759D01*
X54739020Y-161632759D02*
X54691401Y-161537521D01*
X54691401Y-161537521D02*
X54643782Y-161489902D01*
X54643782Y-161489902D02*
X54548544Y-161442282D01*
X54548544Y-161442282D02*
X54310449Y-161442282D01*
X54310449Y-161442282D02*
X54215211Y-161489902D01*
X54215211Y-161489902D02*
X54167592Y-161537521D01*
X82915211Y-172450993D02*
X82962830Y-172498612D01*
X82962830Y-172498612D02*
X83058068Y-172546231D01*
X83058068Y-172546231D02*
X83296163Y-172546231D01*
X83296163Y-172546231D02*
X83391401Y-172498612D01*
X83391401Y-172498612D02*
X83439020Y-172450993D01*
X83439020Y-172450993D02*
X83486639Y-172355755D01*
X83486639Y-172355755D02*
X83486639Y-172260517D01*
X83486639Y-172260517D02*
X83439020Y-172117660D01*
X83439020Y-172117660D02*
X82867592Y-171546231D01*
X82867592Y-171546231D02*
X83486639Y-171546231D01*
X83819973Y-172546231D02*
X84439020Y-172546231D01*
X84439020Y-172546231D02*
X84105687Y-172165279D01*
X84105687Y-172165279D02*
X84248544Y-172165279D01*
X84248544Y-172165279D02*
X84343782Y-172117660D01*
X84343782Y-172117660D02*
X84391401Y-172070041D01*
X84391401Y-172070041D02*
X84439020Y-171974803D01*
X84439020Y-171974803D02*
X84439020Y-171736708D01*
X84439020Y-171736708D02*
X84391401Y-171641470D01*
X84391401Y-171641470D02*
X84343782Y-171593851D01*
X84343782Y-171593851D02*
X84248544Y-171546231D01*
X84248544Y-171546231D02*
X83962830Y-171546231D01*
X83962830Y-171546231D02*
X83867592Y-171593851D01*
X83867592Y-171593851D02*
X83819973Y-171641470D01*
X83391401Y-159712898D02*
X83391401Y-159046231D01*
X83153306Y-160093851D02*
X82915211Y-159379565D01*
X82915211Y-159379565D02*
X83534258Y-159379565D01*
X83486639Y-164146231D02*
X82915211Y-164146231D01*
X83200925Y-164146231D02*
X83200925Y-165146231D01*
X83200925Y-165146231D02*
X83105687Y-165003374D01*
X83105687Y-165003374D02*
X83010449Y-164908136D01*
X83010449Y-164908136D02*
X82915211Y-164860517D01*
X83819973Y-165146231D02*
X84486639Y-165146231D01*
X84486639Y-165146231D02*
X84058068Y-164146231D01*
X53167592Y-164942282D02*
X53786639Y-164942282D01*
X53786639Y-164942282D02*
X53453306Y-164561330D01*
X53453306Y-164561330D02*
X53596163Y-164561330D01*
X53596163Y-164561330D02*
X53691401Y-164513711D01*
X53691401Y-164513711D02*
X53739020Y-164466092D01*
X53739020Y-164466092D02*
X53786639Y-164370854D01*
X53786639Y-164370854D02*
X53786639Y-164132759D01*
X53786639Y-164132759D02*
X53739020Y-164037521D01*
X53739020Y-164037521D02*
X53691401Y-163989902D01*
X53691401Y-163989902D02*
X53596163Y-163942282D01*
X53596163Y-163942282D02*
X53310449Y-163942282D01*
X53310449Y-163942282D02*
X53215211Y-163989902D01*
X53215211Y-163989902D02*
X53167592Y-164037521D01*
X54119973Y-164942282D02*
X54739020Y-164942282D01*
X54739020Y-164942282D02*
X54405687Y-164561330D01*
X54405687Y-164561330D02*
X54548544Y-164561330D01*
X54548544Y-164561330D02*
X54643782Y-164513711D01*
X54643782Y-164513711D02*
X54691401Y-164466092D01*
X54691401Y-164466092D02*
X54739020Y-164370854D01*
X54739020Y-164370854D02*
X54739020Y-164132759D01*
X54739020Y-164132759D02*
X54691401Y-164037521D01*
X54691401Y-164037521D02*
X54643782Y-163989902D01*
X54643782Y-163989902D02*
X54548544Y-163942282D01*
X54548544Y-163942282D02*
X54262830Y-163942282D01*
X54262830Y-163942282D02*
X54167592Y-163989902D01*
X54167592Y-163989902D02*
X54119973Y-164037521D01*
X58353696Y-146568990D02*
X58687029Y-146568990D01*
X58829886Y-146045180D02*
X58353696Y-146045180D01*
X58353696Y-146045180D02*
X58353696Y-147045180D01*
X58353696Y-147045180D02*
X58829886Y-147045180D01*
X59210839Y-146092800D02*
X59353696Y-146045180D01*
X59353696Y-146045180D02*
X59591791Y-146045180D01*
X59591791Y-146045180D02*
X59687029Y-146092800D01*
X59687029Y-146092800D02*
X59734648Y-146140419D01*
X59734648Y-146140419D02*
X59782267Y-146235657D01*
X59782267Y-146235657D02*
X59782267Y-146330895D01*
X59782267Y-146330895D02*
X59734648Y-146426133D01*
X59734648Y-146426133D02*
X59687029Y-146473752D01*
X59687029Y-146473752D02*
X59591791Y-146521371D01*
X59591791Y-146521371D02*
X59401315Y-146568990D01*
X59401315Y-146568990D02*
X59306077Y-146616609D01*
X59306077Y-146616609D02*
X59258458Y-146664228D01*
X59258458Y-146664228D02*
X59210839Y-146759466D01*
X59210839Y-146759466D02*
X59210839Y-146854704D01*
X59210839Y-146854704D02*
X59258458Y-146949942D01*
X59258458Y-146949942D02*
X59306077Y-146997561D01*
X59306077Y-146997561D02*
X59401315Y-147045180D01*
X59401315Y-147045180D02*
X59639410Y-147045180D01*
X59639410Y-147045180D02*
X59782267Y-146997561D01*
X60210839Y-146045180D02*
X60210839Y-147045180D01*
X60210839Y-147045180D02*
X60591791Y-147045180D01*
X60591791Y-147045180D02*
X60687029Y-146997561D01*
X60687029Y-146997561D02*
X60734648Y-146949942D01*
X60734648Y-146949942D02*
X60782267Y-146854704D01*
X60782267Y-146854704D02*
X60782267Y-146711847D01*
X60782267Y-146711847D02*
X60734648Y-146616609D01*
X60734648Y-146616609D02*
X60687029Y-146568990D01*
X60687029Y-146568990D02*
X60591791Y-146521371D01*
X60591791Y-146521371D02*
X60210839Y-146521371D01*
X61115601Y-147045180D02*
X61734648Y-147045180D01*
X61734648Y-147045180D02*
X61401315Y-146664228D01*
X61401315Y-146664228D02*
X61544172Y-146664228D01*
X61544172Y-146664228D02*
X61639410Y-146616609D01*
X61639410Y-146616609D02*
X61687029Y-146568990D01*
X61687029Y-146568990D02*
X61734648Y-146473752D01*
X61734648Y-146473752D02*
X61734648Y-146235657D01*
X61734648Y-146235657D02*
X61687029Y-146140419D01*
X61687029Y-146140419D02*
X61639410Y-146092800D01*
X61639410Y-146092800D02*
X61544172Y-146045180D01*
X61544172Y-146045180D02*
X61258458Y-146045180D01*
X61258458Y-146045180D02*
X61163220Y-146092800D01*
X61163220Y-146092800D02*
X61115601Y-146140419D01*
X62115601Y-146949942D02*
X62163220Y-146997561D01*
X62163220Y-146997561D02*
X62258458Y-147045180D01*
X62258458Y-147045180D02*
X62496553Y-147045180D01*
X62496553Y-147045180D02*
X62591791Y-146997561D01*
X62591791Y-146997561D02*
X62639410Y-146949942D01*
X62639410Y-146949942D02*
X62687029Y-146854704D01*
X62687029Y-146854704D02*
X62687029Y-146759466D01*
X62687029Y-146759466D02*
X62639410Y-146616609D01*
X62639410Y-146616609D02*
X62067982Y-146045180D01*
X62067982Y-146045180D02*
X62687029Y-146045180D01*
X63782268Y-147045180D02*
X64020363Y-146045180D01*
X64020363Y-146045180D02*
X64210839Y-146759466D01*
X64210839Y-146759466D02*
X64401315Y-146045180D01*
X64401315Y-146045180D02*
X64639411Y-147045180D01*
X65020363Y-146568990D02*
X65353696Y-146568990D01*
X65496553Y-146045180D02*
X65020363Y-146045180D01*
X65020363Y-146045180D02*
X65020363Y-147045180D01*
X65020363Y-147045180D02*
X65496553Y-147045180D01*
X65925125Y-146045180D02*
X65925125Y-147045180D01*
X65925125Y-147045180D02*
X66258458Y-146330895D01*
X66258458Y-146330895D02*
X66591791Y-147045180D01*
X66591791Y-147045180D02*
X66591791Y-146045180D01*
X67258458Y-147045180D02*
X67448934Y-147045180D01*
X67448934Y-147045180D02*
X67544172Y-146997561D01*
X67544172Y-146997561D02*
X67639410Y-146902323D01*
X67639410Y-146902323D02*
X67687029Y-146711847D01*
X67687029Y-146711847D02*
X67687029Y-146378514D01*
X67687029Y-146378514D02*
X67639410Y-146188038D01*
X67639410Y-146188038D02*
X67544172Y-146092800D01*
X67544172Y-146092800D02*
X67448934Y-146045180D01*
X67448934Y-146045180D02*
X67258458Y-146045180D01*
X67258458Y-146045180D02*
X67163220Y-146092800D01*
X67163220Y-146092800D02*
X67067982Y-146188038D01*
X67067982Y-146188038D02*
X67020363Y-146378514D01*
X67020363Y-146378514D02*
X67020363Y-146711847D01*
X67020363Y-146711847D02*
X67067982Y-146902323D01*
X67067982Y-146902323D02*
X67163220Y-146997561D01*
X67163220Y-146997561D02*
X67258458Y-147045180D01*
X68067982Y-146092800D02*
X68210839Y-146045180D01*
X68210839Y-146045180D02*
X68448934Y-146045180D01*
X68448934Y-146045180D02*
X68544172Y-146092800D01*
X68544172Y-146092800D02*
X68591791Y-146140419D01*
X68591791Y-146140419D02*
X68639410Y-146235657D01*
X68639410Y-146235657D02*
X68639410Y-146330895D01*
X68639410Y-146330895D02*
X68591791Y-146426133D01*
X68591791Y-146426133D02*
X68544172Y-146473752D01*
X68544172Y-146473752D02*
X68448934Y-146521371D01*
X68448934Y-146521371D02*
X68258458Y-146568990D01*
X68258458Y-146568990D02*
X68163220Y-146616609D01*
X68163220Y-146616609D02*
X68115601Y-146664228D01*
X68115601Y-146664228D02*
X68067982Y-146759466D01*
X68067982Y-146759466D02*
X68067982Y-146854704D01*
X68067982Y-146854704D02*
X68115601Y-146949942D01*
X68115601Y-146949942D02*
X68163220Y-146997561D01*
X68163220Y-146997561D02*
X68258458Y-147045180D01*
X68258458Y-147045180D02*
X68496553Y-147045180D01*
X68496553Y-147045180D02*
X68639410Y-146997561D01*
X70306077Y-146045180D02*
X69829887Y-146045180D01*
X69829887Y-146045180D02*
X69829887Y-147045180D01*
X70829887Y-147045180D02*
X71020363Y-147045180D01*
X71020363Y-147045180D02*
X71115601Y-146997561D01*
X71115601Y-146997561D02*
X71210839Y-146902323D01*
X71210839Y-146902323D02*
X71258458Y-146711847D01*
X71258458Y-146711847D02*
X71258458Y-146378514D01*
X71258458Y-146378514D02*
X71210839Y-146188038D01*
X71210839Y-146188038D02*
X71115601Y-146092800D01*
X71115601Y-146092800D02*
X71020363Y-146045180D01*
X71020363Y-146045180D02*
X70829887Y-146045180D01*
X70829887Y-146045180D02*
X70734649Y-146092800D01*
X70734649Y-146092800D02*
X70639411Y-146188038D01*
X70639411Y-146188038D02*
X70591792Y-146378514D01*
X70591792Y-146378514D02*
X70591792Y-146711847D01*
X70591792Y-146711847D02*
X70639411Y-146902323D01*
X70639411Y-146902323D02*
X70734649Y-146997561D01*
X70734649Y-146997561D02*
X70829887Y-147045180D01*
X72163220Y-146045180D02*
X71687030Y-146045180D01*
X71687030Y-146045180D02*
X71687030Y-147045180D01*
X72496554Y-146045180D02*
X72496554Y-147045180D01*
X72972744Y-146045180D02*
X72972744Y-147045180D01*
X72972744Y-147045180D02*
X73544172Y-146045180D01*
X73544172Y-146045180D02*
X73544172Y-147045180D01*
X73925125Y-147045180D02*
X74544172Y-147045180D01*
X74544172Y-147045180D02*
X74210839Y-146664228D01*
X74210839Y-146664228D02*
X74353696Y-146664228D01*
X74353696Y-146664228D02*
X74448934Y-146616609D01*
X74448934Y-146616609D02*
X74496553Y-146568990D01*
X74496553Y-146568990D02*
X74544172Y-146473752D01*
X74544172Y-146473752D02*
X74544172Y-146235657D01*
X74544172Y-146235657D02*
X74496553Y-146140419D01*
X74496553Y-146140419D02*
X74448934Y-146092800D01*
X74448934Y-146092800D02*
X74353696Y-146045180D01*
X74353696Y-146045180D02*
X74067982Y-146045180D01*
X74067982Y-146045180D02*
X73972744Y-146092800D01*
X73972744Y-146092800D02*
X73925125Y-146140419D01*
X74925125Y-146949942D02*
X74972744Y-146997561D01*
X74972744Y-146997561D02*
X75067982Y-147045180D01*
X75067982Y-147045180D02*
X75306077Y-147045180D01*
X75306077Y-147045180D02*
X75401315Y-146997561D01*
X75401315Y-146997561D02*
X75448934Y-146949942D01*
X75448934Y-146949942D02*
X75496553Y-146854704D01*
X75496553Y-146854704D02*
X75496553Y-146759466D01*
X75496553Y-146759466D02*
X75448934Y-146616609D01*
X75448934Y-146616609D02*
X74877506Y-146045180D01*
X74877506Y-146045180D02*
X75496553Y-146045180D01*
X77163220Y-146045180D02*
X76687030Y-146045180D01*
X76687030Y-146045180D02*
X76687030Y-147045180D01*
X77496554Y-146045180D02*
X77496554Y-147045180D01*
X77829887Y-147045180D02*
X78401315Y-147045180D01*
X78115601Y-146045180D02*
X78115601Y-147045180D01*
X78734649Y-146568990D02*
X79067982Y-146568990D01*
X79210839Y-146045180D02*
X78734649Y-146045180D01*
X78734649Y-146045180D02*
X78734649Y-147045180D01*
X78734649Y-147045180D02*
X79210839Y-147045180D01*
X83486639Y-169146231D02*
X82915211Y-169146231D01*
X83200925Y-169146231D02*
X83200925Y-170146231D01*
X83200925Y-170146231D02*
X83105687Y-170003374D01*
X83105687Y-170003374D02*
X83010449Y-169908136D01*
X83010449Y-169908136D02*
X82915211Y-169860517D01*
X84058068Y-169717660D02*
X83962830Y-169765279D01*
X83962830Y-169765279D02*
X83915211Y-169812898D01*
X83915211Y-169812898D02*
X83867592Y-169908136D01*
X83867592Y-169908136D02*
X83867592Y-169955755D01*
X83867592Y-169955755D02*
X83915211Y-170050993D01*
X83915211Y-170050993D02*
X83962830Y-170098612D01*
X83962830Y-170098612D02*
X84058068Y-170146231D01*
X84058068Y-170146231D02*
X84248544Y-170146231D01*
X84248544Y-170146231D02*
X84343782Y-170098612D01*
X84343782Y-170098612D02*
X84391401Y-170050993D01*
X84391401Y-170050993D02*
X84439020Y-169955755D01*
X84439020Y-169955755D02*
X84439020Y-169908136D01*
X84439020Y-169908136D02*
X84391401Y-169812898D01*
X84391401Y-169812898D02*
X84343782Y-169765279D01*
X84343782Y-169765279D02*
X84248544Y-169717660D01*
X84248544Y-169717660D02*
X84058068Y-169717660D01*
X84058068Y-169717660D02*
X83962830Y-169670041D01*
X83962830Y-169670041D02*
X83915211Y-169622422D01*
X83915211Y-169622422D02*
X83867592Y-169527184D01*
X83867592Y-169527184D02*
X83867592Y-169336708D01*
X83867592Y-169336708D02*
X83915211Y-169241470D01*
X83915211Y-169241470D02*
X83962830Y-169193851D01*
X83962830Y-169193851D02*
X84058068Y-169146231D01*
X84058068Y-169146231D02*
X84248544Y-169146231D01*
X84248544Y-169146231D02*
X84343782Y-169193851D01*
X84343782Y-169193851D02*
X84391401Y-169241470D01*
X84391401Y-169241470D02*
X84439020Y-169336708D01*
X84439020Y-169336708D02*
X84439020Y-169527184D01*
X84439020Y-169527184D02*
X84391401Y-169622422D01*
X84391401Y-169622422D02*
X84343782Y-169670041D01*
X84343782Y-169670041D02*
X84248544Y-169717660D01*
X83486639Y-161646231D02*
X82915211Y-161646231D01*
X83200925Y-161646231D02*
X83200925Y-162646231D01*
X83200925Y-162646231D02*
X83105687Y-162503374D01*
X83105687Y-162503374D02*
X83010449Y-162408136D01*
X83010449Y-162408136D02*
X82915211Y-162360517D01*
X84343782Y-162646231D02*
X84153306Y-162646231D01*
X84153306Y-162646231D02*
X84058068Y-162598612D01*
X84058068Y-162598612D02*
X84010449Y-162550993D01*
X84010449Y-162550993D02*
X83915211Y-162408136D01*
X83915211Y-162408136D02*
X83867592Y-162217660D01*
X83867592Y-162217660D02*
X83867592Y-161836708D01*
X83867592Y-161836708D02*
X83915211Y-161741470D01*
X83915211Y-161741470D02*
X83962830Y-161693851D01*
X83962830Y-161693851D02*
X84058068Y-161646231D01*
X84058068Y-161646231D02*
X84248544Y-161646231D01*
X84248544Y-161646231D02*
X84343782Y-161693851D01*
X84343782Y-161693851D02*
X84391401Y-161741470D01*
X84391401Y-161741470D02*
X84439020Y-161836708D01*
X84439020Y-161836708D02*
X84439020Y-162074803D01*
X84439020Y-162074803D02*
X84391401Y-162170041D01*
X84391401Y-162170041D02*
X84343782Y-162217660D01*
X84343782Y-162217660D02*
X84248544Y-162265279D01*
X84248544Y-162265279D02*
X84058068Y-162265279D01*
X84058068Y-162265279D02*
X83962830Y-162217660D01*
X83962830Y-162217660D02*
X83915211Y-162170041D01*
X83915211Y-162170041D02*
X83867592Y-162074803D01*
X53167592Y-180186231D02*
X53786639Y-180186231D01*
X53786639Y-180186231D02*
X53453306Y-179805279D01*
X53453306Y-179805279D02*
X53596163Y-179805279D01*
X53596163Y-179805279D02*
X53691401Y-179757660D01*
X53691401Y-179757660D02*
X53739020Y-179710041D01*
X53739020Y-179710041D02*
X53786639Y-179614803D01*
X53786639Y-179614803D02*
X53786639Y-179376708D01*
X53786639Y-179376708D02*
X53739020Y-179281470D01*
X53739020Y-179281470D02*
X53691401Y-179233851D01*
X53691401Y-179233851D02*
X53596163Y-179186231D01*
X53596163Y-179186231D02*
X53310449Y-179186231D01*
X53310449Y-179186231D02*
X53215211Y-179233851D01*
X53215211Y-179233851D02*
X53167592Y-179281470D01*
X54643782Y-180186231D02*
X54453306Y-180186231D01*
X54453306Y-180186231D02*
X54358068Y-180138612D01*
X54358068Y-180138612D02*
X54310449Y-180090993D01*
X54310449Y-180090993D02*
X54215211Y-179948136D01*
X54215211Y-179948136D02*
X54167592Y-179757660D01*
X54167592Y-179757660D02*
X54167592Y-179376708D01*
X54167592Y-179376708D02*
X54215211Y-179281470D01*
X54215211Y-179281470D02*
X54262830Y-179233851D01*
X54262830Y-179233851D02*
X54358068Y-179186231D01*
X54358068Y-179186231D02*
X54548544Y-179186231D01*
X54548544Y-179186231D02*
X54643782Y-179233851D01*
X54643782Y-179233851D02*
X54691401Y-179281470D01*
X54691401Y-179281470D02*
X54739020Y-179376708D01*
X54739020Y-179376708D02*
X54739020Y-179614803D01*
X54739020Y-179614803D02*
X54691401Y-179710041D01*
X54691401Y-179710041D02*
X54643782Y-179757660D01*
X54643782Y-179757660D02*
X54548544Y-179805279D01*
X54548544Y-179805279D02*
X54358068Y-179805279D01*
X54358068Y-179805279D02*
X54262830Y-179757660D01*
X54262830Y-179757660D02*
X54215211Y-179710041D01*
X54215211Y-179710041D02*
X54167592Y-179614803D01*
X53215211Y-157247044D02*
X53262830Y-157294663D01*
X53262830Y-157294663D02*
X53358068Y-157342282D01*
X53358068Y-157342282D02*
X53596163Y-157342282D01*
X53596163Y-157342282D02*
X53691401Y-157294663D01*
X53691401Y-157294663D02*
X53739020Y-157247044D01*
X53739020Y-157247044D02*
X53786639Y-157151806D01*
X53786639Y-157151806D02*
X53786639Y-157056568D01*
X53786639Y-157056568D02*
X53739020Y-156913711D01*
X53739020Y-156913711D02*
X53167592Y-156342282D01*
X53167592Y-156342282D02*
X53786639Y-156342282D01*
X54119973Y-157342282D02*
X54786639Y-157342282D01*
X54786639Y-157342282D02*
X54358068Y-156342282D01*
X83153306Y-157446231D02*
X83248544Y-157446231D01*
X83248544Y-157446231D02*
X83343782Y-157398612D01*
X83343782Y-157398612D02*
X83391401Y-157350993D01*
X83391401Y-157350993D02*
X83439020Y-157255755D01*
X83439020Y-157255755D02*
X83486639Y-157065279D01*
X83486639Y-157065279D02*
X83486639Y-156827184D01*
X83486639Y-156827184D02*
X83439020Y-156636708D01*
X83439020Y-156636708D02*
X83391401Y-156541470D01*
X83391401Y-156541470D02*
X83343782Y-156493851D01*
X83343782Y-156493851D02*
X83248544Y-156446231D01*
X83248544Y-156446231D02*
X83153306Y-156446231D01*
X83153306Y-156446231D02*
X83058068Y-156493851D01*
X83058068Y-156493851D02*
X83010449Y-156541470D01*
X83010449Y-156541470D02*
X82962830Y-156636708D01*
X82962830Y-156636708D02*
X82915211Y-156827184D01*
X82915211Y-156827184D02*
X82915211Y-157065279D01*
X82915211Y-157065279D02*
X82962830Y-157255755D01*
X82962830Y-157255755D02*
X83010449Y-157350993D01*
X83010449Y-157350993D02*
X83058068Y-157398612D01*
X83058068Y-157398612D02*
X83153306Y-157446231D01*
X82915211Y-177650993D02*
X82962830Y-177698612D01*
X82962830Y-177698612D02*
X83058068Y-177746231D01*
X83058068Y-177746231D02*
X83296163Y-177746231D01*
X83296163Y-177746231D02*
X83391401Y-177698612D01*
X83391401Y-177698612D02*
X83439020Y-177650993D01*
X83439020Y-177650993D02*
X83486639Y-177555755D01*
X83486639Y-177555755D02*
X83486639Y-177460517D01*
X83486639Y-177460517D02*
X83439020Y-177317660D01*
X83439020Y-177317660D02*
X82867592Y-176746231D01*
X82867592Y-176746231D02*
X83486639Y-176746231D01*
X83867592Y-177650993D02*
X83915211Y-177698612D01*
X83915211Y-177698612D02*
X84010449Y-177746231D01*
X84010449Y-177746231D02*
X84248544Y-177746231D01*
X84248544Y-177746231D02*
X84343782Y-177698612D01*
X84343782Y-177698612D02*
X84391401Y-177650993D01*
X84391401Y-177650993D02*
X84439020Y-177555755D01*
X84439020Y-177555755D02*
X84439020Y-177460517D01*
X84439020Y-177460517D02*
X84391401Y-177317660D01*
X84391401Y-177317660D02*
X83819973Y-176746231D01*
X83819973Y-176746231D02*
X84439020Y-176746231D01*
X53167592Y-167542282D02*
X53786639Y-167542282D01*
X53786639Y-167542282D02*
X53453306Y-167161330D01*
X53453306Y-167161330D02*
X53596163Y-167161330D01*
X53596163Y-167161330D02*
X53691401Y-167113711D01*
X53691401Y-167113711D02*
X53739020Y-167066092D01*
X53739020Y-167066092D02*
X53786639Y-166970854D01*
X53786639Y-166970854D02*
X53786639Y-166732759D01*
X53786639Y-166732759D02*
X53739020Y-166637521D01*
X53739020Y-166637521D02*
X53691401Y-166589902D01*
X53691401Y-166589902D02*
X53596163Y-166542282D01*
X53596163Y-166542282D02*
X53310449Y-166542282D01*
X53310449Y-166542282D02*
X53215211Y-166589902D01*
X53215211Y-166589902D02*
X53167592Y-166637521D01*
X54167592Y-167447044D02*
X54215211Y-167494663D01*
X54215211Y-167494663D02*
X54310449Y-167542282D01*
X54310449Y-167542282D02*
X54548544Y-167542282D01*
X54548544Y-167542282D02*
X54643782Y-167494663D01*
X54643782Y-167494663D02*
X54691401Y-167447044D01*
X54691401Y-167447044D02*
X54739020Y-167351806D01*
X54739020Y-167351806D02*
X54739020Y-167256568D01*
X54739020Y-167256568D02*
X54691401Y-167113711D01*
X54691401Y-167113711D02*
X54119973Y-166542282D01*
X54119973Y-166542282D02*
X54739020Y-166542282D01*
X75062830Y-140611231D02*
X75062830Y-139801708D01*
X75062830Y-139801708D02*
X75110449Y-139706470D01*
X75110449Y-139706470D02*
X75158068Y-139658851D01*
X75158068Y-139658851D02*
X75253306Y-139611231D01*
X75253306Y-139611231D02*
X75443782Y-139611231D01*
X75443782Y-139611231D02*
X75539020Y-139658851D01*
X75539020Y-139658851D02*
X75586639Y-139706470D01*
X75586639Y-139706470D02*
X75634258Y-139801708D01*
X75634258Y-139801708D02*
X75634258Y-140611231D01*
X76062830Y-139658851D02*
X76205687Y-139611231D01*
X76205687Y-139611231D02*
X76443782Y-139611231D01*
X76443782Y-139611231D02*
X76539020Y-139658851D01*
X76539020Y-139658851D02*
X76586639Y-139706470D01*
X76586639Y-139706470D02*
X76634258Y-139801708D01*
X76634258Y-139801708D02*
X76634258Y-139896946D01*
X76634258Y-139896946D02*
X76586639Y-139992184D01*
X76586639Y-139992184D02*
X76539020Y-140039803D01*
X76539020Y-140039803D02*
X76443782Y-140087422D01*
X76443782Y-140087422D02*
X76253306Y-140135041D01*
X76253306Y-140135041D02*
X76158068Y-140182660D01*
X76158068Y-140182660D02*
X76110449Y-140230279D01*
X76110449Y-140230279D02*
X76062830Y-140325517D01*
X76062830Y-140325517D02*
X76062830Y-140420755D01*
X76062830Y-140420755D02*
X76110449Y-140515993D01*
X76110449Y-140515993D02*
X76158068Y-140563612D01*
X76158068Y-140563612D02*
X76253306Y-140611231D01*
X76253306Y-140611231D02*
X76491401Y-140611231D01*
X76491401Y-140611231D02*
X76634258Y-140563612D01*
X77396163Y-140135041D02*
X77539020Y-140087422D01*
X77539020Y-140087422D02*
X77586639Y-140039803D01*
X77586639Y-140039803D02*
X77634258Y-139944565D01*
X77634258Y-139944565D02*
X77634258Y-139801708D01*
X77634258Y-139801708D02*
X77586639Y-139706470D01*
X77586639Y-139706470D02*
X77539020Y-139658851D01*
X77539020Y-139658851D02*
X77443782Y-139611231D01*
X77443782Y-139611231D02*
X77062830Y-139611231D01*
X77062830Y-139611231D02*
X77062830Y-140611231D01*
X77062830Y-140611231D02*
X77396163Y-140611231D01*
X77396163Y-140611231D02*
X77491401Y-140563612D01*
X77491401Y-140563612D02*
X77539020Y-140515993D01*
X77539020Y-140515993D02*
X77586639Y-140420755D01*
X77586639Y-140420755D02*
X77586639Y-140325517D01*
X77586639Y-140325517D02*
X77539020Y-140230279D01*
X77539020Y-140230279D02*
X77491401Y-140182660D01*
X77491401Y-140182660D02*
X77396163Y-140135041D01*
X77396163Y-140135041D02*
X77062830Y-140135041D01*
X68084258Y-142851231D02*
X67750925Y-143327422D01*
X67512830Y-142851231D02*
X67512830Y-143851231D01*
X67512830Y-143851231D02*
X67893782Y-143851231D01*
X67893782Y-143851231D02*
X67989020Y-143803612D01*
X67989020Y-143803612D02*
X68036639Y-143755993D01*
X68036639Y-143755993D02*
X68084258Y-143660755D01*
X68084258Y-143660755D02*
X68084258Y-143517898D01*
X68084258Y-143517898D02*
X68036639Y-143422660D01*
X68036639Y-143422660D02*
X67989020Y-143375041D01*
X67989020Y-143375041D02*
X67893782Y-143327422D01*
X67893782Y-143327422D02*
X67512830Y-143327422D01*
X68465211Y-142898851D02*
X68608068Y-142851231D01*
X68608068Y-142851231D02*
X68846163Y-142851231D01*
X68846163Y-142851231D02*
X68941401Y-142898851D01*
X68941401Y-142898851D02*
X68989020Y-142946470D01*
X68989020Y-142946470D02*
X69036639Y-143041708D01*
X69036639Y-143041708D02*
X69036639Y-143136946D01*
X69036639Y-143136946D02*
X68989020Y-143232184D01*
X68989020Y-143232184D02*
X68941401Y-143279803D01*
X68941401Y-143279803D02*
X68846163Y-143327422D01*
X68846163Y-143327422D02*
X68655687Y-143375041D01*
X68655687Y-143375041D02*
X68560449Y-143422660D01*
X68560449Y-143422660D02*
X68512830Y-143470279D01*
X68512830Y-143470279D02*
X68465211Y-143565517D01*
X68465211Y-143565517D02*
X68465211Y-143660755D01*
X68465211Y-143660755D02*
X68512830Y-143755993D01*
X68512830Y-143755993D02*
X68560449Y-143803612D01*
X68560449Y-143803612D02*
X68655687Y-143851231D01*
X68655687Y-143851231D02*
X68893782Y-143851231D01*
X68893782Y-143851231D02*
X69036639Y-143803612D01*
X69322354Y-143851231D02*
X69893782Y-143851231D01*
X69608068Y-142851231D02*
X69608068Y-143851231D01*
X58915211Y-143875993D02*
X58962830Y-143923612D01*
X58962830Y-143923612D02*
X59058068Y-143971231D01*
X59058068Y-143971231D02*
X59296163Y-143971231D01*
X59296163Y-143971231D02*
X59391401Y-143923612D01*
X59391401Y-143923612D02*
X59439020Y-143875993D01*
X59439020Y-143875993D02*
X59486639Y-143780755D01*
X59486639Y-143780755D02*
X59486639Y-143685517D01*
X59486639Y-143685517D02*
X59439020Y-143542660D01*
X59439020Y-143542660D02*
X58867592Y-142971231D01*
X58867592Y-142971231D02*
X59486639Y-142971231D01*
X59915211Y-142971231D02*
X59915211Y-143637898D01*
X59915211Y-143542660D02*
X59962830Y-143590279D01*
X59962830Y-143590279D02*
X60058068Y-143637898D01*
X60058068Y-143637898D02*
X60200925Y-143637898D01*
X60200925Y-143637898D02*
X60296163Y-143590279D01*
X60296163Y-143590279D02*
X60343782Y-143495041D01*
X60343782Y-143495041D02*
X60343782Y-142971231D01*
X60343782Y-143495041D02*
X60391401Y-143590279D01*
X60391401Y-143590279D02*
X60486639Y-143637898D01*
X60486639Y-143637898D02*
X60629496Y-143637898D01*
X60629496Y-143637898D02*
X60724735Y-143590279D01*
X60724735Y-143590279D02*
X60772354Y-143495041D01*
X60772354Y-143495041D02*
X60772354Y-142971231D01*
X61248544Y-142971231D02*
X61248544Y-143637898D01*
X61248544Y-143542660D02*
X61296163Y-143590279D01*
X61296163Y-143590279D02*
X61391401Y-143637898D01*
X61391401Y-143637898D02*
X61534258Y-143637898D01*
X61534258Y-143637898D02*
X61629496Y-143590279D01*
X61629496Y-143590279D02*
X61677115Y-143495041D01*
X61677115Y-143495041D02*
X61677115Y-142971231D01*
X61677115Y-143495041D02*
X61724734Y-143590279D01*
X61724734Y-143590279D02*
X61819972Y-143637898D01*
X61819972Y-143637898D02*
X61962829Y-143637898D01*
X61962829Y-143637898D02*
X62058068Y-143590279D01*
X62058068Y-143590279D02*
X62105687Y-143495041D01*
X62105687Y-143495041D02*
X62105687Y-142971231D01*
X59248544Y-142361231D02*
X59248544Y-141646946D01*
X59248544Y-141646946D02*
X59200925Y-141504089D01*
X59200925Y-141504089D02*
X59105687Y-141408851D01*
X59105687Y-141408851D02*
X58962830Y-141361231D01*
X58962830Y-141361231D02*
X58867592Y-141361231D01*
X59677116Y-141408851D02*
X59819973Y-141361231D01*
X59819973Y-141361231D02*
X60058068Y-141361231D01*
X60058068Y-141361231D02*
X60153306Y-141408851D01*
X60153306Y-141408851D02*
X60200925Y-141456470D01*
X60200925Y-141456470D02*
X60248544Y-141551708D01*
X60248544Y-141551708D02*
X60248544Y-141646946D01*
X60248544Y-141646946D02*
X60200925Y-141742184D01*
X60200925Y-141742184D02*
X60153306Y-141789803D01*
X60153306Y-141789803D02*
X60058068Y-141837422D01*
X60058068Y-141837422D02*
X59867592Y-141885041D01*
X59867592Y-141885041D02*
X59772354Y-141932660D01*
X59772354Y-141932660D02*
X59724735Y-141980279D01*
X59724735Y-141980279D02*
X59677116Y-142075517D01*
X59677116Y-142075517D02*
X59677116Y-142170755D01*
X59677116Y-142170755D02*
X59724735Y-142265993D01*
X59724735Y-142265993D02*
X59772354Y-142313612D01*
X59772354Y-142313612D02*
X59867592Y-142361231D01*
X59867592Y-142361231D02*
X60105687Y-142361231D01*
X60105687Y-142361231D02*
X60248544Y-142313612D01*
X60534259Y-142361231D02*
X61105687Y-142361231D01*
X60819973Y-141361231D02*
X60819973Y-142361231D01*
X62200926Y-141361231D02*
X62200926Y-142361231D01*
X62200926Y-142361231D02*
X62581878Y-142361231D01*
X62581878Y-142361231D02*
X62677116Y-142313612D01*
X62677116Y-142313612D02*
X62724735Y-142265993D01*
X62724735Y-142265993D02*
X62772354Y-142170755D01*
X62772354Y-142170755D02*
X62772354Y-142027898D01*
X62772354Y-142027898D02*
X62724735Y-141932660D01*
X62724735Y-141932660D02*
X62677116Y-141885041D01*
X62677116Y-141885041D02*
X62581878Y-141837422D01*
X62581878Y-141837422D02*
X62200926Y-141837422D01*
X63200926Y-141361231D02*
X63200926Y-142361231D01*
X63200926Y-141885041D02*
X63772354Y-141885041D01*
X63772354Y-141361231D02*
X63772354Y-142361231D01*
X58962830Y-139751231D02*
X58962830Y-140751231D01*
X58962830Y-140275041D02*
X59534258Y-140275041D01*
X59534258Y-139751231D02*
X59534258Y-140751231D01*
X60391401Y-139798851D02*
X60296163Y-139751231D01*
X60296163Y-139751231D02*
X60105687Y-139751231D01*
X60105687Y-139751231D02*
X60010449Y-139798851D01*
X60010449Y-139798851D02*
X59962830Y-139894089D01*
X59962830Y-139894089D02*
X59962830Y-140275041D01*
X59962830Y-140275041D02*
X60010449Y-140370279D01*
X60010449Y-140370279D02*
X60105687Y-140417898D01*
X60105687Y-140417898D02*
X60296163Y-140417898D01*
X60296163Y-140417898D02*
X60391401Y-140370279D01*
X60391401Y-140370279D02*
X60439020Y-140275041D01*
X60439020Y-140275041D02*
X60439020Y-140179803D01*
X60439020Y-140179803D02*
X59962830Y-140084565D01*
X61296163Y-139751231D02*
X61296163Y-140275041D01*
X61296163Y-140275041D02*
X61248544Y-140370279D01*
X61248544Y-140370279D02*
X61153306Y-140417898D01*
X61153306Y-140417898D02*
X60962830Y-140417898D01*
X60962830Y-140417898D02*
X60867592Y-140370279D01*
X61296163Y-139798851D02*
X61200925Y-139751231D01*
X61200925Y-139751231D02*
X60962830Y-139751231D01*
X60962830Y-139751231D02*
X60867592Y-139798851D01*
X60867592Y-139798851D02*
X60819973Y-139894089D01*
X60819973Y-139894089D02*
X60819973Y-139989327D01*
X60819973Y-139989327D02*
X60867592Y-140084565D01*
X60867592Y-140084565D02*
X60962830Y-140132184D01*
X60962830Y-140132184D02*
X61200925Y-140132184D01*
X61200925Y-140132184D02*
X61296163Y-140179803D01*
X62200925Y-139751231D02*
X62200925Y-140751231D01*
X62200925Y-139798851D02*
X62105687Y-139751231D01*
X62105687Y-139751231D02*
X61915211Y-139751231D01*
X61915211Y-139751231D02*
X61819973Y-139798851D01*
X61819973Y-139798851D02*
X61772354Y-139846470D01*
X61772354Y-139846470D02*
X61724735Y-139941708D01*
X61724735Y-139941708D02*
X61724735Y-140227422D01*
X61724735Y-140227422D02*
X61772354Y-140322660D01*
X61772354Y-140322660D02*
X61819973Y-140370279D01*
X61819973Y-140370279D02*
X61915211Y-140417898D01*
X61915211Y-140417898D02*
X62105687Y-140417898D01*
X62105687Y-140417898D02*
X62200925Y-140370279D01*
X63058068Y-139798851D02*
X62962830Y-139751231D01*
X62962830Y-139751231D02*
X62772354Y-139751231D01*
X62772354Y-139751231D02*
X62677116Y-139798851D01*
X62677116Y-139798851D02*
X62629497Y-139894089D01*
X62629497Y-139894089D02*
X62629497Y-140275041D01*
X62629497Y-140275041D02*
X62677116Y-140370279D01*
X62677116Y-140370279D02*
X62772354Y-140417898D01*
X62772354Y-140417898D02*
X62962830Y-140417898D01*
X62962830Y-140417898D02*
X63058068Y-140370279D01*
X63058068Y-140370279D02*
X63105687Y-140275041D01*
X63105687Y-140275041D02*
X63105687Y-140179803D01*
X63105687Y-140179803D02*
X62629497Y-140084565D01*
X63534259Y-139751231D02*
X63534259Y-140417898D01*
X63534259Y-140227422D02*
X63581878Y-140322660D01*
X63581878Y-140322660D02*
X63629497Y-140370279D01*
X63629497Y-140370279D02*
X63724735Y-140417898D01*
X63724735Y-140417898D02*
X63819973Y-140417898D01*
X53167592Y-170042282D02*
X53786639Y-170042282D01*
X53786639Y-170042282D02*
X53453306Y-169661330D01*
X53453306Y-169661330D02*
X53596163Y-169661330D01*
X53596163Y-169661330D02*
X53691401Y-169613711D01*
X53691401Y-169613711D02*
X53739020Y-169566092D01*
X53739020Y-169566092D02*
X53786639Y-169470854D01*
X53786639Y-169470854D02*
X53786639Y-169232759D01*
X53786639Y-169232759D02*
X53739020Y-169137521D01*
X53739020Y-169137521D02*
X53691401Y-169089902D01*
X53691401Y-169089902D02*
X53596163Y-169042282D01*
X53596163Y-169042282D02*
X53310449Y-169042282D01*
X53310449Y-169042282D02*
X53215211Y-169089902D01*
X53215211Y-169089902D02*
X53167592Y-169137521D01*
X54691401Y-170042282D02*
X54215211Y-170042282D01*
X54215211Y-170042282D02*
X54167592Y-169566092D01*
X54167592Y-169566092D02*
X54215211Y-169613711D01*
X54215211Y-169613711D02*
X54310449Y-169661330D01*
X54310449Y-169661330D02*
X54548544Y-169661330D01*
X54548544Y-169661330D02*
X54643782Y-169613711D01*
X54643782Y-169613711D02*
X54691401Y-169566092D01*
X54691401Y-169566092D02*
X54739020Y-169470854D01*
X54739020Y-169470854D02*
X54739020Y-169232759D01*
X54739020Y-169232759D02*
X54691401Y-169137521D01*
X54691401Y-169137521D02*
X54643782Y-169089902D01*
X54643782Y-169089902D02*
X54548544Y-169042282D01*
X54548544Y-169042282D02*
X54310449Y-169042282D01*
X54310449Y-169042282D02*
X54215211Y-169089902D01*
X54215211Y-169089902D02*
X54167592Y-169137521D01*
X82867592Y-180246231D02*
X83486639Y-180246231D01*
X83486639Y-180246231D02*
X83153306Y-179865279D01*
X83153306Y-179865279D02*
X83296163Y-179865279D01*
X83296163Y-179865279D02*
X83391401Y-179817660D01*
X83391401Y-179817660D02*
X83439020Y-179770041D01*
X83439020Y-179770041D02*
X83486639Y-179674803D01*
X83486639Y-179674803D02*
X83486639Y-179436708D01*
X83486639Y-179436708D02*
X83439020Y-179341470D01*
X83439020Y-179341470D02*
X83391401Y-179293851D01*
X83391401Y-179293851D02*
X83296163Y-179246231D01*
X83296163Y-179246231D02*
X83010449Y-179246231D01*
X83010449Y-179246231D02*
X82915211Y-179293851D01*
X82915211Y-179293851D02*
X82867592Y-179341470D01*
X83819973Y-179912898D02*
X84058068Y-179246231D01*
X84058068Y-179246231D02*
X84296163Y-179912898D01*
X84581878Y-180246231D02*
X85200925Y-180246231D01*
X85200925Y-180246231D02*
X84867592Y-179865279D01*
X84867592Y-179865279D02*
X85010449Y-179865279D01*
X85010449Y-179865279D02*
X85105687Y-179817660D01*
X85105687Y-179817660D02*
X85153306Y-179770041D01*
X85153306Y-179770041D02*
X85200925Y-179674803D01*
X85200925Y-179674803D02*
X85200925Y-179436708D01*
X85200925Y-179436708D02*
X85153306Y-179341470D01*
X85153306Y-179341470D02*
X85105687Y-179293851D01*
X85105687Y-179293851D02*
X85010449Y-179246231D01*
X85010449Y-179246231D02*
X84724735Y-179246231D01*
X84724735Y-179246231D02*
X84629497Y-179293851D01*
X84629497Y-179293851D02*
X84581878Y-179341470D01*
X82915211Y-154750993D02*
X82962830Y-154798612D01*
X82962830Y-154798612D02*
X83058068Y-154846231D01*
X83058068Y-154846231D02*
X83296163Y-154846231D01*
X83296163Y-154846231D02*
X83391401Y-154798612D01*
X83391401Y-154798612D02*
X83439020Y-154750993D01*
X83439020Y-154750993D02*
X83486639Y-154655755D01*
X83486639Y-154655755D02*
X83486639Y-154560517D01*
X83486639Y-154560517D02*
X83439020Y-154417660D01*
X83439020Y-154417660D02*
X82867592Y-153846231D01*
X82867592Y-153846231D02*
X83486639Y-153846231D01*
X53786639Y-153842282D02*
X53215211Y-153842282D01*
X53500925Y-153842282D02*
X53500925Y-154842282D01*
X53500925Y-154842282D02*
X53405687Y-154699425D01*
X53405687Y-154699425D02*
X53310449Y-154604187D01*
X53310449Y-154604187D02*
X53215211Y-154556568D01*
X54643782Y-154508949D02*
X54643782Y-153842282D01*
X54405687Y-154889902D02*
X54167592Y-154175616D01*
X54167592Y-154175616D02*
X54786639Y-154175616D01*
X60151220Y-136486133D02*
X59389316Y-136486133D01*
X59770268Y-136105180D02*
X59770268Y-136867085D01*
X53167592Y-177766231D02*
X53786639Y-177766231D01*
X53786639Y-177766231D02*
X53453306Y-177385279D01*
X53453306Y-177385279D02*
X53596163Y-177385279D01*
X53596163Y-177385279D02*
X53691401Y-177337660D01*
X53691401Y-177337660D02*
X53739020Y-177290041D01*
X53739020Y-177290041D02*
X53786639Y-177194803D01*
X53786639Y-177194803D02*
X53786639Y-176956708D01*
X53786639Y-176956708D02*
X53739020Y-176861470D01*
X53739020Y-176861470D02*
X53691401Y-176813851D01*
X53691401Y-176813851D02*
X53596163Y-176766231D01*
X53596163Y-176766231D02*
X53310449Y-176766231D01*
X53310449Y-176766231D02*
X53215211Y-176813851D01*
X53215211Y-176813851D02*
X53167592Y-176861470D01*
X54262830Y-176766231D02*
X54453306Y-176766231D01*
X54453306Y-176766231D02*
X54548544Y-176813851D01*
X54548544Y-176813851D02*
X54596163Y-176861470D01*
X54596163Y-176861470D02*
X54691401Y-177004327D01*
X54691401Y-177004327D02*
X54739020Y-177194803D01*
X54739020Y-177194803D02*
X54739020Y-177575755D01*
X54739020Y-177575755D02*
X54691401Y-177670993D01*
X54691401Y-177670993D02*
X54643782Y-177718612D01*
X54643782Y-177718612D02*
X54548544Y-177766231D01*
X54548544Y-177766231D02*
X54358068Y-177766231D01*
X54358068Y-177766231D02*
X54262830Y-177718612D01*
X54262830Y-177718612D02*
X54215211Y-177670993D01*
X54215211Y-177670993D02*
X54167592Y-177575755D01*
X54167592Y-177575755D02*
X54167592Y-177337660D01*
X54167592Y-177337660D02*
X54215211Y-177242422D01*
X54215211Y-177242422D02*
X54262830Y-177194803D01*
X54262830Y-177194803D02*
X54358068Y-177147184D01*
X54358068Y-177147184D02*
X54548544Y-177147184D01*
X54548544Y-177147184D02*
X54643782Y-177194803D01*
X54643782Y-177194803D02*
X54691401Y-177242422D01*
X54691401Y-177242422D02*
X54739020Y-177337660D01*
X83486639Y-151246231D02*
X82915211Y-151246231D01*
X83200925Y-151246231D02*
X83200925Y-152246231D01*
X83200925Y-152246231D02*
X83105687Y-152103374D01*
X83105687Y-152103374D02*
X83010449Y-152008136D01*
X83010449Y-152008136D02*
X82915211Y-151960517D01*
X84391401Y-152246231D02*
X83915211Y-152246231D01*
X83915211Y-152246231D02*
X83867592Y-151770041D01*
X83867592Y-151770041D02*
X83915211Y-151817660D01*
X83915211Y-151817660D02*
X84010449Y-151865279D01*
X84010449Y-151865279D02*
X84248544Y-151865279D01*
X84248544Y-151865279D02*
X84343782Y-151817660D01*
X84343782Y-151817660D02*
X84391401Y-151770041D01*
X84391401Y-151770041D02*
X84439020Y-151674803D01*
X84439020Y-151674803D02*
X84439020Y-151436708D01*
X84439020Y-151436708D02*
X84391401Y-151341470D01*
X84391401Y-151341470D02*
X84343782Y-151293851D01*
X84343782Y-151293851D02*
X84248544Y-151246231D01*
X84248544Y-151246231D02*
X84010449Y-151246231D01*
X84010449Y-151246231D02*
X83915211Y-151293851D01*
X83915211Y-151293851D02*
X83867592Y-151341470D01*
X52686639Y-149788612D02*
X52591401Y-149836231D01*
X52591401Y-149836231D02*
X52448544Y-149836231D01*
X52448544Y-149836231D02*
X52305687Y-149788612D01*
X52305687Y-149788612D02*
X52210449Y-149693374D01*
X52210449Y-149693374D02*
X52162830Y-149598136D01*
X52162830Y-149598136D02*
X52115211Y-149407660D01*
X52115211Y-149407660D02*
X52115211Y-149264803D01*
X52115211Y-149264803D02*
X52162830Y-149074327D01*
X52162830Y-149074327D02*
X52210449Y-148979089D01*
X52210449Y-148979089D02*
X52305687Y-148883851D01*
X52305687Y-148883851D02*
X52448544Y-148836231D01*
X52448544Y-148836231D02*
X52543782Y-148836231D01*
X52543782Y-148836231D02*
X52686639Y-148883851D01*
X52686639Y-148883851D02*
X52734258Y-148931470D01*
X52734258Y-148931470D02*
X52734258Y-149264803D01*
X52734258Y-149264803D02*
X52543782Y-149264803D01*
X53162830Y-148836231D02*
X53162830Y-149836231D01*
X53162830Y-149836231D02*
X53734258Y-148836231D01*
X53734258Y-148836231D02*
X53734258Y-149836231D01*
X54210449Y-148836231D02*
X54210449Y-149836231D01*
X54210449Y-149836231D02*
X54448544Y-149836231D01*
X54448544Y-149836231D02*
X54591401Y-149788612D01*
X54591401Y-149788612D02*
X54686639Y-149693374D01*
X54686639Y-149693374D02*
X54734258Y-149598136D01*
X54734258Y-149598136D02*
X54781877Y-149407660D01*
X54781877Y-149407660D02*
X54781877Y-149264803D01*
X54781877Y-149264803D02*
X54734258Y-149074327D01*
X54734258Y-149074327D02*
X54686639Y-148979089D01*
X54686639Y-148979089D02*
X54591401Y-148883851D01*
X54591401Y-148883851D02*
X54448544Y-148836231D01*
X54448544Y-148836231D02*
X54210449Y-148836231D01*
D11*
X47814286Y-131457337D02*
X47814286Y-132657337D01*
X47814286Y-132657337D02*
X48100000Y-132657337D01*
X48100000Y-132657337D02*
X48271429Y-132600194D01*
X48271429Y-132600194D02*
X48385714Y-132485908D01*
X48385714Y-132485908D02*
X48442857Y-132371622D01*
X48442857Y-132371622D02*
X48500000Y-132143051D01*
X48500000Y-132143051D02*
X48500000Y-131971622D01*
X48500000Y-131971622D02*
X48442857Y-131743051D01*
X48442857Y-131743051D02*
X48385714Y-131628765D01*
X48385714Y-131628765D02*
X48271429Y-131514480D01*
X48271429Y-131514480D02*
X48100000Y-131457337D01*
X48100000Y-131457337D02*
X47814286Y-131457337D01*
X48900000Y-132657337D02*
X49642857Y-132657337D01*
X49642857Y-132657337D02*
X49242857Y-132200194D01*
X49242857Y-132200194D02*
X49414286Y-132200194D01*
X49414286Y-132200194D02*
X49528572Y-132143051D01*
X49528572Y-132143051D02*
X49585714Y-132085908D01*
X49585714Y-132085908D02*
X49642857Y-131971622D01*
X49642857Y-131971622D02*
X49642857Y-131685908D01*
X49642857Y-131685908D02*
X49585714Y-131571622D01*
X49585714Y-131571622D02*
X49528572Y-131514480D01*
X49528572Y-131514480D02*
X49414286Y-131457337D01*
X49414286Y-131457337D02*
X49071429Y-131457337D01*
X49071429Y-131457337D02*
X48957143Y-131514480D01*
X48957143Y-131514480D02*
X48900000Y-131571622D01*
X123307143Y-139585908D02*
X123478571Y-139528765D01*
X123478571Y-139528765D02*
X123535714Y-139471622D01*
X123535714Y-139471622D02*
X123592857Y-139357337D01*
X123592857Y-139357337D02*
X123592857Y-139185908D01*
X123592857Y-139185908D02*
X123535714Y-139071622D01*
X123535714Y-139071622D02*
X123478571Y-139014480D01*
X123478571Y-139014480D02*
X123364286Y-138957337D01*
X123364286Y-138957337D02*
X122907143Y-138957337D01*
X122907143Y-138957337D02*
X122907143Y-140157337D01*
X122907143Y-140157337D02*
X123307143Y-140157337D01*
X123307143Y-140157337D02*
X123421429Y-140100194D01*
X123421429Y-140100194D02*
X123478571Y-140043051D01*
X123478571Y-140043051D02*
X123535714Y-139928765D01*
X123535714Y-139928765D02*
X123535714Y-139814480D01*
X123535714Y-139814480D02*
X123478571Y-139700194D01*
X123478571Y-139700194D02*
X123421429Y-139643051D01*
X123421429Y-139643051D02*
X123307143Y-139585908D01*
X123307143Y-139585908D02*
X122907143Y-139585908D01*
X123935714Y-140157337D02*
X124621429Y-140157337D01*
X124278571Y-138957337D02*
X124278571Y-140157337D01*
X125650000Y-138957337D02*
X124964286Y-138957337D01*
X125307143Y-138957337D02*
X125307143Y-140157337D01*
X125307143Y-140157337D02*
X125192857Y-139985908D01*
X125192857Y-139985908D02*
X125078572Y-139871622D01*
X125078572Y-139871622D02*
X124964286Y-139814480D01*
D10*
X123099878Y-136153571D02*
X123064164Y-136082143D01*
X123064164Y-136082143D02*
X123064164Y-135975000D01*
X123064164Y-135975000D02*
X123099878Y-135867857D01*
X123099878Y-135867857D02*
X123171307Y-135796428D01*
X123171307Y-135796428D02*
X123242735Y-135760714D01*
X123242735Y-135760714D02*
X123385592Y-135725000D01*
X123385592Y-135725000D02*
X123492735Y-135725000D01*
X123492735Y-135725000D02*
X123635592Y-135760714D01*
X123635592Y-135760714D02*
X123707021Y-135796428D01*
X123707021Y-135796428D02*
X123778450Y-135867857D01*
X123778450Y-135867857D02*
X123814164Y-135975000D01*
X123814164Y-135975000D02*
X123814164Y-136046428D01*
X123814164Y-136046428D02*
X123778450Y-136153571D01*
X123778450Y-136153571D02*
X123742735Y-136189285D01*
X123742735Y-136189285D02*
X123492735Y-136189285D01*
X123492735Y-136189285D02*
X123492735Y-136046428D01*
X123814164Y-136510714D02*
X123064164Y-136510714D01*
X123064164Y-136510714D02*
X123814164Y-136939285D01*
X123814164Y-136939285D02*
X123064164Y-136939285D01*
X123814164Y-137296428D02*
X123064164Y-137296428D01*
X123064164Y-137296428D02*
X123064164Y-137474999D01*
X123064164Y-137474999D02*
X123099878Y-137582142D01*
X123099878Y-137582142D02*
X123171307Y-137653571D01*
X123171307Y-137653571D02*
X123242735Y-137689285D01*
X123242735Y-137689285D02*
X123385592Y-137724999D01*
X123385592Y-137724999D02*
X123492735Y-137724999D01*
X123492735Y-137724999D02*
X123635592Y-137689285D01*
X123635592Y-137689285D02*
X123707021Y-137653571D01*
X123707021Y-137653571D02*
X123778450Y-137582142D01*
X123778450Y-137582142D02*
X123814164Y-137474999D01*
X123814164Y-137474999D02*
X123814164Y-137296428D01*
D11*
X105542857Y-215297337D02*
X105542857Y-216497337D01*
X105542857Y-216497337D02*
X105828571Y-216497337D01*
X105828571Y-216497337D02*
X106000000Y-216440194D01*
X106000000Y-216440194D02*
X106114285Y-216325908D01*
X106114285Y-216325908D02*
X106171428Y-216211622D01*
X106171428Y-216211622D02*
X106228571Y-215983051D01*
X106228571Y-215983051D02*
X106228571Y-215811622D01*
X106228571Y-215811622D02*
X106171428Y-215583051D01*
X106171428Y-215583051D02*
X106114285Y-215468765D01*
X106114285Y-215468765D02*
X106000000Y-215354480D01*
X106000000Y-215354480D02*
X105828571Y-215297337D01*
X105828571Y-215297337D02*
X105542857Y-215297337D01*
X107371428Y-215297337D02*
X106685714Y-215297337D01*
X107028571Y-215297337D02*
X107028571Y-216497337D01*
X107028571Y-216497337D02*
X106914285Y-216325908D01*
X106914285Y-216325908D02*
X106800000Y-216211622D01*
X106800000Y-216211622D02*
X106685714Y-216154480D01*
X108114285Y-216497337D02*
X108228571Y-216497337D01*
X108228571Y-216497337D02*
X108342857Y-216440194D01*
X108342857Y-216440194D02*
X108400000Y-216383051D01*
X108400000Y-216383051D02*
X108457142Y-216268765D01*
X108457142Y-216268765D02*
X108514285Y-216040194D01*
X108514285Y-216040194D02*
X108514285Y-215754480D01*
X108514285Y-215754480D02*
X108457142Y-215525908D01*
X108457142Y-215525908D02*
X108400000Y-215411622D01*
X108400000Y-215411622D02*
X108342857Y-215354480D01*
X108342857Y-215354480D02*
X108228571Y-215297337D01*
X108228571Y-215297337D02*
X108114285Y-215297337D01*
X108114285Y-215297337D02*
X108000000Y-215354480D01*
X108000000Y-215354480D02*
X107942857Y-215411622D01*
X107942857Y-215411622D02*
X107885714Y-215525908D01*
X107885714Y-215525908D02*
X107828571Y-215754480D01*
X107828571Y-215754480D02*
X107828571Y-216040194D01*
X107828571Y-216040194D02*
X107885714Y-216268765D01*
X107885714Y-216268765D02*
X107942857Y-216383051D01*
X107942857Y-216383051D02*
X108000000Y-216440194D01*
X108000000Y-216440194D02*
X108114285Y-216497337D01*
D12*
X101374919Y-211059047D02*
X101351109Y-211011428D01*
X101351109Y-211011428D02*
X101351109Y-210939999D01*
X101351109Y-210939999D02*
X101374919Y-210868571D01*
X101374919Y-210868571D02*
X101422538Y-210820952D01*
X101422538Y-210820952D02*
X101470157Y-210797142D01*
X101470157Y-210797142D02*
X101565395Y-210773333D01*
X101565395Y-210773333D02*
X101636823Y-210773333D01*
X101636823Y-210773333D02*
X101732061Y-210797142D01*
X101732061Y-210797142D02*
X101779680Y-210820952D01*
X101779680Y-210820952D02*
X101827300Y-210868571D01*
X101827300Y-210868571D02*
X101851109Y-210939999D01*
X101851109Y-210939999D02*
X101851109Y-210987618D01*
X101851109Y-210987618D02*
X101827300Y-211059047D01*
X101827300Y-211059047D02*
X101803490Y-211082856D01*
X101803490Y-211082856D02*
X101636823Y-211082856D01*
X101636823Y-211082856D02*
X101636823Y-210987618D01*
X101851109Y-211297142D02*
X101351109Y-211297142D01*
X101351109Y-211297142D02*
X101851109Y-211582856D01*
X101851109Y-211582856D02*
X101351109Y-211582856D01*
X101851109Y-211820952D02*
X101351109Y-211820952D01*
X101351109Y-211820952D02*
X101351109Y-211940000D01*
X101351109Y-211940000D02*
X101374919Y-212011428D01*
X101374919Y-212011428D02*
X101422538Y-212059047D01*
X101422538Y-212059047D02*
X101470157Y-212082857D01*
X101470157Y-212082857D02*
X101565395Y-212106666D01*
X101565395Y-212106666D02*
X101636823Y-212106666D01*
X101636823Y-212106666D02*
X101732061Y-212082857D01*
X101732061Y-212082857D02*
X101779680Y-212059047D01*
X101779680Y-212059047D02*
X101827300Y-212011428D01*
X101827300Y-212011428D02*
X101851109Y-211940000D01*
X101851109Y-211940000D02*
X101851109Y-211820952D01*
X100576109Y-211178095D02*
X100076109Y-211178095D01*
X100076109Y-211178095D02*
X100076109Y-211297143D01*
X100076109Y-211297143D02*
X100099919Y-211368571D01*
X100099919Y-211368571D02*
X100147538Y-211416190D01*
X100147538Y-211416190D02*
X100195157Y-211440000D01*
X100195157Y-211440000D02*
X100290395Y-211463809D01*
X100290395Y-211463809D02*
X100361823Y-211463809D01*
X100361823Y-211463809D02*
X100457061Y-211440000D01*
X100457061Y-211440000D02*
X100504680Y-211416190D01*
X100504680Y-211416190D02*
X100552300Y-211368571D01*
X100552300Y-211368571D02*
X100576109Y-211297143D01*
X100576109Y-211297143D02*
X100576109Y-211178095D01*
X100576109Y-211678095D02*
X100076109Y-211678095D01*
X100576109Y-211916190D02*
X100076109Y-211916190D01*
X100076109Y-211916190D02*
X100576109Y-212201904D01*
X100576109Y-212201904D02*
X100076109Y-212201904D01*
X104576109Y-210344761D02*
X104076109Y-210344761D01*
X104076109Y-210344761D02*
X104076109Y-210463809D01*
X104076109Y-210463809D02*
X104099919Y-210535237D01*
X104099919Y-210535237D02*
X104147538Y-210582856D01*
X104147538Y-210582856D02*
X104195157Y-210606666D01*
X104195157Y-210606666D02*
X104290395Y-210630475D01*
X104290395Y-210630475D02*
X104361823Y-210630475D01*
X104361823Y-210630475D02*
X104457061Y-210606666D01*
X104457061Y-210606666D02*
X104504680Y-210582856D01*
X104504680Y-210582856D02*
X104552300Y-210535237D01*
X104552300Y-210535237D02*
X104576109Y-210463809D01*
X104576109Y-210463809D02*
X104576109Y-210344761D01*
X104076109Y-210939999D02*
X104076109Y-211035237D01*
X104076109Y-211035237D02*
X104099919Y-211082856D01*
X104099919Y-211082856D02*
X104147538Y-211130475D01*
X104147538Y-211130475D02*
X104242776Y-211154285D01*
X104242776Y-211154285D02*
X104409442Y-211154285D01*
X104409442Y-211154285D02*
X104504680Y-211130475D01*
X104504680Y-211130475D02*
X104552300Y-211082856D01*
X104552300Y-211082856D02*
X104576109Y-211035237D01*
X104576109Y-211035237D02*
X104576109Y-210939999D01*
X104576109Y-210939999D02*
X104552300Y-210892380D01*
X104552300Y-210892380D02*
X104504680Y-210844761D01*
X104504680Y-210844761D02*
X104409442Y-210820952D01*
X104409442Y-210820952D02*
X104242776Y-210820952D01*
X104242776Y-210820952D02*
X104147538Y-210844761D01*
X104147538Y-210844761D02*
X104099919Y-210892380D01*
X104099919Y-210892380D02*
X104076109Y-210939999D01*
X104076109Y-211368571D02*
X104480871Y-211368571D01*
X104480871Y-211368571D02*
X104528490Y-211392381D01*
X104528490Y-211392381D02*
X104552300Y-211416190D01*
X104552300Y-211416190D02*
X104576109Y-211463809D01*
X104576109Y-211463809D02*
X104576109Y-211559047D01*
X104576109Y-211559047D02*
X104552300Y-211606666D01*
X104552300Y-211606666D02*
X104528490Y-211630476D01*
X104528490Y-211630476D02*
X104480871Y-211654285D01*
X104480871Y-211654285D02*
X104076109Y-211654285D01*
X104076109Y-211820953D02*
X104076109Y-212106667D01*
X104576109Y-211963810D02*
X104076109Y-211963810D01*
X102851109Y-210798334D02*
X103351109Y-210965000D01*
X103351109Y-210965000D02*
X102851109Y-211131667D01*
X103351109Y-211298333D02*
X102851109Y-211298333D01*
X102851109Y-211298333D02*
X102851109Y-211417381D01*
X102851109Y-211417381D02*
X102874919Y-211488809D01*
X102874919Y-211488809D02*
X102922538Y-211536428D01*
X102922538Y-211536428D02*
X102970157Y-211560238D01*
X102970157Y-211560238D02*
X103065395Y-211584047D01*
X103065395Y-211584047D02*
X103136823Y-211584047D01*
X103136823Y-211584047D02*
X103232061Y-211560238D01*
X103232061Y-211560238D02*
X103279680Y-211536428D01*
X103279680Y-211536428D02*
X103327300Y-211488809D01*
X103327300Y-211488809D02*
X103351109Y-211417381D01*
X103351109Y-211417381D02*
X103351109Y-211298333D01*
X103351109Y-211798333D02*
X102851109Y-211798333D01*
X102851109Y-211798333D02*
X102851109Y-211917381D01*
X102851109Y-211917381D02*
X102874919Y-211988809D01*
X102874919Y-211988809D02*
X102922538Y-212036428D01*
X102922538Y-212036428D02*
X102970157Y-212060238D01*
X102970157Y-212060238D02*
X103065395Y-212084047D01*
X103065395Y-212084047D02*
X103136823Y-212084047D01*
X103136823Y-212084047D02*
X103232061Y-212060238D01*
X103232061Y-212060238D02*
X103279680Y-212036428D01*
X103279680Y-212036428D02*
X103327300Y-211988809D01*
X103327300Y-211988809D02*
X103351109Y-211917381D01*
X103351109Y-211917381D02*
X103351109Y-211798333D01*
D10*
X42333333Y-72124819D02*
X42333333Y-72839104D01*
X42333333Y-72839104D02*
X42380952Y-72981961D01*
X42380952Y-72981961D02*
X42476190Y-73077200D01*
X42476190Y-73077200D02*
X42619047Y-73124819D01*
X42619047Y-73124819D02*
X42714285Y-73124819D01*
X41714285Y-72553390D02*
X41809523Y-72505771D01*
X41809523Y-72505771D02*
X41857142Y-72458152D01*
X41857142Y-72458152D02*
X41904761Y-72362914D01*
X41904761Y-72362914D02*
X41904761Y-72315295D01*
X41904761Y-72315295D02*
X41857142Y-72220057D01*
X41857142Y-72220057D02*
X41809523Y-72172438D01*
X41809523Y-72172438D02*
X41714285Y-72124819D01*
X41714285Y-72124819D02*
X41523809Y-72124819D01*
X41523809Y-72124819D02*
X41428571Y-72172438D01*
X41428571Y-72172438D02*
X41380952Y-72220057D01*
X41380952Y-72220057D02*
X41333333Y-72315295D01*
X41333333Y-72315295D02*
X41333333Y-72362914D01*
X41333333Y-72362914D02*
X41380952Y-72458152D01*
X41380952Y-72458152D02*
X41428571Y-72505771D01*
X41428571Y-72505771D02*
X41523809Y-72553390D01*
X41523809Y-72553390D02*
X41714285Y-72553390D01*
X41714285Y-72553390D02*
X41809523Y-72601009D01*
X41809523Y-72601009D02*
X41857142Y-72648628D01*
X41857142Y-72648628D02*
X41904761Y-72743866D01*
X41904761Y-72743866D02*
X41904761Y-72934342D01*
X41904761Y-72934342D02*
X41857142Y-73029580D01*
X41857142Y-73029580D02*
X41809523Y-73077200D01*
X41809523Y-73077200D02*
X41714285Y-73124819D01*
X41714285Y-73124819D02*
X41523809Y-73124819D01*
X41523809Y-73124819D02*
X41428571Y-73077200D01*
X41428571Y-73077200D02*
X41380952Y-73029580D01*
X41380952Y-73029580D02*
X41333333Y-72934342D01*
X41333333Y-72934342D02*
X41333333Y-72743866D01*
X41333333Y-72743866D02*
X41380952Y-72648628D01*
X41380952Y-72648628D02*
X41428571Y-72601009D01*
X41428571Y-72601009D02*
X41523809Y-72553390D01*
X147784819Y-109266666D02*
X148499104Y-109266666D01*
X148499104Y-109266666D02*
X148641961Y-109219047D01*
X148641961Y-109219047D02*
X148737200Y-109123809D01*
X148737200Y-109123809D02*
X148784819Y-108980952D01*
X148784819Y-108980952D02*
X148784819Y-108885714D01*
X147784819Y-110171428D02*
X147784819Y-109980952D01*
X147784819Y-109980952D02*
X147832438Y-109885714D01*
X147832438Y-109885714D02*
X147880057Y-109838095D01*
X147880057Y-109838095D02*
X148022914Y-109742857D01*
X148022914Y-109742857D02*
X148213390Y-109695238D01*
X148213390Y-109695238D02*
X148594342Y-109695238D01*
X148594342Y-109695238D02*
X148689580Y-109742857D01*
X148689580Y-109742857D02*
X148737200Y-109790476D01*
X148737200Y-109790476D02*
X148784819Y-109885714D01*
X148784819Y-109885714D02*
X148784819Y-110076190D01*
X148784819Y-110076190D02*
X148737200Y-110171428D01*
X148737200Y-110171428D02*
X148689580Y-110219047D01*
X148689580Y-110219047D02*
X148594342Y-110266666D01*
X148594342Y-110266666D02*
X148356247Y-110266666D01*
X148356247Y-110266666D02*
X148261009Y-110219047D01*
X148261009Y-110219047D02*
X148213390Y-110171428D01*
X148213390Y-110171428D02*
X148165771Y-110076190D01*
X148165771Y-110076190D02*
X148165771Y-109885714D01*
X148165771Y-109885714D02*
X148213390Y-109790476D01*
X148213390Y-109790476D02*
X148261009Y-109742857D01*
X148261009Y-109742857D02*
X148356247Y-109695238D01*
D11*
X156914286Y-139757337D02*
X156914286Y-140957337D01*
X156914286Y-140957337D02*
X157200000Y-140957337D01*
X157200000Y-140957337D02*
X157371429Y-140900194D01*
X157371429Y-140900194D02*
X157485714Y-140785908D01*
X157485714Y-140785908D02*
X157542857Y-140671622D01*
X157542857Y-140671622D02*
X157600000Y-140443051D01*
X157600000Y-140443051D02*
X157600000Y-140271622D01*
X157600000Y-140271622D02*
X157542857Y-140043051D01*
X157542857Y-140043051D02*
X157485714Y-139928765D01*
X157485714Y-139928765D02*
X157371429Y-139814480D01*
X157371429Y-139814480D02*
X157200000Y-139757337D01*
X157200000Y-139757337D02*
X156914286Y-139757337D01*
X158628572Y-140957337D02*
X158400000Y-140957337D01*
X158400000Y-140957337D02*
X158285714Y-140900194D01*
X158285714Y-140900194D02*
X158228572Y-140843051D01*
X158228572Y-140843051D02*
X158114286Y-140671622D01*
X158114286Y-140671622D02*
X158057143Y-140443051D01*
X158057143Y-140443051D02*
X158057143Y-139985908D01*
X158057143Y-139985908D02*
X158114286Y-139871622D01*
X158114286Y-139871622D02*
X158171429Y-139814480D01*
X158171429Y-139814480D02*
X158285714Y-139757337D01*
X158285714Y-139757337D02*
X158514286Y-139757337D01*
X158514286Y-139757337D02*
X158628572Y-139814480D01*
X158628572Y-139814480D02*
X158685714Y-139871622D01*
X158685714Y-139871622D02*
X158742857Y-139985908D01*
X158742857Y-139985908D02*
X158742857Y-140271622D01*
X158742857Y-140271622D02*
X158685714Y-140385908D01*
X158685714Y-140385908D02*
X158628572Y-140443051D01*
X158628572Y-140443051D02*
X158514286Y-140500194D01*
X158514286Y-140500194D02*
X158285714Y-140500194D01*
X158285714Y-140500194D02*
X158171429Y-140443051D01*
X158171429Y-140443051D02*
X158114286Y-140385908D01*
X158114286Y-140385908D02*
X158057143Y-140271622D01*
X136792662Y-185292857D02*
X135592662Y-185292857D01*
X135592662Y-185292857D02*
X135592662Y-185578571D01*
X135592662Y-185578571D02*
X135649805Y-185750000D01*
X135649805Y-185750000D02*
X135764091Y-185864285D01*
X135764091Y-185864285D02*
X135878377Y-185921428D01*
X135878377Y-185921428D02*
X136106948Y-185978571D01*
X136106948Y-185978571D02*
X136278377Y-185978571D01*
X136278377Y-185978571D02*
X136506948Y-185921428D01*
X136506948Y-185921428D02*
X136621234Y-185864285D01*
X136621234Y-185864285D02*
X136735520Y-185750000D01*
X136735520Y-185750000D02*
X136792662Y-185578571D01*
X136792662Y-185578571D02*
X136792662Y-185292857D01*
X135706948Y-186435714D02*
X135649805Y-186492857D01*
X135649805Y-186492857D02*
X135592662Y-186607143D01*
X135592662Y-186607143D02*
X135592662Y-186892857D01*
X135592662Y-186892857D02*
X135649805Y-187007143D01*
X135649805Y-187007143D02*
X135706948Y-187064285D01*
X135706948Y-187064285D02*
X135821234Y-187121428D01*
X135821234Y-187121428D02*
X135935520Y-187121428D01*
X135935520Y-187121428D02*
X136106948Y-187064285D01*
X136106948Y-187064285D02*
X136792662Y-186378571D01*
X136792662Y-186378571D02*
X136792662Y-187121428D01*
X135592662Y-187864285D02*
X135592662Y-187978571D01*
X135592662Y-187978571D02*
X135649805Y-188092857D01*
X135649805Y-188092857D02*
X135706948Y-188150000D01*
X135706948Y-188150000D02*
X135821234Y-188207142D01*
X135821234Y-188207142D02*
X136049805Y-188264285D01*
X136049805Y-188264285D02*
X136335520Y-188264285D01*
X136335520Y-188264285D02*
X136564091Y-188207142D01*
X136564091Y-188207142D02*
X136678377Y-188150000D01*
X136678377Y-188150000D02*
X136735520Y-188092857D01*
X136735520Y-188092857D02*
X136792662Y-187978571D01*
X136792662Y-187978571D02*
X136792662Y-187864285D01*
X136792662Y-187864285D02*
X136735520Y-187750000D01*
X136735520Y-187750000D02*
X136678377Y-187692857D01*
X136678377Y-187692857D02*
X136564091Y-187635714D01*
X136564091Y-187635714D02*
X136335520Y-187578571D01*
X136335520Y-187578571D02*
X136049805Y-187578571D01*
X136049805Y-187578571D02*
X135821234Y-187635714D01*
X135821234Y-187635714D02*
X135706948Y-187692857D01*
X135706948Y-187692857D02*
X135649805Y-187750000D01*
X135649805Y-187750000D02*
X135592662Y-187864285D01*
D12*
X140930952Y-189874919D02*
X140978571Y-189851109D01*
X140978571Y-189851109D02*
X141050000Y-189851109D01*
X141050000Y-189851109D02*
X141121428Y-189874919D01*
X141121428Y-189874919D02*
X141169047Y-189922538D01*
X141169047Y-189922538D02*
X141192857Y-189970157D01*
X141192857Y-189970157D02*
X141216666Y-190065395D01*
X141216666Y-190065395D02*
X141216666Y-190136823D01*
X141216666Y-190136823D02*
X141192857Y-190232061D01*
X141192857Y-190232061D02*
X141169047Y-190279680D01*
X141169047Y-190279680D02*
X141121428Y-190327300D01*
X141121428Y-190327300D02*
X141050000Y-190351109D01*
X141050000Y-190351109D02*
X141002381Y-190351109D01*
X141002381Y-190351109D02*
X140930952Y-190327300D01*
X140930952Y-190327300D02*
X140907143Y-190303490D01*
X140907143Y-190303490D02*
X140907143Y-190136823D01*
X140907143Y-190136823D02*
X141002381Y-190136823D01*
X140692857Y-190351109D02*
X140692857Y-189851109D01*
X140692857Y-189851109D02*
X140407143Y-190351109D01*
X140407143Y-190351109D02*
X140407143Y-189851109D01*
X140169047Y-190351109D02*
X140169047Y-189851109D01*
X140169047Y-189851109D02*
X140049999Y-189851109D01*
X140049999Y-189851109D02*
X139978571Y-189874919D01*
X139978571Y-189874919D02*
X139930952Y-189922538D01*
X139930952Y-189922538D02*
X139907142Y-189970157D01*
X139907142Y-189970157D02*
X139883333Y-190065395D01*
X139883333Y-190065395D02*
X139883333Y-190136823D01*
X139883333Y-190136823D02*
X139907142Y-190232061D01*
X139907142Y-190232061D02*
X139930952Y-190279680D01*
X139930952Y-190279680D02*
X139978571Y-190327300D01*
X139978571Y-190327300D02*
X140049999Y-190351109D01*
X140049999Y-190351109D02*
X140169047Y-190351109D01*
X141191665Y-191351109D02*
X141024999Y-191851109D01*
X141024999Y-191851109D02*
X140858332Y-191351109D01*
X140691666Y-191851109D02*
X140691666Y-191351109D01*
X140691666Y-191351109D02*
X140572618Y-191351109D01*
X140572618Y-191351109D02*
X140501190Y-191374919D01*
X140501190Y-191374919D02*
X140453571Y-191422538D01*
X140453571Y-191422538D02*
X140429761Y-191470157D01*
X140429761Y-191470157D02*
X140405952Y-191565395D01*
X140405952Y-191565395D02*
X140405952Y-191636823D01*
X140405952Y-191636823D02*
X140429761Y-191732061D01*
X140429761Y-191732061D02*
X140453571Y-191779680D01*
X140453571Y-191779680D02*
X140501190Y-191827300D01*
X140501190Y-191827300D02*
X140572618Y-191851109D01*
X140572618Y-191851109D02*
X140691666Y-191851109D01*
X140191666Y-191851109D02*
X140191666Y-191351109D01*
X140191666Y-191351109D02*
X140072618Y-191351109D01*
X140072618Y-191351109D02*
X140001190Y-191374919D01*
X140001190Y-191374919D02*
X139953571Y-191422538D01*
X139953571Y-191422538D02*
X139929761Y-191470157D01*
X139929761Y-191470157D02*
X139905952Y-191565395D01*
X139905952Y-191565395D02*
X139905952Y-191636823D01*
X139905952Y-191636823D02*
X139929761Y-191732061D01*
X139929761Y-191732061D02*
X139953571Y-191779680D01*
X139953571Y-191779680D02*
X140001190Y-191827300D01*
X140001190Y-191827300D02*
X140072618Y-191851109D01*
X140072618Y-191851109D02*
X140191666Y-191851109D01*
X140811904Y-189076109D02*
X140811904Y-188576109D01*
X140811904Y-188576109D02*
X140692856Y-188576109D01*
X140692856Y-188576109D02*
X140621428Y-188599919D01*
X140621428Y-188599919D02*
X140573809Y-188647538D01*
X140573809Y-188647538D02*
X140549999Y-188695157D01*
X140549999Y-188695157D02*
X140526190Y-188790395D01*
X140526190Y-188790395D02*
X140526190Y-188861823D01*
X140526190Y-188861823D02*
X140549999Y-188957061D01*
X140549999Y-188957061D02*
X140573809Y-189004680D01*
X140573809Y-189004680D02*
X140621428Y-189052300D01*
X140621428Y-189052300D02*
X140692856Y-189076109D01*
X140692856Y-189076109D02*
X140811904Y-189076109D01*
X140311904Y-189076109D02*
X140311904Y-188576109D01*
X140073809Y-189076109D02*
X140073809Y-188576109D01*
X140073809Y-188576109D02*
X139788095Y-189076109D01*
X139788095Y-189076109D02*
X139788095Y-188576109D01*
X141645238Y-193076109D02*
X141645238Y-192576109D01*
X141645238Y-192576109D02*
X141526190Y-192576109D01*
X141526190Y-192576109D02*
X141454762Y-192599919D01*
X141454762Y-192599919D02*
X141407143Y-192647538D01*
X141407143Y-192647538D02*
X141383333Y-192695157D01*
X141383333Y-192695157D02*
X141359524Y-192790395D01*
X141359524Y-192790395D02*
X141359524Y-192861823D01*
X141359524Y-192861823D02*
X141383333Y-192957061D01*
X141383333Y-192957061D02*
X141407143Y-193004680D01*
X141407143Y-193004680D02*
X141454762Y-193052300D01*
X141454762Y-193052300D02*
X141526190Y-193076109D01*
X141526190Y-193076109D02*
X141645238Y-193076109D01*
X141050000Y-192576109D02*
X140954762Y-192576109D01*
X140954762Y-192576109D02*
X140907143Y-192599919D01*
X140907143Y-192599919D02*
X140859524Y-192647538D01*
X140859524Y-192647538D02*
X140835714Y-192742776D01*
X140835714Y-192742776D02*
X140835714Y-192909442D01*
X140835714Y-192909442D02*
X140859524Y-193004680D01*
X140859524Y-193004680D02*
X140907143Y-193052300D01*
X140907143Y-193052300D02*
X140954762Y-193076109D01*
X140954762Y-193076109D02*
X141050000Y-193076109D01*
X141050000Y-193076109D02*
X141097619Y-193052300D01*
X141097619Y-193052300D02*
X141145238Y-193004680D01*
X141145238Y-193004680D02*
X141169047Y-192909442D01*
X141169047Y-192909442D02*
X141169047Y-192742776D01*
X141169047Y-192742776D02*
X141145238Y-192647538D01*
X141145238Y-192647538D02*
X141097619Y-192599919D01*
X141097619Y-192599919D02*
X141050000Y-192576109D01*
X140621428Y-192576109D02*
X140621428Y-192980871D01*
X140621428Y-192980871D02*
X140597618Y-193028490D01*
X140597618Y-193028490D02*
X140573809Y-193052300D01*
X140573809Y-193052300D02*
X140526190Y-193076109D01*
X140526190Y-193076109D02*
X140430952Y-193076109D01*
X140430952Y-193076109D02*
X140383333Y-193052300D01*
X140383333Y-193052300D02*
X140359523Y-193028490D01*
X140359523Y-193028490D02*
X140335714Y-192980871D01*
X140335714Y-192980871D02*
X140335714Y-192576109D01*
X140169046Y-192576109D02*
X139883332Y-192576109D01*
X140026189Y-193076109D02*
X140026189Y-192576109D01*
D10*
X96357142Y-205015419D02*
X96309523Y-204967800D01*
X96309523Y-204967800D02*
X96166666Y-204920180D01*
X96166666Y-204920180D02*
X96071428Y-204920180D01*
X96071428Y-204920180D02*
X95928571Y-204967800D01*
X95928571Y-204967800D02*
X95833333Y-205063038D01*
X95833333Y-205063038D02*
X95785714Y-205158276D01*
X95785714Y-205158276D02*
X95738095Y-205348752D01*
X95738095Y-205348752D02*
X95738095Y-205491609D01*
X95738095Y-205491609D02*
X95785714Y-205682085D01*
X95785714Y-205682085D02*
X95833333Y-205777323D01*
X95833333Y-205777323D02*
X95928571Y-205872561D01*
X95928571Y-205872561D02*
X96071428Y-205920180D01*
X96071428Y-205920180D02*
X96166666Y-205920180D01*
X96166666Y-205920180D02*
X96309523Y-205872561D01*
X96309523Y-205872561D02*
X96357142Y-205824942D01*
X97309523Y-204920180D02*
X96738095Y-204920180D01*
X97023809Y-204920180D02*
X97023809Y-205920180D01*
X97023809Y-205920180D02*
X96928571Y-205777323D01*
X96928571Y-205777323D02*
X96833333Y-205682085D01*
X96833333Y-205682085D02*
X96738095Y-205634466D01*
X97928571Y-205920180D02*
X98023809Y-205920180D01*
X98023809Y-205920180D02*
X98119047Y-205872561D01*
X98119047Y-205872561D02*
X98166666Y-205824942D01*
X98166666Y-205824942D02*
X98214285Y-205729704D01*
X98214285Y-205729704D02*
X98261904Y-205539228D01*
X98261904Y-205539228D02*
X98261904Y-205301133D01*
X98261904Y-205301133D02*
X98214285Y-205110657D01*
X98214285Y-205110657D02*
X98166666Y-205015419D01*
X98166666Y-205015419D02*
X98119047Y-204967800D01*
X98119047Y-204967800D02*
X98023809Y-204920180D01*
X98023809Y-204920180D02*
X97928571Y-204920180D01*
X97928571Y-204920180D02*
X97833333Y-204967800D01*
X97833333Y-204967800D02*
X97785714Y-205015419D01*
X97785714Y-205015419D02*
X97738095Y-205110657D01*
X97738095Y-205110657D02*
X97690476Y-205301133D01*
X97690476Y-205301133D02*
X97690476Y-205539228D01*
X97690476Y-205539228D02*
X97738095Y-205729704D01*
X97738095Y-205729704D02*
X97785714Y-205824942D01*
X97785714Y-205824942D02*
X97833333Y-205872561D01*
X97833333Y-205872561D02*
X97928571Y-205920180D01*
D11*
X149914286Y-201557337D02*
X149914286Y-202757337D01*
X149914286Y-202757337D02*
X150200000Y-202757337D01*
X150200000Y-202757337D02*
X150371429Y-202700194D01*
X150371429Y-202700194D02*
X150485714Y-202585908D01*
X150485714Y-202585908D02*
X150542857Y-202471622D01*
X150542857Y-202471622D02*
X150600000Y-202243051D01*
X150600000Y-202243051D02*
X150600000Y-202071622D01*
X150600000Y-202071622D02*
X150542857Y-201843051D01*
X150542857Y-201843051D02*
X150485714Y-201728765D01*
X150485714Y-201728765D02*
X150371429Y-201614480D01*
X150371429Y-201614480D02*
X150200000Y-201557337D01*
X150200000Y-201557337D02*
X149914286Y-201557337D01*
X151685714Y-202757337D02*
X151114286Y-202757337D01*
X151114286Y-202757337D02*
X151057143Y-202185908D01*
X151057143Y-202185908D02*
X151114286Y-202243051D01*
X151114286Y-202243051D02*
X151228572Y-202300194D01*
X151228572Y-202300194D02*
X151514286Y-202300194D01*
X151514286Y-202300194D02*
X151628572Y-202243051D01*
X151628572Y-202243051D02*
X151685714Y-202185908D01*
X151685714Y-202185908D02*
X151742857Y-202071622D01*
X151742857Y-202071622D02*
X151742857Y-201785908D01*
X151742857Y-201785908D02*
X151685714Y-201671622D01*
X151685714Y-201671622D02*
X151628572Y-201614480D01*
X151628572Y-201614480D02*
X151514286Y-201557337D01*
X151514286Y-201557337D02*
X151228572Y-201557337D01*
X151228572Y-201557337D02*
X151114286Y-201614480D01*
X151114286Y-201614480D02*
X151057143Y-201671622D01*
D10*
X155862295Y-191066667D02*
X155481342Y-190800000D01*
X155862295Y-190609524D02*
X155062295Y-190609524D01*
X155062295Y-190609524D02*
X155062295Y-190914286D01*
X155062295Y-190914286D02*
X155100390Y-190990476D01*
X155100390Y-190990476D02*
X155138485Y-191028571D01*
X155138485Y-191028571D02*
X155214676Y-191066667D01*
X155214676Y-191066667D02*
X155328961Y-191066667D01*
X155328961Y-191066667D02*
X155405152Y-191028571D01*
X155405152Y-191028571D02*
X155443247Y-190990476D01*
X155443247Y-190990476D02*
X155481342Y-190914286D01*
X155481342Y-190914286D02*
X155481342Y-190609524D01*
X155062295Y-191790476D02*
X155062295Y-191409524D01*
X155062295Y-191409524D02*
X155443247Y-191371428D01*
X155443247Y-191371428D02*
X155405152Y-191409524D01*
X155405152Y-191409524D02*
X155367057Y-191485714D01*
X155367057Y-191485714D02*
X155367057Y-191676190D01*
X155367057Y-191676190D02*
X155405152Y-191752381D01*
X155405152Y-191752381D02*
X155443247Y-191790476D01*
X155443247Y-191790476D02*
X155519438Y-191828571D01*
X155519438Y-191828571D02*
X155709914Y-191828571D01*
X155709914Y-191828571D02*
X155786104Y-191790476D01*
X155786104Y-191790476D02*
X155824200Y-191752381D01*
X155824200Y-191752381D02*
X155862295Y-191676190D01*
X155862295Y-191676190D02*
X155862295Y-191485714D01*
X155862295Y-191485714D02*
X155824200Y-191409524D01*
X155824200Y-191409524D02*
X155786104Y-191371428D01*
X158733333Y-72124819D02*
X158733333Y-72839104D01*
X158733333Y-72839104D02*
X158780952Y-72981961D01*
X158780952Y-72981961D02*
X158876190Y-73077200D01*
X158876190Y-73077200D02*
X159019047Y-73124819D01*
X159019047Y-73124819D02*
X159114285Y-73124819D01*
X158304761Y-72220057D02*
X158257142Y-72172438D01*
X158257142Y-72172438D02*
X158161904Y-72124819D01*
X158161904Y-72124819D02*
X157923809Y-72124819D01*
X157923809Y-72124819D02*
X157828571Y-72172438D01*
X157828571Y-72172438D02*
X157780952Y-72220057D01*
X157780952Y-72220057D02*
X157733333Y-72315295D01*
X157733333Y-72315295D02*
X157733333Y-72410533D01*
X157733333Y-72410533D02*
X157780952Y-72553390D01*
X157780952Y-72553390D02*
X158352380Y-73124819D01*
X158352380Y-73124819D02*
X157733333Y-73124819D01*
X116796667Y-129637704D02*
X116530000Y-130018657D01*
X116339524Y-129637704D02*
X116339524Y-130437704D01*
X116339524Y-130437704D02*
X116644286Y-130437704D01*
X116644286Y-130437704D02*
X116720476Y-130399609D01*
X116720476Y-130399609D02*
X116758571Y-130361514D01*
X116758571Y-130361514D02*
X116796667Y-130285323D01*
X116796667Y-130285323D02*
X116796667Y-130171038D01*
X116796667Y-130171038D02*
X116758571Y-130094847D01*
X116758571Y-130094847D02*
X116720476Y-130056752D01*
X116720476Y-130056752D02*
X116644286Y-130018657D01*
X116644286Y-130018657D02*
X116339524Y-130018657D01*
X117063333Y-130437704D02*
X117596667Y-130437704D01*
X117596667Y-130437704D02*
X117253809Y-129637704D01*
X105000000Y-23269771D02*
X104800000Y-23869771D01*
X104800000Y-23869771D02*
X104600000Y-23269771D01*
X104057142Y-23812628D02*
X104085714Y-23841200D01*
X104085714Y-23841200D02*
X104171428Y-23869771D01*
X104171428Y-23869771D02*
X104228571Y-23869771D01*
X104228571Y-23869771D02*
X104314285Y-23841200D01*
X104314285Y-23841200D02*
X104371428Y-23784057D01*
X104371428Y-23784057D02*
X104399999Y-23726914D01*
X104399999Y-23726914D02*
X104428571Y-23612628D01*
X104428571Y-23612628D02*
X104428571Y-23526914D01*
X104428571Y-23526914D02*
X104399999Y-23412628D01*
X104399999Y-23412628D02*
X104371428Y-23355485D01*
X104371428Y-23355485D02*
X104314285Y-23298342D01*
X104314285Y-23298342D02*
X104228571Y-23269771D01*
X104228571Y-23269771D02*
X104171428Y-23269771D01*
X104171428Y-23269771D02*
X104085714Y-23298342D01*
X104085714Y-23298342D02*
X104057142Y-23326914D01*
X103457142Y-23812628D02*
X103485714Y-23841200D01*
X103485714Y-23841200D02*
X103571428Y-23869771D01*
X103571428Y-23869771D02*
X103628571Y-23869771D01*
X103628571Y-23869771D02*
X103714285Y-23841200D01*
X103714285Y-23841200D02*
X103771428Y-23784057D01*
X103771428Y-23784057D02*
X103799999Y-23726914D01*
X103799999Y-23726914D02*
X103828571Y-23612628D01*
X103828571Y-23612628D02*
X103828571Y-23526914D01*
X103828571Y-23526914D02*
X103799999Y-23412628D01*
X103799999Y-23412628D02*
X103771428Y-23355485D01*
X103771428Y-23355485D02*
X103714285Y-23298342D01*
X103714285Y-23298342D02*
X103628571Y-23269771D01*
X103628571Y-23269771D02*
X103571428Y-23269771D01*
X103571428Y-23269771D02*
X103485714Y-23298342D01*
X103485714Y-23298342D02*
X103457142Y-23326914D01*
X117340476Y-23224200D02*
X117226190Y-23262295D01*
X117226190Y-23262295D02*
X117035714Y-23262295D01*
X117035714Y-23262295D02*
X116959523Y-23224200D01*
X116959523Y-23224200D02*
X116921428Y-23186104D01*
X116921428Y-23186104D02*
X116883333Y-23109914D01*
X116883333Y-23109914D02*
X116883333Y-23033723D01*
X116883333Y-23033723D02*
X116921428Y-22957533D01*
X116921428Y-22957533D02*
X116959523Y-22919438D01*
X116959523Y-22919438D02*
X117035714Y-22881342D01*
X117035714Y-22881342D02*
X117188095Y-22843247D01*
X117188095Y-22843247D02*
X117264285Y-22805152D01*
X117264285Y-22805152D02*
X117302380Y-22767057D01*
X117302380Y-22767057D02*
X117340476Y-22690866D01*
X117340476Y-22690866D02*
X117340476Y-22614676D01*
X117340476Y-22614676D02*
X117302380Y-22538485D01*
X117302380Y-22538485D02*
X117264285Y-22500390D01*
X117264285Y-22500390D02*
X117188095Y-22462295D01*
X117188095Y-22462295D02*
X116997618Y-22462295D01*
X116997618Y-22462295D02*
X116883333Y-22500390D01*
X116578571Y-23033723D02*
X116197618Y-23033723D01*
X116654761Y-23262295D02*
X116388094Y-22462295D01*
X116388094Y-22462295D02*
X116121428Y-23262295D01*
X115702380Y-22462295D02*
X115549999Y-22462295D01*
X115549999Y-22462295D02*
X115473809Y-22500390D01*
X115473809Y-22500390D02*
X115397618Y-22576580D01*
X115397618Y-22576580D02*
X115359523Y-22728961D01*
X115359523Y-22728961D02*
X115359523Y-22995628D01*
X115359523Y-22995628D02*
X115397618Y-23148009D01*
X115397618Y-23148009D02*
X115473809Y-23224200D01*
X115473809Y-23224200D02*
X115549999Y-23262295D01*
X115549999Y-23262295D02*
X115702380Y-23262295D01*
X115702380Y-23262295D02*
X115778571Y-23224200D01*
X115778571Y-23224200D02*
X115854761Y-23148009D01*
X115854761Y-23148009D02*
X115892857Y-22995628D01*
X115892857Y-22995628D02*
X115892857Y-22728961D01*
X115892857Y-22728961D02*
X115854761Y-22576580D01*
X115854761Y-22576580D02*
X115778571Y-22500390D01*
X115778571Y-22500390D02*
X115702380Y-22462295D01*
D12*
X116808085Y-24098497D02*
X116808085Y-23898497D01*
X117122371Y-23898497D02*
X116522371Y-23898497D01*
X116522371Y-23898497D02*
X116522371Y-24184211D01*
X117122371Y-24755640D02*
X116836657Y-24555640D01*
X117122371Y-24412783D02*
X116522371Y-24412783D01*
X116522371Y-24412783D02*
X116522371Y-24641354D01*
X116522371Y-24641354D02*
X116550942Y-24698497D01*
X116550942Y-24698497D02*
X116579514Y-24727068D01*
X116579514Y-24727068D02*
X116636657Y-24755640D01*
X116636657Y-24755640D02*
X116722371Y-24755640D01*
X116722371Y-24755640D02*
X116779514Y-24727068D01*
X116779514Y-24727068D02*
X116808085Y-24698497D01*
X116808085Y-24698497D02*
X116836657Y-24641354D01*
X116836657Y-24641354D02*
X116836657Y-24412783D01*
X116522371Y-25127068D02*
X116522371Y-25241354D01*
X116522371Y-25241354D02*
X116550942Y-25298497D01*
X116550942Y-25298497D02*
X116608085Y-25355640D01*
X116608085Y-25355640D02*
X116722371Y-25384211D01*
X116722371Y-25384211D02*
X116922371Y-25384211D01*
X116922371Y-25384211D02*
X117036657Y-25355640D01*
X117036657Y-25355640D02*
X117093800Y-25298497D01*
X117093800Y-25298497D02*
X117122371Y-25241354D01*
X117122371Y-25241354D02*
X117122371Y-25127068D01*
X117122371Y-25127068D02*
X117093800Y-25069926D01*
X117093800Y-25069926D02*
X117036657Y-25012783D01*
X117036657Y-25012783D02*
X116922371Y-24984211D01*
X116922371Y-24984211D02*
X116722371Y-24984211D01*
X116722371Y-24984211D02*
X116608085Y-25012783D01*
X116608085Y-25012783D02*
X116550942Y-25069926D01*
X116550942Y-25069926D02*
X116522371Y-25127068D01*
X117122371Y-25641354D02*
X116522371Y-25641354D01*
X116522371Y-25641354D02*
X117122371Y-25984211D01*
X117122371Y-25984211D02*
X116522371Y-25984211D01*
X116522371Y-26184210D02*
X116522371Y-26527068D01*
X117122371Y-26355639D02*
X116522371Y-26355639D01*
D10*
X104657142Y-25898342D02*
X104714285Y-25869771D01*
X104714285Y-25869771D02*
X104799999Y-25869771D01*
X104799999Y-25869771D02*
X104885713Y-25898342D01*
X104885713Y-25898342D02*
X104942856Y-25955485D01*
X104942856Y-25955485D02*
X104971427Y-26012628D01*
X104971427Y-26012628D02*
X104999999Y-26126914D01*
X104999999Y-26126914D02*
X104999999Y-26212628D01*
X104999999Y-26212628D02*
X104971427Y-26326914D01*
X104971427Y-26326914D02*
X104942856Y-26384057D01*
X104942856Y-26384057D02*
X104885713Y-26441200D01*
X104885713Y-26441200D02*
X104799999Y-26469771D01*
X104799999Y-26469771D02*
X104742856Y-26469771D01*
X104742856Y-26469771D02*
X104657142Y-26441200D01*
X104657142Y-26441200D02*
X104628570Y-26412628D01*
X104628570Y-26412628D02*
X104628570Y-26212628D01*
X104628570Y-26212628D02*
X104742856Y-26212628D01*
X104371427Y-26469771D02*
X104371427Y-25869771D01*
X104371427Y-25869771D02*
X104028570Y-26469771D01*
X104028570Y-26469771D02*
X104028570Y-25869771D01*
X103742856Y-26469771D02*
X103742856Y-25869771D01*
X103742856Y-25869771D02*
X103599999Y-25869771D01*
X103599999Y-25869771D02*
X103514285Y-25898342D01*
X103514285Y-25898342D02*
X103457142Y-25955485D01*
X103457142Y-25955485D02*
X103428571Y-26012628D01*
X103428571Y-26012628D02*
X103399999Y-26126914D01*
X103399999Y-26126914D02*
X103399999Y-26212628D01*
X103399999Y-26212628D02*
X103428571Y-26326914D01*
X103428571Y-26326914D02*
X103457142Y-26384057D01*
X103457142Y-26384057D02*
X103514285Y-26441200D01*
X103514285Y-26441200D02*
X103599999Y-26469771D01*
X103599999Y-26469771D02*
X103742856Y-26469771D01*
D12*
X116122371Y-23698496D02*
X115522371Y-23698496D01*
X115522371Y-23698496D02*
X115522371Y-23927067D01*
X115522371Y-23927067D02*
X115550942Y-23984210D01*
X115550942Y-23984210D02*
X115579514Y-24012781D01*
X115579514Y-24012781D02*
X115636657Y-24041353D01*
X115636657Y-24041353D02*
X115722371Y-24041353D01*
X115722371Y-24041353D02*
X115779514Y-24012781D01*
X115779514Y-24012781D02*
X115808085Y-23984210D01*
X115808085Y-23984210D02*
X115836657Y-23927067D01*
X115836657Y-23927067D02*
X115836657Y-23698496D01*
X116122371Y-24384210D02*
X116093800Y-24327067D01*
X116093800Y-24327067D02*
X116036657Y-24298496D01*
X116036657Y-24298496D02*
X115522371Y-24298496D01*
X116122371Y-24869925D02*
X115808085Y-24869925D01*
X115808085Y-24869925D02*
X115750942Y-24841353D01*
X115750942Y-24841353D02*
X115722371Y-24784210D01*
X115722371Y-24784210D02*
X115722371Y-24669925D01*
X115722371Y-24669925D02*
X115750942Y-24612782D01*
X116093800Y-24869925D02*
X116122371Y-24812782D01*
X116122371Y-24812782D02*
X116122371Y-24669925D01*
X116122371Y-24669925D02*
X116093800Y-24612782D01*
X116093800Y-24612782D02*
X116036657Y-24584210D01*
X116036657Y-24584210D02*
X115979514Y-24584210D01*
X115979514Y-24584210D02*
X115922371Y-24612782D01*
X115922371Y-24612782D02*
X115893800Y-24669925D01*
X115893800Y-24669925D02*
X115893800Y-24812782D01*
X115893800Y-24812782D02*
X115865228Y-24869925D01*
X116093800Y-25412782D02*
X116122371Y-25355639D01*
X116122371Y-25355639D02*
X116122371Y-25241353D01*
X116122371Y-25241353D02*
X116093800Y-25184210D01*
X116093800Y-25184210D02*
X116065228Y-25155639D01*
X116065228Y-25155639D02*
X116008085Y-25127067D01*
X116008085Y-25127067D02*
X115836657Y-25127067D01*
X115836657Y-25127067D02*
X115779514Y-25155639D01*
X115779514Y-25155639D02*
X115750942Y-25184210D01*
X115750942Y-25184210D02*
X115722371Y-25241353D01*
X115722371Y-25241353D02*
X115722371Y-25355639D01*
X115722371Y-25355639D02*
X115750942Y-25412782D01*
X116093800Y-25898496D02*
X116122371Y-25841353D01*
X116122371Y-25841353D02*
X116122371Y-25727068D01*
X116122371Y-25727068D02*
X116093800Y-25669925D01*
X116093800Y-25669925D02*
X116036657Y-25641353D01*
X116036657Y-25641353D02*
X115808085Y-25641353D01*
X115808085Y-25641353D02*
X115750942Y-25669925D01*
X115750942Y-25669925D02*
X115722371Y-25727068D01*
X115722371Y-25727068D02*
X115722371Y-25841353D01*
X115722371Y-25841353D02*
X115750942Y-25898496D01*
X115750942Y-25898496D02*
X115808085Y-25927068D01*
X115808085Y-25927068D02*
X115865228Y-25927068D01*
X115865228Y-25927068D02*
X115922371Y-25641353D01*
X116122371Y-26727068D02*
X116093800Y-26669925D01*
X116093800Y-26669925D02*
X116065228Y-26641354D01*
X116065228Y-26641354D02*
X116008085Y-26612782D01*
X116008085Y-26612782D02*
X115836657Y-26612782D01*
X115836657Y-26612782D02*
X115779514Y-26641354D01*
X115779514Y-26641354D02*
X115750942Y-26669925D01*
X115750942Y-26669925D02*
X115722371Y-26727068D01*
X115722371Y-26727068D02*
X115722371Y-26812782D01*
X115722371Y-26812782D02*
X115750942Y-26869925D01*
X115750942Y-26869925D02*
X115779514Y-26898497D01*
X115779514Y-26898497D02*
X115836657Y-26927068D01*
X115836657Y-26927068D02*
X116008085Y-26927068D01*
X116008085Y-26927068D02*
X116065228Y-26898497D01*
X116065228Y-26898497D02*
X116093800Y-26869925D01*
X116093800Y-26869925D02*
X116122371Y-26812782D01*
X116122371Y-26812782D02*
X116122371Y-26727068D01*
X115722371Y-27184211D02*
X116122371Y-27184211D01*
X115779514Y-27184211D02*
X115750942Y-27212782D01*
X115750942Y-27212782D02*
X115722371Y-27269925D01*
X115722371Y-27269925D02*
X115722371Y-27355639D01*
X115722371Y-27355639D02*
X115750942Y-27412782D01*
X115750942Y-27412782D02*
X115808085Y-27441354D01*
X115808085Y-27441354D02*
X116122371Y-27441354D01*
D10*
X113899999Y-23348342D02*
X113957142Y-23319771D01*
X113957142Y-23319771D02*
X114042856Y-23319771D01*
X114042856Y-23319771D02*
X114128570Y-23348342D01*
X114128570Y-23348342D02*
X114185713Y-23405485D01*
X114185713Y-23405485D02*
X114214284Y-23462628D01*
X114214284Y-23462628D02*
X114242856Y-23576914D01*
X114242856Y-23576914D02*
X114242856Y-23662628D01*
X114242856Y-23662628D02*
X114214284Y-23776914D01*
X114214284Y-23776914D02*
X114185713Y-23834057D01*
X114185713Y-23834057D02*
X114128570Y-23891200D01*
X114128570Y-23891200D02*
X114042856Y-23919771D01*
X114042856Y-23919771D02*
X113985713Y-23919771D01*
X113985713Y-23919771D02*
X113899999Y-23891200D01*
X113899999Y-23891200D02*
X113871427Y-23862628D01*
X113871427Y-23862628D02*
X113871427Y-23662628D01*
X113871427Y-23662628D02*
X113985713Y-23662628D01*
X113614284Y-23919771D02*
X113614284Y-23319771D01*
X113614284Y-23319771D02*
X113385713Y-23319771D01*
X113385713Y-23319771D02*
X113328570Y-23348342D01*
X113328570Y-23348342D02*
X113299999Y-23376914D01*
X113299999Y-23376914D02*
X113271427Y-23434057D01*
X113271427Y-23434057D02*
X113271427Y-23519771D01*
X113271427Y-23519771D02*
X113299999Y-23576914D01*
X113299999Y-23576914D02*
X113328570Y-23605485D01*
X113328570Y-23605485D02*
X113385713Y-23634057D01*
X113385713Y-23634057D02*
X113614284Y-23634057D01*
X113014284Y-23919771D02*
X113014284Y-23319771D01*
X112614285Y-23319771D02*
X112499999Y-23319771D01*
X112499999Y-23319771D02*
X112442856Y-23348342D01*
X112442856Y-23348342D02*
X112385713Y-23405485D01*
X112385713Y-23405485D02*
X112357142Y-23519771D01*
X112357142Y-23519771D02*
X112357142Y-23719771D01*
X112357142Y-23719771D02*
X112385713Y-23834057D01*
X112385713Y-23834057D02*
X112442856Y-23891200D01*
X112442856Y-23891200D02*
X112499999Y-23919771D01*
X112499999Y-23919771D02*
X112614285Y-23919771D01*
X112614285Y-23919771D02*
X112671428Y-23891200D01*
X112671428Y-23891200D02*
X112728570Y-23834057D01*
X112728570Y-23834057D02*
X112757142Y-23719771D01*
X112757142Y-23719771D02*
X112757142Y-23519771D01*
X112757142Y-23519771D02*
X112728570Y-23405485D01*
X112728570Y-23405485D02*
X112671428Y-23348342D01*
X112671428Y-23348342D02*
X112614285Y-23319771D01*
D11*
X96550000Y-132264480D02*
X96721429Y-132207337D01*
X96721429Y-132207337D02*
X97007143Y-132207337D01*
X97007143Y-132207337D02*
X97121429Y-132264480D01*
X97121429Y-132264480D02*
X97178571Y-132321622D01*
X97178571Y-132321622D02*
X97235714Y-132435908D01*
X97235714Y-132435908D02*
X97235714Y-132550194D01*
X97235714Y-132550194D02*
X97178571Y-132664480D01*
X97178571Y-132664480D02*
X97121429Y-132721622D01*
X97121429Y-132721622D02*
X97007143Y-132778765D01*
X97007143Y-132778765D02*
X96778571Y-132835908D01*
X96778571Y-132835908D02*
X96664286Y-132893051D01*
X96664286Y-132893051D02*
X96607143Y-132950194D01*
X96607143Y-132950194D02*
X96550000Y-133064480D01*
X96550000Y-133064480D02*
X96550000Y-133178765D01*
X96550000Y-133178765D02*
X96607143Y-133293051D01*
X96607143Y-133293051D02*
X96664286Y-133350194D01*
X96664286Y-133350194D02*
X96778571Y-133407337D01*
X96778571Y-133407337D02*
X97064286Y-133407337D01*
X97064286Y-133407337D02*
X97235714Y-133350194D01*
X97635714Y-133407337D02*
X97921428Y-132207337D01*
X97921428Y-132207337D02*
X98150000Y-133064480D01*
X98150000Y-133064480D02*
X98378571Y-132207337D01*
X98378571Y-132207337D02*
X98664286Y-133407337D01*
X99750000Y-132207337D02*
X99064286Y-132207337D01*
X99407143Y-132207337D02*
X99407143Y-133407337D01*
X99407143Y-133407337D02*
X99292857Y-133235908D01*
X99292857Y-133235908D02*
X99178572Y-133121622D01*
X99178572Y-133121622D02*
X99064286Y-133064480D01*
X110314286Y-131557337D02*
X110314286Y-132757337D01*
X110314286Y-132757337D02*
X110600000Y-132757337D01*
X110600000Y-132757337D02*
X110771429Y-132700194D01*
X110771429Y-132700194D02*
X110885714Y-132585908D01*
X110885714Y-132585908D02*
X110942857Y-132471622D01*
X110942857Y-132471622D02*
X111000000Y-132243051D01*
X111000000Y-132243051D02*
X111000000Y-132071622D01*
X111000000Y-132071622D02*
X110942857Y-131843051D01*
X110942857Y-131843051D02*
X110885714Y-131728765D01*
X110885714Y-131728765D02*
X110771429Y-131614480D01*
X110771429Y-131614480D02*
X110600000Y-131557337D01*
X110600000Y-131557337D02*
X110314286Y-131557337D01*
X111400000Y-132757337D02*
X112200000Y-132757337D01*
X112200000Y-132757337D02*
X111685714Y-131557337D01*
X41600000Y-175857337D02*
X41600000Y-175000194D01*
X41600000Y-175000194D02*
X41542857Y-174828765D01*
X41542857Y-174828765D02*
X41428571Y-174714480D01*
X41428571Y-174714480D02*
X41257143Y-174657337D01*
X41257143Y-174657337D02*
X41142857Y-174657337D01*
X42228572Y-174657337D02*
X42457143Y-174657337D01*
X42457143Y-174657337D02*
X42571429Y-174714480D01*
X42571429Y-174714480D02*
X42628572Y-174771622D01*
X42628572Y-174771622D02*
X42742857Y-174943051D01*
X42742857Y-174943051D02*
X42800000Y-175171622D01*
X42800000Y-175171622D02*
X42800000Y-175628765D01*
X42800000Y-175628765D02*
X42742857Y-175743051D01*
X42742857Y-175743051D02*
X42685715Y-175800194D01*
X42685715Y-175800194D02*
X42571429Y-175857337D01*
X42571429Y-175857337D02*
X42342857Y-175857337D01*
X42342857Y-175857337D02*
X42228572Y-175800194D01*
X42228572Y-175800194D02*
X42171429Y-175743051D01*
X42171429Y-175743051D02*
X42114286Y-175628765D01*
X42114286Y-175628765D02*
X42114286Y-175343051D01*
X42114286Y-175343051D02*
X42171429Y-175228765D01*
X42171429Y-175228765D02*
X42228572Y-175171622D01*
X42228572Y-175171622D02*
X42342857Y-175114480D01*
X42342857Y-175114480D02*
X42571429Y-175114480D01*
X42571429Y-175114480D02*
X42685715Y-175171622D01*
X42685715Y-175171622D02*
X42742857Y-175228765D01*
X42742857Y-175228765D02*
X42800000Y-175343051D01*
X47814286Y-201357337D02*
X47814286Y-202557337D01*
X47814286Y-202557337D02*
X48100000Y-202557337D01*
X48100000Y-202557337D02*
X48271429Y-202500194D01*
X48271429Y-202500194D02*
X48385714Y-202385908D01*
X48385714Y-202385908D02*
X48442857Y-202271622D01*
X48442857Y-202271622D02*
X48500000Y-202043051D01*
X48500000Y-202043051D02*
X48500000Y-201871622D01*
X48500000Y-201871622D02*
X48442857Y-201643051D01*
X48442857Y-201643051D02*
X48385714Y-201528765D01*
X48385714Y-201528765D02*
X48271429Y-201414480D01*
X48271429Y-201414480D02*
X48100000Y-201357337D01*
X48100000Y-201357337D02*
X47814286Y-201357337D01*
X49528572Y-202157337D02*
X49528572Y-201357337D01*
X49242857Y-202614480D02*
X48957143Y-201757337D01*
X48957143Y-201757337D02*
X49700000Y-201757337D01*
X72814286Y-195857337D02*
X72814286Y-197057337D01*
X72814286Y-197057337D02*
X73100000Y-197057337D01*
X73100000Y-197057337D02*
X73271429Y-197000194D01*
X73271429Y-197000194D02*
X73385714Y-196885908D01*
X73385714Y-196885908D02*
X73442857Y-196771622D01*
X73442857Y-196771622D02*
X73500000Y-196543051D01*
X73500000Y-196543051D02*
X73500000Y-196371622D01*
X73500000Y-196371622D02*
X73442857Y-196143051D01*
X73442857Y-196143051D02*
X73385714Y-196028765D01*
X73385714Y-196028765D02*
X73271429Y-195914480D01*
X73271429Y-195914480D02*
X73100000Y-195857337D01*
X73100000Y-195857337D02*
X72814286Y-195857337D01*
X73957143Y-196943051D02*
X74014286Y-197000194D01*
X74014286Y-197000194D02*
X74128572Y-197057337D01*
X74128572Y-197057337D02*
X74414286Y-197057337D01*
X74414286Y-197057337D02*
X74528572Y-197000194D01*
X74528572Y-197000194D02*
X74585714Y-196943051D01*
X74585714Y-196943051D02*
X74642857Y-196828765D01*
X74642857Y-196828765D02*
X74642857Y-196714480D01*
X74642857Y-196714480D02*
X74585714Y-196543051D01*
X74585714Y-196543051D02*
X73900000Y-195857337D01*
X73900000Y-195857337D02*
X74642857Y-195857337D01*
D10*
X108065714Y-196437704D02*
X107799047Y-196818657D01*
X107608571Y-196437704D02*
X107608571Y-197237704D01*
X107608571Y-197237704D02*
X107913333Y-197237704D01*
X107913333Y-197237704D02*
X107989523Y-197199609D01*
X107989523Y-197199609D02*
X108027618Y-197161514D01*
X108027618Y-197161514D02*
X108065714Y-197085323D01*
X108065714Y-197085323D02*
X108065714Y-196971038D01*
X108065714Y-196971038D02*
X108027618Y-196894847D01*
X108027618Y-196894847D02*
X107989523Y-196856752D01*
X107989523Y-196856752D02*
X107913333Y-196818657D01*
X107913333Y-196818657D02*
X107608571Y-196818657D01*
X108827618Y-196437704D02*
X108370475Y-196437704D01*
X108599047Y-196437704D02*
X108599047Y-197237704D01*
X108599047Y-197237704D02*
X108522856Y-197123419D01*
X108522856Y-197123419D02*
X108446666Y-197047228D01*
X108446666Y-197047228D02*
X108370475Y-197009133D01*
X109322857Y-197237704D02*
X109399047Y-197237704D01*
X109399047Y-197237704D02*
X109475238Y-197199609D01*
X109475238Y-197199609D02*
X109513333Y-197161514D01*
X109513333Y-197161514D02*
X109551428Y-197085323D01*
X109551428Y-197085323D02*
X109589523Y-196932942D01*
X109589523Y-196932942D02*
X109589523Y-196742466D01*
X109589523Y-196742466D02*
X109551428Y-196590085D01*
X109551428Y-196590085D02*
X109513333Y-196513895D01*
X109513333Y-196513895D02*
X109475238Y-196475800D01*
X109475238Y-196475800D02*
X109399047Y-196437704D01*
X109399047Y-196437704D02*
X109322857Y-196437704D01*
X109322857Y-196437704D02*
X109246666Y-196475800D01*
X109246666Y-196475800D02*
X109208571Y-196513895D01*
X109208571Y-196513895D02*
X109170476Y-196590085D01*
X109170476Y-196590085D02*
X109132380Y-196742466D01*
X109132380Y-196742466D02*
X109132380Y-196932942D01*
X109132380Y-196932942D02*
X109170476Y-197085323D01*
X109170476Y-197085323D02*
X109208571Y-197161514D01*
X109208571Y-197161514D02*
X109246666Y-197199609D01*
X109246666Y-197199609D02*
X109322857Y-197237704D01*
X46662295Y-191066667D02*
X46281342Y-190800000D01*
X46662295Y-190609524D02*
X45862295Y-190609524D01*
X45862295Y-190609524D02*
X45862295Y-190914286D01*
X45862295Y-190914286D02*
X45900390Y-190990476D01*
X45900390Y-190990476D02*
X45938485Y-191028571D01*
X45938485Y-191028571D02*
X46014676Y-191066667D01*
X46014676Y-191066667D02*
X46128961Y-191066667D01*
X46128961Y-191066667D02*
X46205152Y-191028571D01*
X46205152Y-191028571D02*
X46243247Y-190990476D01*
X46243247Y-190990476D02*
X46281342Y-190914286D01*
X46281342Y-190914286D02*
X46281342Y-190609524D01*
X46128961Y-191752381D02*
X46662295Y-191752381D01*
X45824200Y-191561905D02*
X46395628Y-191371428D01*
X46395628Y-191371428D02*
X46395628Y-191866667D01*
X116085714Y-186637704D02*
X115819047Y-187018657D01*
X115628571Y-186637704D02*
X115628571Y-187437704D01*
X115628571Y-187437704D02*
X115933333Y-187437704D01*
X115933333Y-187437704D02*
X116009523Y-187399609D01*
X116009523Y-187399609D02*
X116047618Y-187361514D01*
X116047618Y-187361514D02*
X116085714Y-187285323D01*
X116085714Y-187285323D02*
X116085714Y-187171038D01*
X116085714Y-187171038D02*
X116047618Y-187094847D01*
X116047618Y-187094847D02*
X116009523Y-187056752D01*
X116009523Y-187056752D02*
X115933333Y-187018657D01*
X115933333Y-187018657D02*
X115628571Y-187018657D01*
X116390475Y-187361514D02*
X116428571Y-187399609D01*
X116428571Y-187399609D02*
X116504761Y-187437704D01*
X116504761Y-187437704D02*
X116695237Y-187437704D01*
X116695237Y-187437704D02*
X116771428Y-187399609D01*
X116771428Y-187399609D02*
X116809523Y-187361514D01*
X116809523Y-187361514D02*
X116847618Y-187285323D01*
X116847618Y-187285323D02*
X116847618Y-187209133D01*
X116847618Y-187209133D02*
X116809523Y-187094847D01*
X116809523Y-187094847D02*
X116352380Y-186637704D01*
X116352380Y-186637704D02*
X116847618Y-186637704D01*
X117342857Y-187437704D02*
X117419047Y-187437704D01*
X117419047Y-187437704D02*
X117495238Y-187399609D01*
X117495238Y-187399609D02*
X117533333Y-187361514D01*
X117533333Y-187361514D02*
X117571428Y-187285323D01*
X117571428Y-187285323D02*
X117609523Y-187132942D01*
X117609523Y-187132942D02*
X117609523Y-186942466D01*
X117609523Y-186942466D02*
X117571428Y-186790085D01*
X117571428Y-186790085D02*
X117533333Y-186713895D01*
X117533333Y-186713895D02*
X117495238Y-186675800D01*
X117495238Y-186675800D02*
X117419047Y-186637704D01*
X117419047Y-186637704D02*
X117342857Y-186637704D01*
X117342857Y-186637704D02*
X117266666Y-186675800D01*
X117266666Y-186675800D02*
X117228571Y-186713895D01*
X117228571Y-186713895D02*
X117190476Y-186790085D01*
X117190476Y-186790085D02*
X117152380Y-186942466D01*
X117152380Y-186942466D02*
X117152380Y-187132942D01*
X117152380Y-187132942D02*
X117190476Y-187285323D01*
X117190476Y-187285323D02*
X117228571Y-187361514D01*
X117228571Y-187361514D02*
X117266666Y-187399609D01*
X117266666Y-187399609D02*
X117342857Y-187437704D01*
D11*
X105542857Y-134957337D02*
X105542857Y-136157337D01*
X105542857Y-136157337D02*
X105828571Y-136157337D01*
X105828571Y-136157337D02*
X106000000Y-136100194D01*
X106000000Y-136100194D02*
X106114285Y-135985908D01*
X106114285Y-135985908D02*
X106171428Y-135871622D01*
X106171428Y-135871622D02*
X106228571Y-135643051D01*
X106228571Y-135643051D02*
X106228571Y-135471622D01*
X106228571Y-135471622D02*
X106171428Y-135243051D01*
X106171428Y-135243051D02*
X106114285Y-135128765D01*
X106114285Y-135128765D02*
X106000000Y-135014480D01*
X106000000Y-135014480D02*
X105828571Y-134957337D01*
X105828571Y-134957337D02*
X105542857Y-134957337D01*
X106685714Y-135014480D02*
X106857143Y-134957337D01*
X106857143Y-134957337D02*
X107142857Y-134957337D01*
X107142857Y-134957337D02*
X107257143Y-135014480D01*
X107257143Y-135014480D02*
X107314285Y-135071622D01*
X107314285Y-135071622D02*
X107371428Y-135185908D01*
X107371428Y-135185908D02*
X107371428Y-135300194D01*
X107371428Y-135300194D02*
X107314285Y-135414480D01*
X107314285Y-135414480D02*
X107257143Y-135471622D01*
X107257143Y-135471622D02*
X107142857Y-135528765D01*
X107142857Y-135528765D02*
X106914285Y-135585908D01*
X106914285Y-135585908D02*
X106800000Y-135643051D01*
X106800000Y-135643051D02*
X106742857Y-135700194D01*
X106742857Y-135700194D02*
X106685714Y-135814480D01*
X106685714Y-135814480D02*
X106685714Y-135928765D01*
X106685714Y-135928765D02*
X106742857Y-136043051D01*
X106742857Y-136043051D02*
X106800000Y-136100194D01*
X106800000Y-136100194D02*
X106914285Y-136157337D01*
X106914285Y-136157337D02*
X107200000Y-136157337D01*
X107200000Y-136157337D02*
X107371428Y-136100194D01*
X108514285Y-134957337D02*
X107828571Y-134957337D01*
X108171428Y-134957337D02*
X108171428Y-136157337D01*
X108171428Y-136157337D02*
X108057142Y-135985908D01*
X108057142Y-135985908D02*
X107942857Y-135871622D01*
X107942857Y-135871622D02*
X107828571Y-135814480D01*
D10*
X111844878Y-137688571D02*
X111809164Y-137617143D01*
X111809164Y-137617143D02*
X111809164Y-137510000D01*
X111809164Y-137510000D02*
X111844878Y-137402857D01*
X111844878Y-137402857D02*
X111916307Y-137331428D01*
X111916307Y-137331428D02*
X111987735Y-137295714D01*
X111987735Y-137295714D02*
X112130592Y-137260000D01*
X112130592Y-137260000D02*
X112237735Y-137260000D01*
X112237735Y-137260000D02*
X112380592Y-137295714D01*
X112380592Y-137295714D02*
X112452021Y-137331428D01*
X112452021Y-137331428D02*
X112523450Y-137402857D01*
X112523450Y-137402857D02*
X112559164Y-137510000D01*
X112559164Y-137510000D02*
X112559164Y-137581428D01*
X112559164Y-137581428D02*
X112523450Y-137688571D01*
X112523450Y-137688571D02*
X112487735Y-137724285D01*
X112487735Y-137724285D02*
X112237735Y-137724285D01*
X112237735Y-137724285D02*
X112237735Y-137581428D01*
X112559164Y-138045714D02*
X111809164Y-138045714D01*
X111809164Y-138045714D02*
X112559164Y-138474285D01*
X112559164Y-138474285D02*
X111809164Y-138474285D01*
X112559164Y-138831428D02*
X111809164Y-138831428D01*
X111809164Y-138831428D02*
X111809164Y-139009999D01*
X111809164Y-139009999D02*
X111844878Y-139117142D01*
X111844878Y-139117142D02*
X111916307Y-139188571D01*
X111916307Y-139188571D02*
X111987735Y-139224285D01*
X111987735Y-139224285D02*
X112130592Y-139259999D01*
X112130592Y-139259999D02*
X112237735Y-139259999D01*
X112237735Y-139259999D02*
X112380592Y-139224285D01*
X112380592Y-139224285D02*
X112452021Y-139188571D01*
X112452021Y-139188571D02*
X112523450Y-139117142D01*
X112523450Y-139117142D02*
X112559164Y-139009999D01*
X112559164Y-139009999D02*
X112559164Y-138831428D01*
X100059164Y-137849285D02*
X99702021Y-137599285D01*
X100059164Y-137420714D02*
X99309164Y-137420714D01*
X99309164Y-137420714D02*
X99309164Y-137706428D01*
X99309164Y-137706428D02*
X99344878Y-137777857D01*
X99344878Y-137777857D02*
X99380592Y-137813571D01*
X99380592Y-137813571D02*
X99452021Y-137849285D01*
X99452021Y-137849285D02*
X99559164Y-137849285D01*
X99559164Y-137849285D02*
X99630592Y-137813571D01*
X99630592Y-137813571D02*
X99666307Y-137777857D01*
X99666307Y-137777857D02*
X99702021Y-137706428D01*
X99702021Y-137706428D02*
X99702021Y-137420714D01*
X100023450Y-138135000D02*
X100059164Y-138242143D01*
X100059164Y-138242143D02*
X100059164Y-138420714D01*
X100059164Y-138420714D02*
X100023450Y-138492143D01*
X100023450Y-138492143D02*
X99987735Y-138527857D01*
X99987735Y-138527857D02*
X99916307Y-138563571D01*
X99916307Y-138563571D02*
X99844878Y-138563571D01*
X99844878Y-138563571D02*
X99773450Y-138527857D01*
X99773450Y-138527857D02*
X99737735Y-138492143D01*
X99737735Y-138492143D02*
X99702021Y-138420714D01*
X99702021Y-138420714D02*
X99666307Y-138277857D01*
X99666307Y-138277857D02*
X99630592Y-138206428D01*
X99630592Y-138206428D02*
X99594878Y-138170714D01*
X99594878Y-138170714D02*
X99523450Y-138135000D01*
X99523450Y-138135000D02*
X99452021Y-138135000D01*
X99452021Y-138135000D02*
X99380592Y-138170714D01*
X99380592Y-138170714D02*
X99344878Y-138206428D01*
X99344878Y-138206428D02*
X99309164Y-138277857D01*
X99309164Y-138277857D02*
X99309164Y-138456428D01*
X99309164Y-138456428D02*
X99344878Y-138563571D01*
X99309164Y-138777857D02*
X99309164Y-139206429D01*
X100059164Y-138992143D02*
X99309164Y-138992143D01*
X110023450Y-137367143D02*
X110059164Y-137474286D01*
X110059164Y-137474286D02*
X110059164Y-137652857D01*
X110059164Y-137652857D02*
X110023450Y-137724286D01*
X110023450Y-137724286D02*
X109987735Y-137760000D01*
X109987735Y-137760000D02*
X109916307Y-137795714D01*
X109916307Y-137795714D02*
X109844878Y-137795714D01*
X109844878Y-137795714D02*
X109773450Y-137760000D01*
X109773450Y-137760000D02*
X109737735Y-137724286D01*
X109737735Y-137724286D02*
X109702021Y-137652857D01*
X109702021Y-137652857D02*
X109666307Y-137510000D01*
X109666307Y-137510000D02*
X109630592Y-137438571D01*
X109630592Y-137438571D02*
X109594878Y-137402857D01*
X109594878Y-137402857D02*
X109523450Y-137367143D01*
X109523450Y-137367143D02*
X109452021Y-137367143D01*
X109452021Y-137367143D02*
X109380592Y-137402857D01*
X109380592Y-137402857D02*
X109344878Y-137438571D01*
X109344878Y-137438571D02*
X109309164Y-137510000D01*
X109309164Y-137510000D02*
X109309164Y-137688571D01*
X109309164Y-137688571D02*
X109344878Y-137795714D01*
X109987735Y-138545714D02*
X110023450Y-138510000D01*
X110023450Y-138510000D02*
X110059164Y-138402857D01*
X110059164Y-138402857D02*
X110059164Y-138331429D01*
X110059164Y-138331429D02*
X110023450Y-138224286D01*
X110023450Y-138224286D02*
X109952021Y-138152857D01*
X109952021Y-138152857D02*
X109880592Y-138117143D01*
X109880592Y-138117143D02*
X109737735Y-138081429D01*
X109737735Y-138081429D02*
X109630592Y-138081429D01*
X109630592Y-138081429D02*
X109487735Y-138117143D01*
X109487735Y-138117143D02*
X109416307Y-138152857D01*
X109416307Y-138152857D02*
X109344878Y-138224286D01*
X109344878Y-138224286D02*
X109309164Y-138331429D01*
X109309164Y-138331429D02*
X109309164Y-138402857D01*
X109309164Y-138402857D02*
X109344878Y-138510000D01*
X109344878Y-138510000D02*
X109380592Y-138545714D01*
X110059164Y-139224286D02*
X110059164Y-138867143D01*
X110059164Y-138867143D02*
X109309164Y-138867143D01*
X107453450Y-137349286D02*
X107489164Y-137456429D01*
X107489164Y-137456429D02*
X107489164Y-137635000D01*
X107489164Y-137635000D02*
X107453450Y-137706429D01*
X107453450Y-137706429D02*
X107417735Y-137742143D01*
X107417735Y-137742143D02*
X107346307Y-137777857D01*
X107346307Y-137777857D02*
X107274878Y-137777857D01*
X107274878Y-137777857D02*
X107203450Y-137742143D01*
X107203450Y-137742143D02*
X107167735Y-137706429D01*
X107167735Y-137706429D02*
X107132021Y-137635000D01*
X107132021Y-137635000D02*
X107096307Y-137492143D01*
X107096307Y-137492143D02*
X107060592Y-137420714D01*
X107060592Y-137420714D02*
X107024878Y-137385000D01*
X107024878Y-137385000D02*
X106953450Y-137349286D01*
X106953450Y-137349286D02*
X106882021Y-137349286D01*
X106882021Y-137349286D02*
X106810592Y-137385000D01*
X106810592Y-137385000D02*
X106774878Y-137420714D01*
X106774878Y-137420714D02*
X106739164Y-137492143D01*
X106739164Y-137492143D02*
X106739164Y-137670714D01*
X106739164Y-137670714D02*
X106774878Y-137777857D01*
X107489164Y-138099286D02*
X106739164Y-138099286D01*
X106739164Y-138099286D02*
X106739164Y-138277857D01*
X106739164Y-138277857D02*
X106774878Y-138385000D01*
X106774878Y-138385000D02*
X106846307Y-138456429D01*
X106846307Y-138456429D02*
X106917735Y-138492143D01*
X106917735Y-138492143D02*
X107060592Y-138527857D01*
X107060592Y-138527857D02*
X107167735Y-138527857D01*
X107167735Y-138527857D02*
X107310592Y-138492143D01*
X107310592Y-138492143D02*
X107382021Y-138456429D01*
X107382021Y-138456429D02*
X107453450Y-138385000D01*
X107453450Y-138385000D02*
X107489164Y-138277857D01*
X107489164Y-138277857D02*
X107489164Y-138099286D01*
X107274878Y-138813572D02*
X107274878Y-139170715D01*
X107489164Y-138742143D02*
X106739164Y-138992143D01*
X106739164Y-138992143D02*
X107489164Y-139242143D01*
X105029164Y-137688571D02*
X104279164Y-137688571D01*
X104279164Y-137688571D02*
X104279164Y-137867142D01*
X104279164Y-137867142D02*
X104314878Y-137974285D01*
X104314878Y-137974285D02*
X104386307Y-138045714D01*
X104386307Y-138045714D02*
X104457735Y-138081428D01*
X104457735Y-138081428D02*
X104600592Y-138117142D01*
X104600592Y-138117142D02*
X104707735Y-138117142D01*
X104707735Y-138117142D02*
X104850592Y-138081428D01*
X104850592Y-138081428D02*
X104922021Y-138045714D01*
X104922021Y-138045714D02*
X104993450Y-137974285D01*
X104993450Y-137974285D02*
X105029164Y-137867142D01*
X105029164Y-137867142D02*
X105029164Y-137688571D01*
X104957735Y-138867142D02*
X104993450Y-138831428D01*
X104993450Y-138831428D02*
X105029164Y-138724285D01*
X105029164Y-138724285D02*
X105029164Y-138652857D01*
X105029164Y-138652857D02*
X104993450Y-138545714D01*
X104993450Y-138545714D02*
X104922021Y-138474285D01*
X104922021Y-138474285D02*
X104850592Y-138438571D01*
X104850592Y-138438571D02*
X104707735Y-138402857D01*
X104707735Y-138402857D02*
X104600592Y-138402857D01*
X104600592Y-138402857D02*
X104457735Y-138438571D01*
X104457735Y-138438571D02*
X104386307Y-138474285D01*
X104386307Y-138474285D02*
X104314878Y-138545714D01*
X104314878Y-138545714D02*
X104279164Y-138652857D01*
X104279164Y-138652857D02*
X104279164Y-138724285D01*
X104279164Y-138724285D02*
X104314878Y-138831428D01*
X104314878Y-138831428D02*
X104350592Y-138867142D01*
X114349164Y-137260000D02*
X115099164Y-137510000D01*
X115099164Y-137510000D02*
X114349164Y-137760000D01*
X115027735Y-138438571D02*
X115063450Y-138402857D01*
X115063450Y-138402857D02*
X115099164Y-138295714D01*
X115099164Y-138295714D02*
X115099164Y-138224286D01*
X115099164Y-138224286D02*
X115063450Y-138117143D01*
X115063450Y-138117143D02*
X114992021Y-138045714D01*
X114992021Y-138045714D02*
X114920592Y-138010000D01*
X114920592Y-138010000D02*
X114777735Y-137974286D01*
X114777735Y-137974286D02*
X114670592Y-137974286D01*
X114670592Y-137974286D02*
X114527735Y-138010000D01*
X114527735Y-138010000D02*
X114456307Y-138045714D01*
X114456307Y-138045714D02*
X114384878Y-138117143D01*
X114384878Y-138117143D02*
X114349164Y-138224286D01*
X114349164Y-138224286D02*
X114349164Y-138295714D01*
X114349164Y-138295714D02*
X114384878Y-138402857D01*
X114384878Y-138402857D02*
X114420592Y-138438571D01*
X115027735Y-139188571D02*
X115063450Y-139152857D01*
X115063450Y-139152857D02*
X115099164Y-139045714D01*
X115099164Y-139045714D02*
X115099164Y-138974286D01*
X115099164Y-138974286D02*
X115063450Y-138867143D01*
X115063450Y-138867143D02*
X114992021Y-138795714D01*
X114992021Y-138795714D02*
X114920592Y-138760000D01*
X114920592Y-138760000D02*
X114777735Y-138724286D01*
X114777735Y-138724286D02*
X114670592Y-138724286D01*
X114670592Y-138724286D02*
X114527735Y-138760000D01*
X114527735Y-138760000D02*
X114456307Y-138795714D01*
X114456307Y-138795714D02*
X114384878Y-138867143D01*
X114384878Y-138867143D02*
X114349164Y-138974286D01*
X114349164Y-138974286D02*
X114349164Y-139045714D01*
X114349164Y-139045714D02*
X114384878Y-139152857D01*
X114384878Y-139152857D02*
X114420592Y-139188571D01*
X102357735Y-138134999D02*
X102393450Y-138099285D01*
X102393450Y-138099285D02*
X102429164Y-137992142D01*
X102429164Y-137992142D02*
X102429164Y-137920714D01*
X102429164Y-137920714D02*
X102393450Y-137813571D01*
X102393450Y-137813571D02*
X102322021Y-137742142D01*
X102322021Y-137742142D02*
X102250592Y-137706428D01*
X102250592Y-137706428D02*
X102107735Y-137670714D01*
X102107735Y-137670714D02*
X102000592Y-137670714D01*
X102000592Y-137670714D02*
X101857735Y-137706428D01*
X101857735Y-137706428D02*
X101786307Y-137742142D01*
X101786307Y-137742142D02*
X101714878Y-137813571D01*
X101714878Y-137813571D02*
X101679164Y-137920714D01*
X101679164Y-137920714D02*
X101679164Y-137992142D01*
X101679164Y-137992142D02*
X101714878Y-138099285D01*
X101714878Y-138099285D02*
X101750592Y-138134999D01*
X102393450Y-138420714D02*
X102429164Y-138527857D01*
X102429164Y-138527857D02*
X102429164Y-138706428D01*
X102429164Y-138706428D02*
X102393450Y-138777857D01*
X102393450Y-138777857D02*
X102357735Y-138813571D01*
X102357735Y-138813571D02*
X102286307Y-138849285D01*
X102286307Y-138849285D02*
X102214878Y-138849285D01*
X102214878Y-138849285D02*
X102143450Y-138813571D01*
X102143450Y-138813571D02*
X102107735Y-138777857D01*
X102107735Y-138777857D02*
X102072021Y-138706428D01*
X102072021Y-138706428D02*
X102036307Y-138563571D01*
X102036307Y-138563571D02*
X102000592Y-138492142D01*
X102000592Y-138492142D02*
X101964878Y-138456428D01*
X101964878Y-138456428D02*
X101893450Y-138420714D01*
X101893450Y-138420714D02*
X101822021Y-138420714D01*
X101822021Y-138420714D02*
X101750592Y-138456428D01*
X101750592Y-138456428D02*
X101714878Y-138492142D01*
X101714878Y-138492142D02*
X101679164Y-138563571D01*
X101679164Y-138563571D02*
X101679164Y-138742142D01*
X101679164Y-138742142D02*
X101714878Y-138849285D01*
D11*
X108150000Y-206407337D02*
X108150000Y-205550194D01*
X108150000Y-205550194D02*
X108092857Y-205378765D01*
X108092857Y-205378765D02*
X107978571Y-205264480D01*
X107978571Y-205264480D02*
X107807143Y-205207337D01*
X107807143Y-205207337D02*
X107692857Y-205207337D01*
X109292857Y-206407337D02*
X108721429Y-206407337D01*
X108721429Y-206407337D02*
X108664286Y-205835908D01*
X108664286Y-205835908D02*
X108721429Y-205893051D01*
X108721429Y-205893051D02*
X108835715Y-205950194D01*
X108835715Y-205950194D02*
X109121429Y-205950194D01*
X109121429Y-205950194D02*
X109235715Y-205893051D01*
X109235715Y-205893051D02*
X109292857Y-205835908D01*
X109292857Y-205835908D02*
X109350000Y-205721622D01*
X109350000Y-205721622D02*
X109350000Y-205435908D01*
X109350000Y-205435908D02*
X109292857Y-205321622D01*
X109292857Y-205321622D02*
X109235715Y-205264480D01*
X109235715Y-205264480D02*
X109121429Y-205207337D01*
X109121429Y-205207337D02*
X108835715Y-205207337D01*
X108835715Y-205207337D02*
X108721429Y-205264480D01*
X108721429Y-205264480D02*
X108664286Y-205321622D01*
D10*
X119357142Y-205015419D02*
X119309523Y-204967800D01*
X119309523Y-204967800D02*
X119166666Y-204920180D01*
X119166666Y-204920180D02*
X119071428Y-204920180D01*
X119071428Y-204920180D02*
X118928571Y-204967800D01*
X118928571Y-204967800D02*
X118833333Y-205063038D01*
X118833333Y-205063038D02*
X118785714Y-205158276D01*
X118785714Y-205158276D02*
X118738095Y-205348752D01*
X118738095Y-205348752D02*
X118738095Y-205491609D01*
X118738095Y-205491609D02*
X118785714Y-205682085D01*
X118785714Y-205682085D02*
X118833333Y-205777323D01*
X118833333Y-205777323D02*
X118928571Y-205872561D01*
X118928571Y-205872561D02*
X119071428Y-205920180D01*
X119071428Y-205920180D02*
X119166666Y-205920180D01*
X119166666Y-205920180D02*
X119309523Y-205872561D01*
X119309523Y-205872561D02*
X119357142Y-205824942D01*
X120309523Y-204920180D02*
X119738095Y-204920180D01*
X120023809Y-204920180D02*
X120023809Y-205920180D01*
X120023809Y-205920180D02*
X119928571Y-205777323D01*
X119928571Y-205777323D02*
X119833333Y-205682085D01*
X119833333Y-205682085D02*
X119738095Y-205634466D01*
X121261904Y-204920180D02*
X120690476Y-204920180D01*
X120976190Y-204920180D02*
X120976190Y-205920180D01*
X120976190Y-205920180D02*
X120880952Y-205777323D01*
X120880952Y-205777323D02*
X120785714Y-205682085D01*
X120785714Y-205682085D02*
X120690476Y-205634466D01*
X133856075Y-160880180D02*
X133284647Y-160880180D01*
X133570361Y-160880180D02*
X133570361Y-161880180D01*
X133570361Y-161880180D02*
X133475123Y-161737323D01*
X133475123Y-161737323D02*
X133379885Y-161642085D01*
X133379885Y-161642085D02*
X133284647Y-161594466D01*
X134475123Y-161880180D02*
X134570361Y-161880180D01*
X134570361Y-161880180D02*
X134665599Y-161832561D01*
X134665599Y-161832561D02*
X134713218Y-161784942D01*
X134713218Y-161784942D02*
X134760837Y-161689704D01*
X134760837Y-161689704D02*
X134808456Y-161499228D01*
X134808456Y-161499228D02*
X134808456Y-161261133D01*
X134808456Y-161261133D02*
X134760837Y-161070657D01*
X134760837Y-161070657D02*
X134713218Y-160975419D01*
X134713218Y-160975419D02*
X134665599Y-160927800D01*
X134665599Y-160927800D02*
X134570361Y-160880180D01*
X134570361Y-160880180D02*
X134475123Y-160880180D01*
X134475123Y-160880180D02*
X134379885Y-160927800D01*
X134379885Y-160927800D02*
X134332266Y-160975419D01*
X134332266Y-160975419D02*
X134284647Y-161070657D01*
X134284647Y-161070657D02*
X134237028Y-161261133D01*
X134237028Y-161261133D02*
X134237028Y-161499228D01*
X134237028Y-161499228D02*
X134284647Y-161689704D01*
X134284647Y-161689704D02*
X134332266Y-161784942D01*
X134332266Y-161784942D02*
X134379885Y-161832561D01*
X134379885Y-161832561D02*
X134475123Y-161880180D01*
X135141790Y-161880180D02*
X135760837Y-161880180D01*
X135760837Y-161880180D02*
X135427504Y-161499228D01*
X135427504Y-161499228D02*
X135570361Y-161499228D01*
X135570361Y-161499228D02*
X135665599Y-161451609D01*
X135665599Y-161451609D02*
X135713218Y-161403990D01*
X135713218Y-161403990D02*
X135760837Y-161308752D01*
X135760837Y-161308752D02*
X135760837Y-161070657D01*
X135760837Y-161070657D02*
X135713218Y-160975419D01*
X135713218Y-160975419D02*
X135665599Y-160927800D01*
X135665599Y-160927800D02*
X135570361Y-160880180D01*
X135570361Y-160880180D02*
X135284647Y-160880180D01*
X135284647Y-160880180D02*
X135189409Y-160927800D01*
X135189409Y-160927800D02*
X135141790Y-160975419D01*
X136379885Y-161880180D02*
X136475123Y-161880180D01*
X136475123Y-161880180D02*
X136570361Y-161832561D01*
X136570361Y-161832561D02*
X136617980Y-161784942D01*
X136617980Y-161784942D02*
X136665599Y-161689704D01*
X136665599Y-161689704D02*
X136713218Y-161499228D01*
X136713218Y-161499228D02*
X136713218Y-161261133D01*
X136713218Y-161261133D02*
X136665599Y-161070657D01*
X136665599Y-161070657D02*
X136617980Y-160975419D01*
X136617980Y-160975419D02*
X136570361Y-160927800D01*
X136570361Y-160927800D02*
X136475123Y-160880180D01*
X136475123Y-160880180D02*
X136379885Y-160880180D01*
X136379885Y-160880180D02*
X136284647Y-160927800D01*
X136284647Y-160927800D02*
X136237028Y-160975419D01*
X136237028Y-160975419D02*
X136189409Y-161070657D01*
X136189409Y-161070657D02*
X136141790Y-161261133D01*
X136141790Y-161261133D02*
X136141790Y-161499228D01*
X136141790Y-161499228D02*
X136189409Y-161689704D01*
X136189409Y-161689704D02*
X136237028Y-161784942D01*
X136237028Y-161784942D02*
X136284647Y-161832561D01*
X136284647Y-161832561D02*
X136379885Y-161880180D01*
X137570361Y-161546847D02*
X137570361Y-160880180D01*
X137332266Y-161927800D02*
X137094171Y-161213514D01*
X137094171Y-161213514D02*
X137713218Y-161213514D01*
X138284647Y-161880180D02*
X138379885Y-161880180D01*
X138379885Y-161880180D02*
X138475123Y-161832561D01*
X138475123Y-161832561D02*
X138522742Y-161784942D01*
X138522742Y-161784942D02*
X138570361Y-161689704D01*
X138570361Y-161689704D02*
X138617980Y-161499228D01*
X138617980Y-161499228D02*
X138617980Y-161261133D01*
X138617980Y-161261133D02*
X138570361Y-161070657D01*
X138570361Y-161070657D02*
X138522742Y-160975419D01*
X138522742Y-160975419D02*
X138475123Y-160927800D01*
X138475123Y-160927800D02*
X138379885Y-160880180D01*
X138379885Y-160880180D02*
X138284647Y-160880180D01*
X138284647Y-160880180D02*
X138189409Y-160927800D01*
X138189409Y-160927800D02*
X138141790Y-160975419D01*
X138141790Y-160975419D02*
X138094171Y-161070657D01*
X138094171Y-161070657D02*
X138046552Y-161261133D01*
X138046552Y-161261133D02*
X138046552Y-161499228D01*
X138046552Y-161499228D02*
X138094171Y-161689704D01*
X138094171Y-161689704D02*
X138141790Y-161784942D01*
X138141790Y-161784942D02*
X138189409Y-161832561D01*
X138189409Y-161832561D02*
X138284647Y-161880180D01*
X140284647Y-160880180D02*
X139808457Y-160880180D01*
X139808457Y-160880180D02*
X139808457Y-161880180D01*
X140617981Y-160880180D02*
X140617981Y-161880180D01*
X141094171Y-160880180D02*
X141094171Y-161880180D01*
X141094171Y-161880180D02*
X141475123Y-161880180D01*
X141475123Y-161880180D02*
X141570361Y-161832561D01*
X141570361Y-161832561D02*
X141617980Y-161784942D01*
X141617980Y-161784942D02*
X141665599Y-161689704D01*
X141665599Y-161689704D02*
X141665599Y-161546847D01*
X141665599Y-161546847D02*
X141617980Y-161451609D01*
X141617980Y-161451609D02*
X141570361Y-161403990D01*
X141570361Y-161403990D02*
X141475123Y-161356371D01*
X141475123Y-161356371D02*
X141094171Y-161356371D01*
X142284647Y-161880180D02*
X142475123Y-161880180D01*
X142475123Y-161880180D02*
X142570361Y-161832561D01*
X142570361Y-161832561D02*
X142665599Y-161737323D01*
X142665599Y-161737323D02*
X142713218Y-161546847D01*
X142713218Y-161546847D02*
X142713218Y-161213514D01*
X142713218Y-161213514D02*
X142665599Y-161023038D01*
X142665599Y-161023038D02*
X142570361Y-160927800D01*
X142570361Y-160927800D02*
X142475123Y-160880180D01*
X142475123Y-160880180D02*
X142284647Y-160880180D01*
X142284647Y-160880180D02*
X142189409Y-160927800D01*
X142189409Y-160927800D02*
X142094171Y-161023038D01*
X142094171Y-161023038D02*
X142046552Y-161213514D01*
X142046552Y-161213514D02*
X142046552Y-161546847D01*
X142046552Y-161546847D02*
X142094171Y-161737323D01*
X142094171Y-161737323D02*
X142189409Y-161832561D01*
X142189409Y-161832561D02*
X142284647Y-161880180D01*
X144237028Y-161403990D02*
X144379885Y-161356371D01*
X144379885Y-161356371D02*
X144427504Y-161308752D01*
X144427504Y-161308752D02*
X144475123Y-161213514D01*
X144475123Y-161213514D02*
X144475123Y-161070657D01*
X144475123Y-161070657D02*
X144427504Y-160975419D01*
X144427504Y-160975419D02*
X144379885Y-160927800D01*
X144379885Y-160927800D02*
X144284647Y-160880180D01*
X144284647Y-160880180D02*
X143903695Y-160880180D01*
X143903695Y-160880180D02*
X143903695Y-161880180D01*
X143903695Y-161880180D02*
X144237028Y-161880180D01*
X144237028Y-161880180D02*
X144332266Y-161832561D01*
X144332266Y-161832561D02*
X144379885Y-161784942D01*
X144379885Y-161784942D02*
X144427504Y-161689704D01*
X144427504Y-161689704D02*
X144427504Y-161594466D01*
X144427504Y-161594466D02*
X144379885Y-161499228D01*
X144379885Y-161499228D02*
X144332266Y-161451609D01*
X144332266Y-161451609D02*
X144237028Y-161403990D01*
X144237028Y-161403990D02*
X143903695Y-161403990D01*
X145332266Y-160880180D02*
X145332266Y-161403990D01*
X145332266Y-161403990D02*
X145284647Y-161499228D01*
X145284647Y-161499228D02*
X145189409Y-161546847D01*
X145189409Y-161546847D02*
X144998933Y-161546847D01*
X144998933Y-161546847D02*
X144903695Y-161499228D01*
X145332266Y-160927800D02*
X145237028Y-160880180D01*
X145237028Y-160880180D02*
X144998933Y-160880180D01*
X144998933Y-160880180D02*
X144903695Y-160927800D01*
X144903695Y-160927800D02*
X144856076Y-161023038D01*
X144856076Y-161023038D02*
X144856076Y-161118276D01*
X144856076Y-161118276D02*
X144903695Y-161213514D01*
X144903695Y-161213514D02*
X144998933Y-161261133D01*
X144998933Y-161261133D02*
X145237028Y-161261133D01*
X145237028Y-161261133D02*
X145332266Y-161308752D01*
X145665600Y-161546847D02*
X146046552Y-161546847D01*
X145808457Y-161880180D02*
X145808457Y-161023038D01*
X145808457Y-161023038D02*
X145856076Y-160927800D01*
X145856076Y-160927800D02*
X145951314Y-160880180D01*
X145951314Y-160880180D02*
X146046552Y-160880180D01*
X146237029Y-161546847D02*
X146617981Y-161546847D01*
X146379886Y-161880180D02*
X146379886Y-161023038D01*
X146379886Y-161023038D02*
X146427505Y-160927800D01*
X146427505Y-160927800D02*
X146522743Y-160880180D01*
X146522743Y-160880180D02*
X146617981Y-160880180D01*
X147332267Y-160927800D02*
X147237029Y-160880180D01*
X147237029Y-160880180D02*
X147046553Y-160880180D01*
X147046553Y-160880180D02*
X146951315Y-160927800D01*
X146951315Y-160927800D02*
X146903696Y-161023038D01*
X146903696Y-161023038D02*
X146903696Y-161403990D01*
X146903696Y-161403990D02*
X146951315Y-161499228D01*
X146951315Y-161499228D02*
X147046553Y-161546847D01*
X147046553Y-161546847D02*
X147237029Y-161546847D01*
X147237029Y-161546847D02*
X147332267Y-161499228D01*
X147332267Y-161499228D02*
X147379886Y-161403990D01*
X147379886Y-161403990D02*
X147379886Y-161308752D01*
X147379886Y-161308752D02*
X146903696Y-161213514D01*
X147808458Y-160880180D02*
X147808458Y-161546847D01*
X147808458Y-161356371D02*
X147856077Y-161451609D01*
X147856077Y-161451609D02*
X147903696Y-161499228D01*
X147903696Y-161499228D02*
X147998934Y-161546847D01*
X147998934Y-161546847D02*
X148094172Y-161546847D01*
X148332268Y-161546847D02*
X148570363Y-160880180D01*
X148808458Y-161546847D02*
X148570363Y-160880180D01*
X148570363Y-160880180D02*
X148475125Y-160642085D01*
X148475125Y-160642085D02*
X148427506Y-160594466D01*
X148427506Y-160594466D02*
X148332268Y-160546847D01*
D11*
X56100000Y-130657337D02*
X56100000Y-129800194D01*
X56100000Y-129800194D02*
X56042857Y-129628765D01*
X56042857Y-129628765D02*
X55928571Y-129514480D01*
X55928571Y-129514480D02*
X55757143Y-129457337D01*
X55757143Y-129457337D02*
X55642857Y-129457337D01*
X57300000Y-129457337D02*
X56614286Y-129457337D01*
X56957143Y-129457337D02*
X56957143Y-130657337D01*
X56957143Y-130657337D02*
X56842857Y-130485908D01*
X56842857Y-130485908D02*
X56728572Y-130371622D01*
X56728572Y-130371622D02*
X56614286Y-130314480D01*
D10*
X61428571Y-128625121D02*
X61357143Y-128660835D01*
X61357143Y-128660835D02*
X61250000Y-128660835D01*
X61250000Y-128660835D02*
X61142857Y-128625121D01*
X61142857Y-128625121D02*
X61071428Y-128553692D01*
X61071428Y-128553692D02*
X61035714Y-128482264D01*
X61035714Y-128482264D02*
X61000000Y-128339407D01*
X61000000Y-128339407D02*
X61000000Y-128232264D01*
X61000000Y-128232264D02*
X61035714Y-128089407D01*
X61035714Y-128089407D02*
X61071428Y-128017978D01*
X61071428Y-128017978D02*
X61142857Y-127946550D01*
X61142857Y-127946550D02*
X61250000Y-127910835D01*
X61250000Y-127910835D02*
X61321428Y-127910835D01*
X61321428Y-127910835D02*
X61428571Y-127946550D01*
X61428571Y-127946550D02*
X61464285Y-127982264D01*
X61464285Y-127982264D02*
X61464285Y-128232264D01*
X61464285Y-128232264D02*
X61321428Y-128232264D01*
X61785714Y-127910835D02*
X61785714Y-128660835D01*
X61785714Y-128660835D02*
X62214285Y-127910835D01*
X62214285Y-127910835D02*
X62214285Y-128660835D01*
X62571428Y-127910835D02*
X62571428Y-128660835D01*
X62571428Y-128660835D02*
X62749999Y-128660835D01*
X62749999Y-128660835D02*
X62857142Y-128625121D01*
X62857142Y-128625121D02*
X62928571Y-128553692D01*
X62928571Y-128553692D02*
X62964285Y-128482264D01*
X62964285Y-128482264D02*
X62999999Y-128339407D01*
X62999999Y-128339407D02*
X62999999Y-128232264D01*
X62999999Y-128232264D02*
X62964285Y-128089407D01*
X62964285Y-128089407D02*
X62928571Y-128017978D01*
X62928571Y-128017978D02*
X62857142Y-127946550D01*
X62857142Y-127946550D02*
X62749999Y-127910835D01*
X62749999Y-127910835D02*
X62571428Y-127910835D01*
D11*
X117542857Y-215297337D02*
X117542857Y-216497337D01*
X117542857Y-216497337D02*
X117828571Y-216497337D01*
X117828571Y-216497337D02*
X118000000Y-216440194D01*
X118000000Y-216440194D02*
X118114285Y-216325908D01*
X118114285Y-216325908D02*
X118171428Y-216211622D01*
X118171428Y-216211622D02*
X118228571Y-215983051D01*
X118228571Y-215983051D02*
X118228571Y-215811622D01*
X118228571Y-215811622D02*
X118171428Y-215583051D01*
X118171428Y-215583051D02*
X118114285Y-215468765D01*
X118114285Y-215468765D02*
X118000000Y-215354480D01*
X118000000Y-215354480D02*
X117828571Y-215297337D01*
X117828571Y-215297337D02*
X117542857Y-215297337D01*
X119371428Y-215297337D02*
X118685714Y-215297337D01*
X119028571Y-215297337D02*
X119028571Y-216497337D01*
X119028571Y-216497337D02*
X118914285Y-216325908D01*
X118914285Y-216325908D02*
X118800000Y-216211622D01*
X118800000Y-216211622D02*
X118685714Y-216154480D01*
X120514285Y-215297337D02*
X119828571Y-215297337D01*
X120171428Y-215297337D02*
X120171428Y-216497337D01*
X120171428Y-216497337D02*
X120057142Y-216325908D01*
X120057142Y-216325908D02*
X119942857Y-216211622D01*
X119942857Y-216211622D02*
X119828571Y-216154480D01*
D12*
X116576109Y-210344761D02*
X116076109Y-210344761D01*
X116076109Y-210344761D02*
X116076109Y-210463809D01*
X116076109Y-210463809D02*
X116099919Y-210535237D01*
X116099919Y-210535237D02*
X116147538Y-210582856D01*
X116147538Y-210582856D02*
X116195157Y-210606666D01*
X116195157Y-210606666D02*
X116290395Y-210630475D01*
X116290395Y-210630475D02*
X116361823Y-210630475D01*
X116361823Y-210630475D02*
X116457061Y-210606666D01*
X116457061Y-210606666D02*
X116504680Y-210582856D01*
X116504680Y-210582856D02*
X116552300Y-210535237D01*
X116552300Y-210535237D02*
X116576109Y-210463809D01*
X116576109Y-210463809D02*
X116576109Y-210344761D01*
X116076109Y-210939999D02*
X116076109Y-211035237D01*
X116076109Y-211035237D02*
X116099919Y-211082856D01*
X116099919Y-211082856D02*
X116147538Y-211130475D01*
X116147538Y-211130475D02*
X116242776Y-211154285D01*
X116242776Y-211154285D02*
X116409442Y-211154285D01*
X116409442Y-211154285D02*
X116504680Y-211130475D01*
X116504680Y-211130475D02*
X116552300Y-211082856D01*
X116552300Y-211082856D02*
X116576109Y-211035237D01*
X116576109Y-211035237D02*
X116576109Y-210939999D01*
X116576109Y-210939999D02*
X116552300Y-210892380D01*
X116552300Y-210892380D02*
X116504680Y-210844761D01*
X116504680Y-210844761D02*
X116409442Y-210820952D01*
X116409442Y-210820952D02*
X116242776Y-210820952D01*
X116242776Y-210820952D02*
X116147538Y-210844761D01*
X116147538Y-210844761D02*
X116099919Y-210892380D01*
X116099919Y-210892380D02*
X116076109Y-210939999D01*
X116076109Y-211368571D02*
X116480871Y-211368571D01*
X116480871Y-211368571D02*
X116528490Y-211392381D01*
X116528490Y-211392381D02*
X116552300Y-211416190D01*
X116552300Y-211416190D02*
X116576109Y-211463809D01*
X116576109Y-211463809D02*
X116576109Y-211559047D01*
X116576109Y-211559047D02*
X116552300Y-211606666D01*
X116552300Y-211606666D02*
X116528490Y-211630476D01*
X116528490Y-211630476D02*
X116480871Y-211654285D01*
X116480871Y-211654285D02*
X116076109Y-211654285D01*
X116076109Y-211820953D02*
X116076109Y-212106667D01*
X116576109Y-211963810D02*
X116076109Y-211963810D01*
X112576109Y-211178095D02*
X112076109Y-211178095D01*
X112076109Y-211178095D02*
X112076109Y-211297143D01*
X112076109Y-211297143D02*
X112099919Y-211368571D01*
X112099919Y-211368571D02*
X112147538Y-211416190D01*
X112147538Y-211416190D02*
X112195157Y-211440000D01*
X112195157Y-211440000D02*
X112290395Y-211463809D01*
X112290395Y-211463809D02*
X112361823Y-211463809D01*
X112361823Y-211463809D02*
X112457061Y-211440000D01*
X112457061Y-211440000D02*
X112504680Y-211416190D01*
X112504680Y-211416190D02*
X112552300Y-211368571D01*
X112552300Y-211368571D02*
X112576109Y-211297143D01*
X112576109Y-211297143D02*
X112576109Y-211178095D01*
X112576109Y-211678095D02*
X112076109Y-211678095D01*
X112576109Y-211916190D02*
X112076109Y-211916190D01*
X112076109Y-211916190D02*
X112576109Y-212201904D01*
X112576109Y-212201904D02*
X112076109Y-212201904D01*
X113374919Y-211059047D02*
X113351109Y-211011428D01*
X113351109Y-211011428D02*
X113351109Y-210939999D01*
X113351109Y-210939999D02*
X113374919Y-210868571D01*
X113374919Y-210868571D02*
X113422538Y-210820952D01*
X113422538Y-210820952D02*
X113470157Y-210797142D01*
X113470157Y-210797142D02*
X113565395Y-210773333D01*
X113565395Y-210773333D02*
X113636823Y-210773333D01*
X113636823Y-210773333D02*
X113732061Y-210797142D01*
X113732061Y-210797142D02*
X113779680Y-210820952D01*
X113779680Y-210820952D02*
X113827300Y-210868571D01*
X113827300Y-210868571D02*
X113851109Y-210939999D01*
X113851109Y-210939999D02*
X113851109Y-210987618D01*
X113851109Y-210987618D02*
X113827300Y-211059047D01*
X113827300Y-211059047D02*
X113803490Y-211082856D01*
X113803490Y-211082856D02*
X113636823Y-211082856D01*
X113636823Y-211082856D02*
X113636823Y-210987618D01*
X113851109Y-211297142D02*
X113351109Y-211297142D01*
X113351109Y-211297142D02*
X113851109Y-211582856D01*
X113851109Y-211582856D02*
X113351109Y-211582856D01*
X113851109Y-211820952D02*
X113351109Y-211820952D01*
X113351109Y-211820952D02*
X113351109Y-211940000D01*
X113351109Y-211940000D02*
X113374919Y-212011428D01*
X113374919Y-212011428D02*
X113422538Y-212059047D01*
X113422538Y-212059047D02*
X113470157Y-212082857D01*
X113470157Y-212082857D02*
X113565395Y-212106666D01*
X113565395Y-212106666D02*
X113636823Y-212106666D01*
X113636823Y-212106666D02*
X113732061Y-212082857D01*
X113732061Y-212082857D02*
X113779680Y-212059047D01*
X113779680Y-212059047D02*
X113827300Y-212011428D01*
X113827300Y-212011428D02*
X113851109Y-211940000D01*
X113851109Y-211940000D02*
X113851109Y-211820952D01*
X114851109Y-210798334D02*
X115351109Y-210965000D01*
X115351109Y-210965000D02*
X114851109Y-211131667D01*
X115351109Y-211298333D02*
X114851109Y-211298333D01*
X114851109Y-211298333D02*
X114851109Y-211417381D01*
X114851109Y-211417381D02*
X114874919Y-211488809D01*
X114874919Y-211488809D02*
X114922538Y-211536428D01*
X114922538Y-211536428D02*
X114970157Y-211560238D01*
X114970157Y-211560238D02*
X115065395Y-211584047D01*
X115065395Y-211584047D02*
X115136823Y-211584047D01*
X115136823Y-211584047D02*
X115232061Y-211560238D01*
X115232061Y-211560238D02*
X115279680Y-211536428D01*
X115279680Y-211536428D02*
X115327300Y-211488809D01*
X115327300Y-211488809D02*
X115351109Y-211417381D01*
X115351109Y-211417381D02*
X115351109Y-211298333D01*
X115351109Y-211798333D02*
X114851109Y-211798333D01*
X114851109Y-211798333D02*
X114851109Y-211917381D01*
X114851109Y-211917381D02*
X114874919Y-211988809D01*
X114874919Y-211988809D02*
X114922538Y-212036428D01*
X114922538Y-212036428D02*
X114970157Y-212060238D01*
X114970157Y-212060238D02*
X115065395Y-212084047D01*
X115065395Y-212084047D02*
X115136823Y-212084047D01*
X115136823Y-212084047D02*
X115232061Y-212060238D01*
X115232061Y-212060238D02*
X115279680Y-212036428D01*
X115279680Y-212036428D02*
X115327300Y-211988809D01*
X115327300Y-211988809D02*
X115351109Y-211917381D01*
X115351109Y-211917381D02*
X115351109Y-211798333D01*
D13*
X151525000Y-199875000D02*
X151475000Y-199875000D01*
X151525000Y-199675000D02*
X151525000Y-199875000D01*
X151475000Y-199875000D02*
X151475000Y-200302128D01*
X151075000Y-199675000D02*
X151075000Y-199275000D01*
X150475000Y-198475000D02*
X150475000Y-199675000D01*
X150125000Y-199875000D02*
X150125000Y-200302128D01*
X150125000Y-199875000D02*
X150075000Y-199875000D01*
X150125000Y-199675000D02*
X151475000Y-199675000D01*
X150075000Y-199675000D02*
X150075000Y-199875000D01*
X150125000Y-200302128D02*
G75*
G03*
X151475000Y-200302128I675000J54309D01*
G01*
X158425000Y-138075000D02*
X158375000Y-138075000D01*
X158425000Y-137875000D02*
X158425000Y-138075000D01*
X158375000Y-138075000D02*
X158375000Y-138502128D01*
X157975000Y-137875000D02*
X157975000Y-137475000D01*
X157375000Y-136675000D02*
X157375000Y-137875000D01*
X157025000Y-138075000D02*
X157025000Y-138502128D01*
X157025000Y-138075000D02*
X156975000Y-138075000D01*
X157025000Y-137875000D02*
X158375000Y-137875000D01*
X156975000Y-137875000D02*
X156975000Y-138075000D01*
X157025000Y-138502128D02*
G75*
G03*
X158375000Y-138502128I675000J54309D01*
G01*
X111925000Y-129775000D02*
X111875000Y-129775000D01*
X111925000Y-129575000D02*
X111925000Y-129775000D01*
X111875000Y-129775000D02*
X111875000Y-130202128D01*
X111475000Y-129575000D02*
X111475000Y-129175000D01*
X110875000Y-128375000D02*
X110875000Y-129575000D01*
X110525000Y-129775000D02*
X110525000Y-130202128D01*
X110525000Y-129775000D02*
X110475000Y-129775000D01*
X110525000Y-129575000D02*
X111875000Y-129575000D01*
X110475000Y-129575000D02*
X110475000Y-129775000D01*
X110525000Y-130202128D02*
G75*
G03*
X111875000Y-130202128I675000J54309D01*
G01*
X49425000Y-129675000D02*
X49375000Y-129675000D01*
X49425000Y-129475000D02*
X49425000Y-129675000D01*
X49375000Y-129675000D02*
X49375000Y-130102128D01*
X48975000Y-129475000D02*
X48975000Y-129075000D01*
X48375000Y-128275000D02*
X48375000Y-129475000D01*
X48025000Y-129675000D02*
X48025000Y-130102128D01*
X48025000Y-129675000D02*
X47975000Y-129675000D01*
X48025000Y-129475000D02*
X49375000Y-129475000D01*
X47975000Y-129475000D02*
X47975000Y-129675000D01*
X48025000Y-130102128D02*
G75*
G03*
X49375000Y-130102128I675000J54309D01*
G01*
X49425000Y-199675000D02*
X49375000Y-199675000D01*
X49425000Y-199475000D02*
X49425000Y-199675000D01*
X49375000Y-199675000D02*
X49375000Y-200102128D01*
X48975000Y-199475000D02*
X48975000Y-199075000D01*
X48375000Y-198275000D02*
X48375000Y-199475000D01*
X48025000Y-199675000D02*
X48025000Y-200102128D01*
X48025000Y-199675000D02*
X47975000Y-199675000D01*
X48025000Y-199475000D02*
X49375000Y-199475000D01*
X47975000Y-199475000D02*
X47975000Y-199675000D01*
X48025000Y-200102128D02*
G75*
G03*
X49375000Y-200102128I675000J54309D01*
G01*
X74300000Y-193800000D02*
X74250000Y-193800000D01*
X74300000Y-193600000D02*
X74300000Y-193800000D01*
X74250000Y-193800000D02*
X74250000Y-194227128D01*
X73850000Y-193600000D02*
X73850000Y-193200000D01*
X73250000Y-192400000D02*
X73250000Y-193600000D01*
X72900000Y-193800000D02*
X72900000Y-194227128D01*
X72900000Y-193800000D02*
X72850000Y-193800000D01*
X72900000Y-193600000D02*
X74250000Y-193600000D01*
X72850000Y-193600000D02*
X72850000Y-193800000D01*
X72900000Y-194227128D02*
G75*
G03*
X74250000Y-194227128I675000J54309D01*
G01*
X119800000Y-212800000D02*
X119800000Y-213000000D01*
X119750000Y-213000000D02*
X119800000Y-213000000D01*
X119750000Y-213000000D02*
X119750000Y-213427128D01*
X119750000Y-212800000D02*
X118400000Y-212800000D01*
X119600000Y-212800000D02*
X119600000Y-212000000D01*
X119250000Y-211600000D02*
X119250000Y-212800000D01*
X118900000Y-212000000D02*
X118900000Y-212800000D01*
X118550000Y-212800000D02*
X118550000Y-212400000D01*
X118400000Y-213000000D02*
X118400000Y-213427128D01*
X118350000Y-213000000D02*
X118400000Y-213000000D01*
X118350000Y-212800000D02*
X118350000Y-213000000D01*
X118400000Y-213427128D02*
G75*
G03*
X119750000Y-213427128I675000J54309D01*
G01*
X107800000Y-212800000D02*
X107800000Y-213000000D01*
X107750000Y-213000000D02*
X107800000Y-213000000D01*
X107750000Y-213000000D02*
X107750000Y-213427128D01*
X107750000Y-212800000D02*
X106400000Y-212800000D01*
X107600000Y-212800000D02*
X107600000Y-212000000D01*
X107250000Y-211600000D02*
X107250000Y-212800000D01*
X106900000Y-212000000D02*
X106900000Y-212800000D01*
X106550000Y-212800000D02*
X106550000Y-212400000D01*
X106400000Y-213000000D02*
X106400000Y-213427128D01*
X106350000Y-213000000D02*
X106400000Y-213000000D01*
X106350000Y-212800000D02*
X106350000Y-213000000D01*
X106400000Y-213427128D02*
G75*
G03*
X107750000Y-213427128I675000J54309D01*
G01*
X139000000Y-187200000D02*
X138800000Y-187200000D01*
X138800000Y-187150000D02*
X138800000Y-187200000D01*
X138800000Y-187150000D02*
X138372872Y-187150000D01*
X139000000Y-187150000D02*
X139000000Y-185800000D01*
X139000000Y-187000000D02*
X139800000Y-187000000D01*
X140200000Y-186650000D02*
X139000000Y-186650000D01*
X139800000Y-186300000D02*
X139000000Y-186300000D01*
X139000000Y-185950000D02*
X139400000Y-185950000D01*
X138800000Y-185800000D02*
X138372872Y-185800000D01*
X138800000Y-185750000D02*
X138800000Y-185800000D01*
X139000000Y-185750000D02*
X138800000Y-185750000D01*
X138372872Y-185800000D02*
G75*
G03*
X138372872Y-187150000I54309J-675000D01*
G01*
D10*
X47300000Y-136250000D02*
X47300000Y-141300000D01*
X46300000Y-136250000D02*
X46300000Y-136000000D01*
X45300000Y-136250000D02*
X47300000Y-136250000D01*
X47300000Y-141300000D02*
X45300000Y-141300000D01*
X45300000Y-141300000D02*
X45300000Y-136250000D01*
X46300000Y-141350000D02*
X46300000Y-141600000D01*
D12*
X146635000Y-136730000D02*
X147270000Y-137365000D01*
X134570000Y-136730000D02*
X146635000Y-136730000D01*
X147270000Y-137365000D02*
X147270000Y-139270000D01*
X147270000Y-139270000D02*
X134570000Y-139270000D01*
X134570000Y-139270000D02*
X134570000Y-136730000D01*
X114210000Y-43205000D02*
X114845000Y-43840000D01*
X102145000Y-43205000D02*
X114210000Y-43205000D01*
X114845000Y-43840000D02*
X114845000Y-45745000D01*
X114845000Y-45745000D02*
X102145000Y-45745000D01*
X102145000Y-45745000D02*
X102145000Y-43205000D01*
D13*
X132130000Y-192370000D02*
X132195000Y-192370000D01*
X132130000Y-192370000D02*
X132130000Y-189130000D01*
X134305000Y-192370000D02*
X134370000Y-192370000D01*
X134370000Y-192370000D02*
X134370000Y-189130000D01*
X132130000Y-189130000D02*
X132195000Y-189130000D01*
X134305000Y-189130000D02*
X134370000Y-189130000D01*
D12*
X159670000Y-173235000D02*
X159035000Y-173870000D01*
X159670000Y-161170000D02*
X159670000Y-173235000D01*
X159035000Y-173870000D02*
X157130000Y-173870000D01*
X157130000Y-173870000D02*
X157130000Y-161170000D01*
X157130000Y-161170000D02*
X159670000Y-161170000D01*
D10*
X83250000Y-196810000D02*
X83250000Y-191760000D01*
X84250000Y-196810000D02*
X84250000Y-197060000D01*
X85250000Y-196810000D02*
X83250000Y-196810000D01*
X83250000Y-191760000D02*
X85250000Y-191760000D01*
X85250000Y-191760000D02*
X85250000Y-196810000D01*
X84250000Y-191710000D02*
X84250000Y-191460000D01*
X159300000Y-144940000D02*
X159300000Y-149990000D01*
X158300000Y-144940000D02*
X158300000Y-144690000D01*
X157300000Y-144940000D02*
X159300000Y-144940000D01*
X159300000Y-149990000D02*
X157300000Y-149990000D01*
X157300000Y-149990000D02*
X157300000Y-144940000D01*
X158300000Y-150040000D02*
X158300000Y-150290000D01*
D14*
X81870000Y-184607868D02*
X81870000Y-137617868D01*
X80046000Y-145166051D02*
X72172000Y-145166051D01*
X80046000Y-139908000D02*
X80046000Y-145166051D01*
X80046000Y-137114000D02*
X80046000Y-139908000D01*
X78395000Y-186725000D02*
X78395000Y-182915000D01*
X75855000Y-186725000D02*
X78395000Y-186725000D01*
X75855000Y-184185000D02*
X75855000Y-186725000D01*
X73315000Y-186725000D02*
X73315000Y-184185000D01*
X73315000Y-184185000D02*
X75855000Y-184185000D01*
X72172000Y-145166051D02*
X72172000Y-137114000D01*
X72172000Y-137114000D02*
X80046000Y-137114000D01*
X70394000Y-144226000D02*
X70394000Y-142956000D01*
X70394000Y-142956000D02*
X70394000Y-139146000D01*
X70394000Y-139146000D02*
X66838000Y-139146000D01*
X70140000Y-186725000D02*
X73315000Y-186725000D01*
X70140000Y-184185000D02*
X70140000Y-186725000D01*
X66965000Y-186725000D02*
X66965000Y-184185000D01*
X66965000Y-184185000D02*
X70140000Y-184185000D01*
X66838000Y-144226000D02*
X70394000Y-144226000D01*
X66838000Y-139146000D02*
X66838000Y-144226000D01*
X65695000Y-182280000D02*
X65695000Y-186725000D01*
X65187000Y-144701051D02*
X56932000Y-144701051D01*
X65187000Y-137716051D02*
X65187000Y-144701051D01*
X63790000Y-186725000D02*
X66965000Y-186725000D01*
D15*
X63790000Y-186725000D02*
X63790000Y-182280000D01*
D14*
X62012000Y-138716051D02*
X62012000Y-137716051D01*
X59980000Y-138716051D02*
X59980000Y-137716051D01*
X58710000Y-187462138D02*
X79030000Y-187462138D01*
X56932000Y-144701051D02*
X56932000Y-137716051D01*
X55826051Y-137584236D02*
X81870000Y-137617868D01*
X55826051Y-137584236D02*
X55826051Y-184574236D01*
X79030000Y-187462138D02*
G75*
G03*
X81884270Y-184607868I-2J2854272D01*
G01*
X55826057Y-184574236D02*
G75*
G03*
X58710000Y-187462138I2883944J-3955D01*
G01*
X69505000Y-141686000D02*
G75*
G03*
X67727000Y-141686000I-889000J0D01*
G01*
X67727000Y-141686000D02*
G75*
G03*
X69505000Y-141686000I889000J0D01*
G01*
D13*
X46606487Y-131447857D02*
X46606487Y-131080000D01*
X46606487Y-128920000D02*
X46606487Y-128552143D01*
X43374152Y-131290949D02*
G75*
G03*
X46606486Y-131447856I1672335J1078611D01*
G01*
X46606487Y-128552143D02*
G75*
G03*
X43374152Y-128709051I-1560000J-1235517D01*
G01*
D12*
X45340000Y-131510000D02*
X44800000Y-131800000D01*
X44800000Y-131220000D01*
X45340000Y-131510000D01*
G36*
X45340000Y-131510000D02*
G01*
X44800000Y-131800000D01*
X44800000Y-131220000D01*
X45340000Y-131510000D01*
G37*
D16*
X122975000Y-134225000D02*
X123975000Y-134225000D01*
X123475000Y-133725000D02*
X123475000Y-134725000D01*
D13*
X105055000Y-214785000D02*
X105055000Y-214320000D01*
X105055000Y-212160000D02*
X105055000Y-211695000D01*
X99707186Y-214320827D02*
G75*
G03*
X105054999Y-214784830I2787814J1080827D01*
G01*
X105043451Y-211673981D02*
G75*
G03*
X104800000Y-211340000I-1977451J-1185719D01*
G01*
X104000000Y-210640001D02*
G75*
G03*
X100500000Y-210990000I-1516553J-2509469D01*
G01*
X99900004Y-211715002D02*
G75*
G03*
X99700686Y-212140000I2129196J-1257798D01*
G01*
D12*
X40730000Y-74365000D02*
X41365000Y-73730000D01*
X40730000Y-86430000D02*
X40730000Y-74365000D01*
X41365000Y-73730000D02*
X43270000Y-73730000D01*
X43270000Y-73730000D02*
X43270000Y-86430000D01*
X43270000Y-86430000D02*
X40730000Y-86430000D01*
X146635000Y-108330000D02*
X147270000Y-108965000D01*
X134570000Y-108330000D02*
X146635000Y-108330000D01*
X147270000Y-108965000D02*
X147270000Y-110870000D01*
X147270000Y-110870000D02*
X134570000Y-110870000D01*
X134570000Y-110870000D02*
X134570000Y-108330000D01*
D13*
X155806487Y-139447857D02*
X155806487Y-139080000D01*
X155806487Y-136920000D02*
X155806487Y-136552143D01*
X152574152Y-139290949D02*
G75*
G03*
X155806486Y-139447856I1672335J1078611D01*
G01*
X155806487Y-136552143D02*
G75*
G03*
X152574152Y-136709051I-1560000J-1235517D01*
G01*
D12*
X154540000Y-139510000D02*
X154000000Y-139800000D01*
X154000000Y-139220000D01*
X154540000Y-139510000D01*
G36*
X154540000Y-139510000D02*
G01*
X154000000Y-139800000D01*
X154000000Y-139220000D01*
X154540000Y-139510000D01*
G37*
D13*
X137205000Y-193555000D02*
X137670000Y-193555000D01*
X139830000Y-193555000D02*
X140295000Y-193555000D01*
X137669173Y-188207186D02*
G75*
G03*
X137205170Y-193554999I1080827J-2787814D01*
G01*
X140316019Y-193543451D02*
G75*
G03*
X140650000Y-193300000I-1185719J1977451D01*
G01*
X141349999Y-192500000D02*
G75*
G03*
X141000000Y-189000000I-2509469J1516553D01*
G01*
X140274998Y-188400004D02*
G75*
G03*
X139850000Y-188200686I-1257798J-2129196D01*
G01*
X98620000Y-204245000D02*
X98620000Y-204180000D01*
X98620000Y-204245000D02*
X95380000Y-204245000D01*
X98620000Y-202070000D02*
X98620000Y-202005000D01*
X98620000Y-202005000D02*
X95380000Y-202005000D01*
X95380000Y-204245000D02*
X95380000Y-204180000D01*
X95380000Y-202070000D02*
X95380000Y-202005000D01*
X155806487Y-201447857D02*
X155806487Y-201080000D01*
X155806487Y-198920000D02*
X155806487Y-198552143D01*
X152574152Y-201290949D02*
G75*
G03*
X155806486Y-201447856I1672335J1078611D01*
G01*
X155806487Y-198552143D02*
G75*
G03*
X152574152Y-198709051I-1560000J-1235517D01*
G01*
D12*
X154540000Y-201510000D02*
X154000000Y-201800000D01*
X154000000Y-201220000D01*
X154540000Y-201510000D01*
G36*
X154540000Y-201510000D02*
G01*
X154000000Y-201800000D01*
X154000000Y-201220000D01*
X154540000Y-201510000D01*
G37*
D10*
X154500000Y-193750000D02*
X154500000Y-188700000D01*
X155500000Y-193750000D02*
X155500000Y-194000000D01*
X156500000Y-193750000D02*
X154500000Y-193750000D01*
X154500000Y-188700000D02*
X156500000Y-188700000D01*
X156500000Y-188700000D02*
X156500000Y-193750000D01*
X155500000Y-188650000D02*
X155500000Y-188400000D01*
D12*
X157130000Y-74365000D02*
X157765000Y-73730000D01*
X157130000Y-86430000D02*
X157130000Y-74365000D01*
X157765000Y-73730000D02*
X159670000Y-73730000D01*
X159670000Y-73730000D02*
X159670000Y-86430000D01*
X159670000Y-86430000D02*
X157130000Y-86430000D01*
D10*
X114380000Y-129000000D02*
X119430000Y-129000000D01*
X114380000Y-130000000D02*
X114130000Y-130000000D01*
X114380000Y-131000000D02*
X114380000Y-129000000D01*
X119430000Y-129000000D02*
X119430000Y-131000000D01*
X119430000Y-131000000D02*
X114380000Y-131000000D01*
X119480000Y-130000000D02*
X119730000Y-130000000D01*
D17*
X102300000Y-22500000D02*
X114900000Y-22500000D01*
X102300000Y-27300000D02*
X102300000Y-22500000D01*
D13*
X109550000Y-24350000D02*
X109850000Y-24650000D01*
X109550000Y-24650000D02*
X109850000Y-24350000D01*
X109550000Y-25150000D02*
X109850000Y-25450000D01*
X109550000Y-25450000D02*
X109850000Y-25150000D01*
X112500000Y-25900000D02*
X113100000Y-26300000D01*
X112500000Y-26300000D02*
X113100000Y-25900000D01*
D17*
X114900000Y-22500000D02*
X114900000Y-27300000D01*
X114900000Y-27300000D02*
X102300000Y-27300000D01*
D12*
X110949500Y-22543000D02*
X106250500Y-22543000D01*
X106250500Y-22100000D01*
X110949500Y-22100000D01*
X110949500Y-22543000D01*
G36*
X110949500Y-22543000D02*
G01*
X106250500Y-22543000D01*
X106250500Y-22100000D01*
X110949500Y-22100000D01*
X110949500Y-22543000D01*
G37*
X93900000Y-128250000D02*
X102400000Y-128250000D01*
X93900000Y-131750000D02*
X93900000Y-128250000D01*
X102400000Y-128250000D02*
X102400000Y-131750000D01*
X102400000Y-131750000D02*
X93900000Y-131750000D01*
D13*
X109506487Y-131447857D02*
X109506487Y-131080000D01*
X109506487Y-128920000D02*
X109506487Y-128552143D01*
X106274152Y-131290949D02*
G75*
G03*
X109506486Y-131447856I1672335J1078611D01*
G01*
X109506487Y-128552143D02*
G75*
G03*
X106274152Y-128709051I-1560000J-1235517D01*
G01*
D12*
X108240000Y-131510000D02*
X107700000Y-131800000D01*
X107700000Y-131220000D01*
X108240000Y-131510000D01*
G36*
X108240000Y-131510000D02*
G01*
X107700000Y-131800000D01*
X107700000Y-131220000D01*
X108240000Y-131510000D01*
G37*
X43270000Y-173235000D02*
X42635000Y-173870000D01*
X43270000Y-161170000D02*
X43270000Y-173235000D01*
X42635000Y-173870000D02*
X40730000Y-173870000D01*
X40730000Y-173870000D02*
X40730000Y-161170000D01*
X40730000Y-161170000D02*
X43270000Y-161170000D01*
D13*
X46606487Y-201447857D02*
X46606487Y-201080000D01*
X46606487Y-198920000D02*
X46606487Y-198552143D01*
X43374152Y-201290949D02*
G75*
G03*
X46606486Y-201447856I1672335J1078611D01*
G01*
X46606487Y-198552143D02*
G75*
G03*
X43374152Y-198709051I-1560000J-1235517D01*
G01*
D12*
X45340000Y-201510000D02*
X44800000Y-201800000D01*
X44800000Y-201220000D01*
X45340000Y-201510000D01*
G36*
X45340000Y-201510000D02*
G01*
X44800000Y-201800000D01*
X44800000Y-201220000D01*
X45340000Y-201510000D01*
G37*
D13*
X80365000Y-195645000D02*
X80365000Y-192555000D01*
X74815001Y-194099538D02*
G75*
G03*
X80364999Y-195644830I2989999J-462D01*
G01*
X80365000Y-192555170D02*
G75*
G03*
X74815000Y-194100462I-2560000J-1544830D01*
G01*
X80305000Y-194100000D02*
G75*
G03*
X75305000Y-194100000I-2500000J0D01*
G01*
X75305000Y-194100000D02*
G75*
G03*
X80305000Y-194100000I2500000J0D01*
G01*
D12*
X78215000Y-195790000D02*
X77675000Y-196080000D01*
X77675000Y-195500000D01*
X78215000Y-195790000D01*
G36*
X78215000Y-195790000D02*
G01*
X77675000Y-196080000D01*
X77675000Y-195500000D01*
X78215000Y-195790000D01*
G37*
D10*
X106030000Y-195800000D02*
X111080000Y-195800000D01*
X106030000Y-196800000D02*
X105780000Y-196800000D01*
X106030000Y-197800000D02*
X106030000Y-195800000D01*
X111080000Y-195800000D02*
X111080000Y-197800000D01*
X111080000Y-197800000D02*
X106030000Y-197800000D01*
X111130000Y-196800000D02*
X111380000Y-196800000D01*
X45300000Y-193750000D02*
X45300000Y-188700000D01*
X46300000Y-193750000D02*
X46300000Y-194000000D01*
X47300000Y-193750000D02*
X45300000Y-193750000D01*
X45300000Y-188700000D02*
X47300000Y-188700000D01*
X47300000Y-188700000D02*
X47300000Y-193750000D01*
X46300000Y-188650000D02*
X46300000Y-188400000D01*
X119150000Y-188000000D02*
X114100000Y-188000000D01*
X119150000Y-187000000D02*
X119400000Y-187000000D01*
X119150000Y-186000000D02*
X119150000Y-188000000D01*
X114100000Y-188000000D02*
X114100000Y-186000000D01*
X114100000Y-186000000D02*
X119150000Y-186000000D01*
X114050000Y-187000000D02*
X113800000Y-187000000D01*
D12*
X114210000Y-201855000D02*
X114845000Y-202490000D01*
X102145000Y-201855000D02*
X114210000Y-201855000D01*
X114845000Y-202490000D02*
X114845000Y-204395000D01*
X114845000Y-204395000D02*
X102145000Y-204395000D01*
X102145000Y-204395000D02*
X102145000Y-201855000D01*
D13*
X121620000Y-204245000D02*
X121620000Y-204180000D01*
X121620000Y-204245000D02*
X118380000Y-204245000D01*
X121620000Y-202070000D02*
X121620000Y-202005000D01*
X121620000Y-202005000D02*
X118380000Y-202005000D01*
X118380000Y-204245000D02*
X118380000Y-204180000D01*
X118380000Y-202070000D02*
X118380000Y-202005000D01*
D10*
X156450000Y-180500000D02*
X126450000Y-180500000D01*
X126450000Y-180500000D02*
X126450000Y-140500000D01*
X126450000Y-140500000D02*
X156450000Y-140500000D01*
X156450000Y-140500000D02*
X156450000Y-180500000D01*
D16*
X59500000Y-128750000D02*
X59500000Y-127750000D01*
X59000000Y-128250000D02*
X60000000Y-128250000D01*
D13*
X117055000Y-214785000D02*
X117055000Y-214320000D01*
X117055000Y-212160000D02*
X117055000Y-211695000D01*
X111707186Y-214320827D02*
G75*
G03*
X117054999Y-214784830I2787814J1080827D01*
G01*
X117043451Y-211673981D02*
G75*
G03*
X116800000Y-211340000I-1977451J-1185719D01*
G01*
X116000000Y-210640001D02*
G75*
G03*
X112500000Y-210990000I-1516553J-2509469D01*
G01*
X111900004Y-211715002D02*
G75*
G03*
X111700686Y-212140000I2129196J-1257798D01*
G01*
M02*
