G04 #@! TF.GenerationSoftware,KiCad,Pcbnew,7.0.10*
G04 #@! TF.CreationDate,2024-04-01T20:39:50-05:00*
G04 #@! TF.ProjectId,camera_badge,63616d65-7261-45f6-9261-6467652e6b69,1*
G04 #@! TF.SameCoordinates,Original*
G04 #@! TF.FileFunction,Soldermask,Bot*
G04 #@! TF.FilePolarity,Negative*
%FSLAX46Y46*%
G04 Gerber Fmt 4.6, Leading zero omitted, Abs format (unit mm)*
G04 Created by KiCad (PCBNEW 7.0.10) date 2024-04-01 20:39:50*
%MOMM*%
%LPD*%
G01*
G04 APERTURE LIST*
%ADD10C,1.400000*%
%ADD11R,1.700000X1.700000*%
%ADD12O,1.700000X1.700000*%
%ADD13C,1.600000*%
%ADD14O,2.700000X1.600000*%
%ADD15R,1.800000X1.800000*%
%ADD16C,1.800000*%
%ADD17R,1.150000X1.800000*%
%ADD18O,1.150000X1.800000*%
%ADD19R,1.800000X1.150000*%
%ADD20O,1.800000X1.150000*%
%ADD21R,1.727200X1.727200*%
%ADD22C,1.727200*%
%ADD23O,1.727200X1.727200*%
%ADD24C,0.500000*%
G04 APERTURE END LIST*
G36*
X139525908Y-54732759D02*
G01*
X139922029Y-54803544D01*
X140287008Y-54938628D01*
X140584148Y-55122569D01*
X140691454Y-55223183D01*
X140839252Y-55467182D01*
X140930696Y-55787552D01*
X140964734Y-56148774D01*
X140940317Y-56515324D01*
X140856396Y-56851682D01*
X140746171Y-57074461D01*
X140589061Y-57281497D01*
X140418684Y-57425741D01*
X140194838Y-57534808D01*
X139965285Y-57610847D01*
X139600389Y-57690153D01*
X139273235Y-57690585D01*
X139060934Y-57651515D01*
X138762398Y-57543463D01*
X138465521Y-57378232D01*
X138228640Y-57188867D01*
X138210354Y-57169720D01*
X138037415Y-56914805D01*
X137939599Y-56595995D01*
X137911868Y-56194284D01*
X137916194Y-56059995D01*
X137934229Y-55812254D01*
X137968757Y-55642057D01*
X138036198Y-55502133D01*
X138152976Y-55345211D01*
X138173080Y-55320557D01*
X138430448Y-55072382D01*
X138737931Y-54873256D01*
X138752606Y-54865966D01*
X138959475Y-54773536D01*
X139130873Y-54728094D01*
X139323924Y-54719800D01*
X139525908Y-54732759D01*
G37*
G36*
X77276933Y-52365023D02*
G01*
X77815464Y-52477788D01*
X78307527Y-52700300D01*
X78438875Y-52783129D01*
X78931365Y-53185287D01*
X79328372Y-53659439D01*
X79623675Y-54192560D01*
X79811052Y-54771628D01*
X79884280Y-55383618D01*
X79869290Y-55777324D01*
X79749838Y-56440699D01*
X79528643Y-57032153D01*
X79204720Y-57553432D01*
X78777083Y-58006282D01*
X78480202Y-58238932D01*
X78209904Y-58420418D01*
X77986484Y-58543321D01*
X77761519Y-58629657D01*
X77486583Y-58701443D01*
X77439854Y-58711916D01*
X77150949Y-58773229D01*
X76930920Y-58808425D01*
X76737036Y-58818371D01*
X76526565Y-58803935D01*
X76256776Y-58765985D01*
X76091401Y-58739301D01*
X75657175Y-58658398D01*
X75316395Y-58568289D01*
X75037733Y-58456453D01*
X74789866Y-58310365D01*
X74546308Y-58121617D01*
X74213155Y-57809516D01*
X73957648Y-57493989D01*
X73765977Y-57147770D01*
X73624330Y-56743593D01*
X73518898Y-56254191D01*
X73482868Y-56022120D01*
X73430828Y-55338900D01*
X73480132Y-54727340D01*
X73631786Y-54186035D01*
X73886799Y-53713583D01*
X74246179Y-53308580D01*
X74710934Y-52969624D01*
X75282073Y-52695310D01*
X75960603Y-52484236D01*
X76037869Y-52465743D01*
X76686284Y-52361257D01*
X77276933Y-52365023D01*
G37*
G36*
X109007309Y-27708650D02*
G01*
X109886435Y-27840190D01*
X110489644Y-28328424D01*
X110690495Y-28494092D01*
X110859735Y-28644157D01*
X111012901Y-28796868D01*
X111165533Y-28970476D01*
X111333170Y-29183230D01*
X111531352Y-29453381D01*
X111775617Y-29799179D01*
X111927639Y-30017297D01*
X112762425Y-31217936D01*
X113786768Y-31789578D01*
X114811112Y-32361220D01*
X118604573Y-32428287D01*
X122398035Y-32495354D01*
X122801757Y-32936310D01*
X123205479Y-33377266D01*
X123185699Y-35165949D01*
X123165918Y-36954632D01*
X122696297Y-37471910D01*
X122226676Y-37989189D01*
X120143682Y-37989189D01*
X118060688Y-37989189D01*
X118060688Y-39169531D01*
X118060688Y-40349873D01*
X117551048Y-40823339D01*
X117041407Y-41296806D01*
X114003034Y-41296806D01*
X110964661Y-41296806D01*
X110265281Y-41640049D01*
X109565902Y-41983292D01*
X108680248Y-41980347D01*
X107794595Y-41977401D01*
X107170516Y-41619948D01*
X106546438Y-41262495D01*
X103675676Y-41298090D01*
X100804914Y-41333684D01*
X100617691Y-41193076D01*
X100478730Y-41081380D01*
X100287313Y-40918301D01*
X100082578Y-40737248D01*
X100063101Y-40719642D01*
X99695735Y-40386816D01*
X99664749Y-39203605D01*
X99633762Y-38020393D01*
X97192557Y-38038796D01*
X94751352Y-38057199D01*
X94208891Y-37664349D01*
X93666430Y-37271498D01*
X93662822Y-35351446D01*
X93659214Y-33431393D01*
X94018059Y-32973454D01*
X94376905Y-32515516D01*
X95119995Y-32475202D01*
X95323668Y-32467579D01*
X95637712Y-32460392D01*
X96047683Y-32453780D01*
X96539137Y-32447883D01*
X97097629Y-32442840D01*
X97708715Y-32438790D01*
X98357950Y-32435874D01*
X99030891Y-32434231D01*
X99394934Y-32433922D01*
X102926782Y-32432956D01*
X103706880Y-31971903D01*
X104486978Y-31510850D01*
X105142261Y-30090228D01*
X105797543Y-28669606D01*
X106962863Y-28123358D01*
X108128183Y-27577110D01*
X109007309Y-27708650D01*
G37*
D10*
X46300000Y-135000000D03*
X46300000Y-142620000D03*
D11*
X146000000Y-138000000D03*
D12*
X143460000Y-138000000D03*
X140920000Y-138000000D03*
X138380000Y-138000000D03*
X135840000Y-138000000D03*
D11*
X113575000Y-44475000D03*
D12*
X111035000Y-44475000D03*
X108495000Y-44475000D03*
X105955000Y-44475000D03*
X103415000Y-44475000D03*
D13*
X133250000Y-192000000D03*
X133250000Y-189500000D03*
D11*
X158400000Y-172600000D03*
D12*
X158400000Y-170060000D03*
X158400000Y-167520000D03*
X158400000Y-164980000D03*
X158400000Y-162440000D03*
D10*
X84250000Y-198060000D03*
X84250000Y-190440000D03*
X158300000Y-143690000D03*
X158300000Y-151310000D03*
D14*
X80300000Y-156880000D03*
X80300000Y-154340000D03*
X80300000Y-179740000D03*
X80300000Y-159420000D03*
X80300000Y-167040000D03*
X57440000Y-151800000D03*
X80300000Y-149260000D03*
X57440000Y-154340000D03*
X80300000Y-151800000D03*
X80300000Y-161960000D03*
X80300000Y-164500000D03*
X80300000Y-169580000D03*
X80300000Y-174660000D03*
X80300000Y-177200000D03*
X80300000Y-172120000D03*
X57440000Y-161960000D03*
X57440000Y-159420000D03*
X57440000Y-156880000D03*
X57440000Y-167040000D03*
X57440000Y-164500000D03*
X57440000Y-172120000D03*
X57440000Y-169580000D03*
X57440000Y-179740000D03*
X57440000Y-177200000D03*
X57440000Y-174660000D03*
X57440000Y-149260000D03*
D15*
X46300000Y-130000000D03*
D16*
X43760000Y-130000000D03*
D15*
X121725000Y-134225000D03*
D16*
X121725000Y-136765000D03*
D17*
X104900000Y-213240000D03*
D18*
X103250000Y-213240000D03*
X101600000Y-213240000D03*
X99950000Y-213240000D03*
D11*
X42000000Y-75000000D03*
D12*
X42000000Y-77540000D03*
X42000000Y-80080000D03*
X42000000Y-82620000D03*
X42000000Y-85160000D03*
D11*
X146000000Y-109600000D03*
D12*
X143460000Y-109600000D03*
X140920000Y-109600000D03*
X138380000Y-109600000D03*
X135840000Y-109600000D03*
D15*
X155500000Y-138000000D03*
D16*
X152960000Y-138000000D03*
D19*
X138750000Y-193400000D03*
D20*
X138750000Y-191750000D03*
X138750000Y-190100000D03*
X138750000Y-188450000D03*
D13*
X98250000Y-203125000D03*
X95750000Y-203125000D03*
D15*
X155500000Y-200000000D03*
D16*
X152960000Y-200000000D03*
D10*
X155500000Y-195000000D03*
X155500000Y-187380000D03*
D11*
X158400000Y-75000000D03*
D12*
X158400000Y-77540000D03*
X158400000Y-80080000D03*
X158400000Y-82620000D03*
X158400000Y-85160000D03*
D10*
X113130000Y-130000000D03*
X120750000Y-130000000D03*
D21*
X106120000Y-23650000D03*
D22*
X106120000Y-26190000D03*
D23*
X108660000Y-23650000D03*
X108660000Y-26190000D03*
D22*
X111200000Y-23650000D03*
X111200000Y-26190000D03*
D13*
X95650000Y-130000000D03*
X98150000Y-130000000D03*
X100650000Y-130000000D03*
D15*
X109200000Y-130000000D03*
D16*
X106660000Y-130000000D03*
D11*
X42000000Y-172600000D03*
D12*
X42000000Y-170060000D03*
X42000000Y-167520000D03*
X42000000Y-164980000D03*
X42000000Y-162440000D03*
D24*
X55450000Y-123050000D03*
X55450000Y-124550000D03*
X56200000Y-123050000D03*
X56200000Y-124550000D03*
X56950000Y-123050000D03*
X56950000Y-124550000D03*
X95300000Y-123050000D03*
X95300000Y-124550000D03*
X96050000Y-123050000D03*
X96050000Y-124550000D03*
X96800000Y-123050000D03*
X96800000Y-124550000D03*
X107350000Y-123050000D03*
X107350000Y-124550000D03*
X108100000Y-123050000D03*
X108100000Y-124550000D03*
X108850000Y-123050000D03*
X108850000Y-124550000D03*
X119350000Y-123050000D03*
X119350000Y-124550000D03*
X120100000Y-123050000D03*
X120100000Y-124550000D03*
X120850000Y-123050000D03*
X120850000Y-124550000D03*
D15*
X46300000Y-200000000D03*
D16*
X43760000Y-200000000D03*
D15*
X79075000Y-194100000D03*
D16*
X76535000Y-194100000D03*
D10*
X104780000Y-196800000D03*
X112400000Y-196800000D03*
X46300000Y-195000000D03*
X46300000Y-187380000D03*
X120400000Y-187000000D03*
X112780000Y-187000000D03*
D11*
X114870000Y-140560000D03*
D12*
X112330000Y-140560000D03*
X109790000Y-140560000D03*
X107250000Y-140560000D03*
X104710000Y-140560000D03*
X102170000Y-140560000D03*
X99630000Y-140560000D03*
D11*
X113575000Y-203125000D03*
D12*
X111035000Y-203125000D03*
X108495000Y-203125000D03*
X105955000Y-203125000D03*
X103415000Y-203125000D03*
D13*
X121250000Y-203125000D03*
X118750000Y-203125000D03*
D15*
X59500000Y-130000000D03*
D16*
X62040000Y-130000000D03*
D17*
X116900000Y-213240000D03*
D18*
X115250000Y-213240000D03*
X113600000Y-213240000D03*
X111950000Y-213240000D03*
M02*
