M48
INCH,TZ
T1C0.0157
T2C0.0276
T3C0.0315
T4C0.0354
T5C0.0394
T6C0.0400
T7C0.0402
%
G90
G05
T1
X21949Y-19193
X31201Y-40354
X55512Y-32972
T2
X18228Y-53150
X18228Y-56150
X18228Y-73772
X18228Y-76772
X33169Y-74976
X33169Y-77976
X41252Y-77480
X44252Y-77480
X44402Y-73622
X44539Y-51181
X47402Y-73622
X47539Y-51181
X61220Y-73772
X61220Y-76772
X62323Y-56571
X62323Y-59571
T3
X37697Y-79970
X38681Y-79970
X46752Y-79970
X47736Y-79970
X52461Y-74606
X52461Y-75591
T4
X17228Y-51181
X17228Y-78740
X18228Y-51181
X18228Y-78740
X23425Y-51181
X24425Y-51181
X30132Y-76417
X31132Y-76417
X39350Y-83953
X40000Y-83953
X40650Y-83953
X41299Y-83953
X41992Y-51181
X42992Y-51181
X44075Y-83953
X44724Y-83953
X45374Y-83953
X46024Y-83953
X47923Y-52844
X47923Y-53844
X54626Y-74193
X54626Y-74843
X54626Y-75492
X54626Y-76142
X60220Y-54331
X60220Y-78740
X61220Y-54331
X61220Y-78740
T5
X16535Y-29528
X16535Y-30528
X16535Y-31528
X16535Y-32528
X16535Y-33528
X16535Y-63953
X16535Y-64953
X16535Y-65953
X16535Y-66953
X16535Y-67953
X37657Y-51181
X38642Y-51181
X39224Y-55339
X39626Y-51181
X40224Y-55339
X40715Y-17510
X40715Y-79970
X41224Y-55339
X41715Y-17510
X41715Y-79970
X42224Y-55339
X42715Y-17510
X42715Y-79970
X43224Y-55339
X43715Y-17510
X43715Y-79970
X44224Y-55339
X44715Y-17510
X44715Y-79970
X45224Y-55339
X53480Y-43150
X53480Y-54331
X54480Y-43150
X54480Y-54331
X55480Y-43150
X55480Y-54331
X56480Y-43150
X56480Y-54331
X57480Y-43150
X57480Y-54331
X62362Y-29528
X62362Y-30528
X62362Y-31528
X62362Y-32528
X62362Y-33528
X62362Y-63953
X62362Y-64953
X62362Y-65953
X62362Y-66953
X62362Y-67953
T6
X41780Y-9311
X41780Y-10311
X42780Y-9311
X42780Y-10311
X43780Y-9311
X43780Y-10311
T7
X22614Y-58764
X22614Y-59764
X22614Y-60764
X22614Y-61764
X22614Y-62764
X22614Y-63764
X22614Y-64764
X22614Y-65764
X22614Y-66764
X22614Y-67764
X22614Y-68764
X22614Y-69764
X22614Y-70764
X31614Y-58764
X31614Y-59764
X31614Y-60764
X31614Y-61764
X31614Y-62764
X31614Y-63764
X31614Y-64764
X31614Y-65764
X31614Y-66764
X31614Y-67764
X31614Y-68764
X31614Y-69764
X31614Y-70764
M30
